<svg xmlns="http://www.w3.org/2000/svg" viewBox="0 0 594.5 111.7"><path fill="#4EA1D9" d="M188.7 50.6h16.6c12.1 0 22.3 9.9 22.3 22.3s-9.9 22.3-22.3 22.3h-16.6V50.6zm16.5 1.2h-15.4V94h15.4c11.8 0 21.1-9.3 21.1-21.1s-9.6-21.1-21.1-21.1zm50.1 25.3h-12.7v18.1h-1.2V50.6h15.1c7.2 0 13.3 6 13.3 13.3s-5.7 13-13 13L267.4 95h-1.8c-.1-.1-10.3-17.9-10.3-17.9zm.9-25.3h-13.9v24.1h13.9c6.6 0 12.1-5.4 12.1-12.1 0-6.6-5.5-12-12.1-12zm47-1.2c12.4 0 22.3 9.9 22.3 22.3s-9.9 22.3-22.3 22.3-22.3-9.9-22.3-22.3 10-22.3 22.3-22.3zm0 43.4c11.8 0 21.1-9.3 21.1-21.1s-9.3-21.1-21.1-21.1-21.1 9.3-21.1 21.1S291.5 94 303.2 94zm37.7 1.2V50.6h1.2v44.3h-1.2v.3zm19.6-44.6h16.6c12.4 0 22.3 9.9 22.3 22.3s-9.9 22.3-22.3 22.3h-16.6V50.6zm16.6 1.2h-15.4V94h15.4c11.8 0 21.1-9.3 21.1-21.1s-9.4-21.1-21.1-21.1z"/><path fill="#E7E63C" d="M187.2 47.3h16.6c12.1 0 22.3 9.9 22.3 22.3s-9.9 22.3-22.3 22.3h-16.6V47.3zm16.5 1.2h-15.4v42.2h15.4c11.8 0 21.1-9.3 21.1-21.1s-9.6-21.1-21.1-21.1zm50.1 25h-12.7v18.1h-1.2V47.3H255c7.2 0 13.3 6 13.3 13.3s-5.7 13-13 13l10.6 18.1h-1.5c-.1-.1-10.6-18.2-10.6-18.2zm1.2-25h-13.9v24.1H255c6.6 0 12.1-5.4 12.1-12.1-.3-6.6-5.8-12-12.1-12zm46.7-1.2c12.4 0 22.3 9.9 22.3 22.3s-9.9 22.3-22.3 22.3-22.3-9.9-22.3-22.3 10-22.3 22.3-22.3zm0 43.4c11.8 0 21.1-9.3 21.1-21.1s-9.3-21.1-21.1-21.1-21.1 9.3-21.1 21.1 9.4 21.1 21.1 21.1zm37.7.9V47.3h1.2v44.3h-1.2zM359 47.3h16.6c12.1 0 22 9.9 22 22.3s-9.9 22.3-22.3 22.3H359V47.3zm16.6 1.2h-15.4v42.2h15.4c11.8 0 21.1-9.3 21.1-21.1s-9.4-21.1-21.1-21.1z"/><path fill="#F28BAB" d="M190.8 47.3h16.6c12.1 0 22.3 9.9 22.3 22.3s-9.9 22.3-22.3 22.3h-16.6V47.3zm16.6 1.2H192v42.2h15.4c11.8 0 21.1-9.3 21.1-21.1s-9.4-21.1-21.1-21.1zm50 25h-12.7v18.1h-1.2V47.3h15.1c7.2 0 13.3 6 13.3 13.3s-5.7 13-13 13l10.6 18.1H268c0-.1-10.6-18.2-10.6-18.2zm1.2-25h-13.9v24.1h13.9c6.6 0 12.1-5.4 12.1-12.1s-5.5-12-12.1-12zm46.7-1.2c12.4 0 22.3 9.9 22.3 22.3s-9.9 22.3-22.3 22.3S283 82 283 69.6c.3-12.4 10.3-22.3 22.3-22.3zm0 43.4c11.8 0 21.1-9.3 21.1-21.1s-9.3-21.1-21.1-21.1-21.1 9.3-21.1 21.1c.3 11.8 9.7 21.1 21.1 21.1zm38 .9V47.3h1.2v44.3h-1.2zm19.6-44.3h16.6c12.1 0 22.3 9.9 22.3 22.3s-9.9 22.3-22.3 22.3h-16.6V47.3zm16.6 1.2h-15.4v42.2h15.4c11.8 0 21.1-9.3 21.1-21.1s-9.3-21.1-21.1-21.1z"/><path fill="#231F20" d="M188.7 48.8h16.6c12.1 0 22.3 9.9 22.3 22.3s-9.9 22.3-22.3 22.3h-16.6V48.8zm16.5 1.2h-15.4v42.2h15.4c11.8 0 21.1-9.3 21.1-21.1S216.7 50 205.2 50zm50.1 25h-12.7v18.1h-1.2V48.8h15.1c7.2 0 13.3 6 13.3 13.3s-5.7 13-13 13l10.6 18.1h-1.8c-.1-.1-10.3-18.2-10.3-18.2zm.9-25.3h-13.9v24.1h13.9c6.6 0 12.1-5.4 12.1-12.1 0-6.3-5.5-11.7-12.1-12zm47-.9c12.4 0 22.3 9.9 22.3 22.3s-9.9 22.3-22.3 22.3-22.3-9.9-22.3-22.3 10-22.3 22.3-22.3zm0 43.1c11.8 0 21.1-9.3 21.1-21.1s-9.3-21.1-21.1-21.1-21.1 9.3-21.1 21.1 9.4 21.1 21.1 21.1zm37.7 1.2V48.8h1.2v44.3h-1.2zm19.6-44.3h16.6c12.4 0 22.3 9.9 22.3 22.3s-9.9 22.3-22.3 22.3h-16.6V48.8zm16.6 1.2h-15.4v42.2h15.4c11.8 0 21.1-9.3 21.1-21.1S388.8 50 377.1 50zm49.1-1.2H438v32.9h16v11.8h-27.7V48.8zm37.4 44.3l20.8-44.3h5.4l20.8 44.3h-11.8l-2.7-5.7H478l-2.7 5.7h-11.7zm19-15.7h9l-4.5-9.6-4.5 9.6zm38.3 15.7V48.8h19.6c7.2 0 13.3 6 13.3 13.3 0 3-1.2 5.7-2.7 8.1 3 2.4 5.1 6 5.1 10.3 0 6.9-6 13-13 13h-22.3v-.4zM538.4 66c2.1 0 3.9-1.8 3.9-3.9 0-2.1-1.8-3.9-3.9-3.9h-5.7V66h5.7zm2.1 17.5c2.1 0 3.9-1.8 3.9-3.9 0-2.1-1.8-3.9-3.9-3.9h-7.8v7.8h7.8zm43.4-21.1c0-1.8-1.5-3.3-3.3-3.3-1.8 0-3.3 1.5-3.3 3.3s1.5 3.3 3.3 3.3c4.2 0 8.1 2.1 10.9 5.1 1.8 2.4 3 5.4 3 8.4 0 7.5-6 13.6-13.6 13.6-7.5 0-13.6-6-13.6-13.9h10.3c0 1.8 1.5 3.3 3.3 3.3 1.8 0 3.3-1.5 3.3-3.3s-1.5-3.3-3.3-3.3c-7.5 0-13.6-6-13.6-13.6 0-7.5 6-13.6 13.6-13.6 7.5 0 13.6 6 13.6 13.6h-10.6v.4z"/><g fill="#E7E63C"><path d="M60.7 75.7s4 8.1 14.5 8.1 15.3-8.2 15.3-8.2l-29.8.1z"/><path d="M75.6 25.9h59.7c11 0 14.3 3.1 13.7 13.7-1.2 18.5-2.6 36.9-4.2 55.4-.9 10.2-5.4 14.1-15.6 14.2-35.7.1-71.3.1-107 0-10.6 0-14.9-4.1-15.8-14.9-1.5-17.9-2.8-35.8-4-53.7-.9-11.3 2.4-14.7 13.5-14.7h59.7zm.1 13.9c-17.7 0-35.4.1-53.1-.1-5.5-.1-7.3 1.8-6.8 7.3 1.4 14 2.4 28.1 3.3 42.2.3 4.7 2.5 6.1 6.9 6.1 32.9-.1 65.9-.1 98.8 0 4.8 0 7-1.7 7.3-6.6.9-13.8 1.9-27.6 3.3-41.4.6-6.1-1.7-7.7-7.3-7.6-17.5.2-34.9.1-52.4.1zM39.9 7.6c0-1.8-1.5-3.3-3.3-3.3-1.8 0-3.3 1.5-3.3 3.3v14.1c0 1.8 1.5 3.3 3.3 3.3 1.8 0 3.3-1.5 3.3-3.3V7.6z"/><circle cx="36.6" cy="8.5" r="8.1"/><path d="M116.9 7.6c0-1.8-1.5-3.3-3.3-3.3-1.8 0-3.3 1.5-3.3 3.3v14.1c0 1.8 1.5 3.3 3.3 3.3 1.8 0 3.3-1.5 3.3-3.3V7.6z"/><circle cx="113.5" cy="8.5" r="8.1"/><path d="M70 0c10 2.9 19.9 5.8 29.7 8.7v.1H78.8c.8 2.9 1.5 5.7 2.3 8.6-9.9-2.9-19.8-5.8-29.6-8.6v-.1h20.8c-.8-3-1.5-5.8-2.3-8.7z"/><circle cx="36.6" cy="8.5" r="4"/><circle cx="113.5" cy="8.7" r="4"/><circle cx="52" cy="58.5" r="7.3"/><circle cx="96.1" cy="58.5" r="7.3"/></g><path d="M58.6 78.2s4 8.1 14.5 8.1 15.3-8.2 15.3-8.2l-29.8.1z"/><path d="M73.4 28.4h59.7c11 0 14.3 3.1 13.7 13.7-1.2 18.5-2.6 36.9-4.2 55.4-.9 10.2-5.4 14.1-15.6 14.2-35.7.1-71.3.1-107 0-10.6 0-14.9-4.1-15.8-14.9C2.7 78.8 1.3 60.9.1 43c-.8-11.2 2.5-14.6 13.6-14.6 19.9-.1 39.8 0 59.7 0zm.2 13.8c-17.7 0-35.4.1-53.1-.1-5.5-.1-7.3 1.8-6.8 7.3C15 63.5 16 77.6 17 91.6c.3 4.7 2.5 6.1 6.9 6.1 32.9-.1 65.9-.1 98.8 0 4.8 0 7-1.7 7.3-6.6.9-13.8 1.9-27.6 3.3-41.4.6-6.1-1.7-7.7-7.3-7.6-17.6.3-35 .1-52.4.1zM37.7 10c0-1.8-1.5-3.3-3.3-3.3-1.8 0-3.3 1.5-3.3 3.3v14.1c0 1.8 1.5 3.3 3.3 3.3 1.8 0 3.3-1.5 3.3-3.3V10z"/><circle cx="34.4" cy="10.9" r="8.1"/><path d="M114.7 10c0-1.8-1.5-3.3-3.3-3.3-1.8 0-3.3 1.5-3.3 3.3v14.1c0 1.8 1.5 3.3 3.3 3.3 1.8 0 3.3-1.5 3.3-3.3V10z"/><circle cx="111.4" cy="10.9" r="8.1"/><path d="M67.8 2.4c10 2.9 19.9 5.8 29.7 8.7v.1H76.6c.8 2.9 1.5 5.7 2.3 8.6-9.9-2.9-19.8-5.8-29.6-8.6v-.1h20.8c-.8-2.9-1.5-5.8-2.3-8.7z"/><circle fill="#FFF" cx="34.4" cy="10.9" r="4"/><circle fill="#FFF" cx="111.4" cy="11.1" r="4"/><circle cx="49.8" cy="61" r="7.3"/><circle cx="93.9" cy="61" r="7.3"/></svg>