<?xml version="1.0" encoding="utf-8"?>
<!-- Generator: Adobe Illustrator 21.0.2, SVG Export Plug-In . SVG Version: 6.00 Build 0)  -->
<svg version="1.1" id="Ebene_1" xmlns="http://www.w3.org/2000/svg" xmlns:xlink="http://www.w3.org/1999/xlink" x="0px" y="0px"
	 viewBox="0 0 1024 768" style="enable-background:new 0 0 1024 768;" xml:space="preserve">
<style type="text/css">
	.st0{fill:#FFFFFF;}
	.st1{fill:#FF5C5C;}
</style>
<g>
	<path d="M359.8,256.8c20.1-23.6,40.4-47,59.9-71.1c13.7-16.9,26.1-34.8,39.4-52.7c0.1,0.1,0.2,0.2,0.2,0.3v347.1
		c-14.8,0-32.1,0-47,0c2.5-4.4,7.3-15.5,9.3-19.5c7.7-14.9,15.7-29.7,22.9-44.8c3.1-6.5,4.5-13.8,3.6-21.3c-0.9,0-1.3-0.1-1.5,0
		c-0.9,0.4-1.7,0.9-2.6,1.4c-15.7,9.1-32.5,14.3-50.8,14.3c-21.2,0-40.2-6-55.1-21.5c-19.1-19.8-21.2-43.8-14.7-69.1
		C329.6,295.7,343.7,275.7,359.8,256.8z"/>
	<path d="M481.6,176.6h-16.7c-1.1,0-2-0.9-2-2v-16.7c0-1.1,0.9-2,2-2h16.7c1.1,0,2,0.9,2,2v16.7
		C483.7,175.7,482.8,176.6,481.6,176.6z"/>
	<path d="M481.6,199.4h-16.7c-1.1,0-2-0.9-2-2v-16.7c0-1.1,0.9-2,2-2h16.7c1.1,0,2,0.9,2,2v16.7
		C483.7,198.5,482.8,199.4,481.6,199.4z"/>
	<path d="M481.6,222.9h-16.7c-1.1,0-2-0.9-2-2v-16.7c0-1.1,0.9-2,2-2h16.7c1.1,0,2,0.9,2,2v16.7C483.7,222,482.8,222.9,481.6,222.9z
		"/>
	<path d="M481.6,245.9h-16.7c-1.1,0-2-0.9-2-2v-16.7c0-1.1,0.9-2,2-2h16.7c1.1,0,2,0.9,2,2v16.7C483.7,245,482.8,245.9,481.6,245.9z
		"/>
	<path d="M481.6,269.2h-16.7c-1.1,0-2-0.9-2-2v-16.7c0-1.1,0.9-2,2-2h16.7c1.1,0,2,0.9,2,2v16.7
		C483.7,268.3,482.8,269.2,481.6,269.2z"/>
	<path d="M481.6,292.3h-16.7c-1.1,0-2-0.9-2-2v-16.7c0-1.1,0.9-2,2-2h16.7c1.1,0,2,0.9,2,2v16.7
		C483.7,291.4,482.8,292.3,481.6,292.3z"/>
	<path d="M481.6,314.5h-16.7c-1.1,0-2-0.9-2-2v-16.7c0-1.1,0.9-2,2-2h16.7c1.1,0,2,0.9,2,2v16.7
		C483.7,313.6,482.8,314.5,481.6,314.5z"/>
	<path d="M481.6,336.4h-16.7c-1.1,0-2-0.9-2-2v-16.7c0-1.1,0.9-2,2-2h16.7c1.1,0,2,0.9,2,2v16.7
		C483.7,335.4,482.8,336.4,481.6,336.4z"/>
	<path d="M481.6,360.1h-16.7c-1.1,0-2-0.9-2-2v-16.7c0-1.1,0.9-2,2-2h16.7c1.1,0,2,0.9,2,2v16.7
		C483.7,359.2,482.8,360.1,481.6,360.1z"/>
	<path d="M481.6,382.9h-16.7c-1.1,0-2-0.9-2-2v-16.7c0-1.1,0.9-2,2-2h16.7c1.1,0,2,0.9,2,2v16.7C483.7,382,482.8,382.9,481.6,382.9z
		"/>
	<path class="st1" d="M505.1,200.2h-16.7c-1.1,0-2-0.9-2-2v-16.7c0-1.1,0.9-2,2-2h16.7c1.1,0,2,0.9,2,2v16.7
		C507.2,199.3,506.3,200.2,505.1,200.2z"/>
	<path d="M505.1,222.9h-16.7c-1.1,0-2-0.9-2-2v-16.7c0-1.1,0.9-2,2-2h16.7c1.1,0,2,0.9,2,2v16.7C507.2,222,506.3,222.9,505.1,222.9z
		"/>
	<path class="st1" d="M505.1,245.9h-16.7c-1.1,0-2-0.9-2-2v-16.7c0-1.1,0.9-2,2-2h16.7c1.1,0,2,0.9,2,2v16.7
		C507.2,245,506.3,245.9,505.1,245.9z"/>
	<path d="M505.1,269.2h-16.7c-1.1,0-2-0.9-2-2v-16.7c0-1.1,0.9-2,2-2h16.7c1.1,0,2,0.9,2,2v16.7
		C507.2,268.3,506.3,269.2,505.1,269.2z"/>
	<path d="M505.1,292.3h-16.7c-1.1,0-2-0.9-2-2v-16.7c0-1.1,0.9-2,2-2h16.7c1.1,0,2,0.9,2,2v16.7
		C507.2,291.4,506.3,292.3,505.1,292.3z"/>
	<path class="st1" d="M505.1,314.6h-16.7c-1.1,0-2-0.9-2-2v-16.7c0-1.1,0.9-2,2-2h16.7c1.1,0,2,0.9,2,2v16.7
		C507.2,313.7,506.3,314.6,505.1,314.6z"/>
	<path d="M505.1,336.6h-16.7c-1.1,0-2-0.9-2-2v-16.7c0-1.1,0.9-2,2-2h16.7c1.1,0,2,0.9,2,2v16.7
		C507.2,335.6,506.3,336.6,505.1,336.6z"/>
	<path d="M505.1,359.9h-16.7c-1.1,0-2-0.9-2-2v-16.7c0-1.1,0.9-2,2-2h16.7c1.1,0,2,0.9,2,2v16.7C507.2,359,506.3,359.9,505.1,359.9z
		"/>
	<path class="st1" d="M505.1,382.9h-16.7c-1.1,0-2-0.9-2-2v-16.7c0-1.1,0.9-2,2-2h16.7c1.1,0,2,0.9,2,2v16.7
		C507.2,382,506.3,382.9,505.1,382.9z"/>
	<path d="M482,455.5h-16.7c-1.1,0-2-0.9-2-2v-16.7c0-1.1,0.9-2,2-2H482c1.1,0,2,0.9,2,2v16.7C484.1,454.6,483.1,455.5,482,455.5z"/>
	<path d="M482,480h-16.7c-1.1,0-2-0.9-2-2v-16.7c0-1.1,0.9-2,2-2H482c1.1,0,2,0.9,2,2V478C484.1,479.1,483.1,480,482,480z"/>
	<path class="st1" d="M529,222.9h-16.7c-1.1,0-2-0.9-2-2v-16.7c0-1.1,0.9-2,2-2H529c1.1,0,2,0.9,2,2v16.7
		C531.1,222,530.1,222.9,529,222.9z"/>
	<path d="M529,245.9h-16.7c-1.1,0-2-0.9-2-2v-16.7c0-1.1,0.9-2,2-2H529c1.1,0,2,0.9,2,2v16.7C531.1,245,530.1,245.9,529,245.9z"/>
	<path class="st1" d="M529,269.2h-16.7c-1.1,0-2-0.9-2-2v-16.7c0-1.1,0.9-2,2-2H529c1.1,0,2,0.9,2,2v16.7
		C531.1,268.3,530.1,269.2,529,269.2z"/>
	<path d="M529,292.5h-16.7c-1.1,0-2-0.9-2-2v-16.7c0-1.1,0.9-2,2-2H529c1.1,0,2,0.9,2,2v16.7C531.1,291.6,530.1,292.5,529,292.5z"/>
	<path class="st1" d="M529,314.6h-16.7c-1.1,0-2-0.9-2-2v-16.7c0-1.1,0.9-2,2-2H529c1.1,0,2,0.9,2,2v16.7
		C531.1,313.7,530.1,314.6,529,314.6z"/>
	<path d="M529,336.6h-16.7c-1.1,0-2-0.9-2-2v-16.7c0-1.1,0.9-2,2-2H529c1.1,0,2,0.9,2,2v16.7C531.1,335.6,530.1,336.6,529,336.6z"/>
	<path class="st1" d="M529,359.9h-16.7c-1.1,0-2-0.9-2-2v-16.7c0-1.1,0.9-2,2-2H529c1.1,0,2,0.9,2,2v16.7
		C531.1,359,530.1,359.9,529,359.9z"/>
	<path d="M529,382.7h-16.7c-1.1,0-2-0.9-2-2v-16.7c0-1.1,0.9-2,2-2H529c1.1,0,2,0.9,2,2v16.7C531.1,381.8,530.1,382.7,529,382.7z"/>
	<path class="st1" d="M529,406.9h-16.7c-1.1,0-2-0.9-2-2v-16.7c0-1.1,0.9-2,2-2H529c1.1,0,2,0.9,2,2v16.7
		C531.1,405.9,530.1,406.9,529,406.9z"/>
	<path d="M505.1,407h-16.7c-1.1,0-2-0.9-2-2v-16.7c0-1.1,0.9-2,2-2h16.7c1.1,0,2,0.9,2,2v16.7C507.2,406,506.3,407,505.1,407z"/>
	<path class="st1" d="M552.9,245.9h-16.7c-1.1,0-2-0.9-2-2v-16.7c0-1.1,0.9-2,2-2h16.7c1.1,0,2,0.9,2,2v16.7
		C555,245,554,245.9,552.9,245.9z"/>
	<path d="M552.9,269.2h-16.7c-1.1,0-2-0.9-2-2v-16.7c0-1.1,0.9-2,2-2h16.7c1.1,0,2,0.9,2,2v16.7C555,268.3,554,269.2,552.9,269.2z"
		/>
	<path class="st1" d="M552.9,292.5h-16.7c-1.1,0-2-0.9-2-2v-16.7c0-1.1,0.9-2,2-2h16.7c1.1,0,2,0.9,2,2v16.7
		C555,291.6,554,292.5,552.9,292.5z"/>
	<path d="M552.9,314.6h-16.7c-1.1,0-2-0.9-2-2v-16.7c0-1.1,0.9-2,2-2h16.7c1.1,0,2,0.9,2,2v16.7C555,313.7,554,314.6,552.9,314.6z"
		/>
	<path class="st1" d="M552.9,336.6h-16.7c-1.1,0-2-0.9-2-2v-16.7c0-1.1,0.9-2,2-2h16.7c1.1,0,2,0.9,2,2v16.7
		C555,335.6,554,336.6,552.9,336.6z"/>
	<path class="st1" d="M552.9,359.9h-16.7c-1.1,0-2-0.9-2-2v-16.7c0-1.1,0.9-2,2-2h16.7c1.1,0,2,0.9,2,2v16.7
		C555,359,554,359.9,552.9,359.9z"/>
	<path class="st1" d="M552.9,382.7h-16.7c-1.1,0-2-0.9-2-2v-16.7c0-1.1,0.9-2,2-2h16.7c1.1,0,2,0.9,2,2v16.7
		C555,381.8,554,382.7,552.9,382.7z"/>
	<path class="st1" d="M552.9,406.9h-16.7c-1.1,0-2-0.9-2-2v-16.7c0-1.1,0.9-2,2-2h16.7c1.1,0,2,0.9,2,2v16.7
		C555,405.9,554,406.9,552.9,406.9z"/>
	<path class="st1" d="M570.4,263.6h-7.8c-1,0-1.9-0.8-1.9-1.9v-7.8c0-1,0.8-1.9,1.9-1.9h7.8c1,0,1.9,0.8,1.9,1.9v7.8
		C572.3,262.8,571.5,263.6,570.4,263.6z"/>
	<path class="st1" d="M570.4,286.9h-7.8c-1,0-1.9-0.8-1.9-1.9v-7.8c0-1,0.8-1.9,1.9-1.9h7.8c1,0,1.9,0.8,1.9,1.9v7.8
		C572.3,286,571.5,286.9,570.4,286.9z"/>
	<path class="st1" d="M570.5,309h-8c-1,0-1.8-0.8-1.8-1.8v-8c0-1,0.8-1.8,1.8-1.8h8c1,0,1.8,0.8,1.8,1.8v8
		C572.3,308.2,571.5,309,570.5,309z"/>
	<path class="st1" d="M570.5,330.9h-7.9c-1,0-1.8-0.8-1.8-1.8v-7.9c0-1,0.8-1.8,1.8-1.8h7.9c1,0,1.8,0.8,1.8,1.8v7.9
		C572.3,330.1,571.5,330.9,570.5,330.9z"/>
	<path class="st1" d="M570.4,354.2h-7.9c-1,0-1.9-0.8-1.9-1.9v-7.9c0-1,0.8-1.9,1.9-1.9h7.9c1,0,1.9,0.8,1.9,1.9v7.9
		C572.3,353.4,571.5,354.2,570.4,354.2z"/>
	<path d="M570.3,377.1h-7.5c-1.1,0-2-0.9-2-2v-7.5c0-1.1,0.9-2,2-2h7.5c1.1,0,2,0.9,2,2v7.5C572.3,376.2,571.4,377.1,570.3,377.1z"
		/>
	<path class="st1" d="M571,401.2H562c-0.7,0-1.2-0.6-1.2-1.2v-9.1c0-0.7,0.6-1.2,1.2-1.2h9.1c0.7,0,1.2,0.6,1.2,1.2v9.1
		C572.3,400.7,571.7,401.2,571,401.2z"/>
	<path class="st1" d="M593.5,303.5h-5.6c-0.3,0-0.5-0.2-0.5-0.5v-5.6c0-0.3,0.2-0.5,0.5-0.5h5.6c0.3,0,0.5,0.2,0.5,0.5v5.6
		C594,303.3,593.8,303.5,593.5,303.5z"/>
	<path class="st1" d="M593.4,325.5h-5.6c-0.3,0-0.6-0.2-0.6-0.6v-5.6c0-0.3,0.2-0.6,0.6-0.6h5.6c0.3,0,0.6,0.2,0.6,0.6v5.6
		C594,325.2,593.8,325.5,593.4,325.5z"/>
	<path class="st1" d="M593,348.8h-5.5c-0.3,0-0.6-0.3-0.6-0.6v-5.5c0-0.3,0.3-0.6,0.6-0.6h5.5c0.3,0,0.6,0.3,0.6,0.6v5.5
		C593.6,348.6,593.4,348.8,593,348.8z"/>
	<path class="st1" d="M593.1,371.6h-5.6c-0.3,0-0.5-0.2-0.5-0.5v-5.6c0-0.3,0.2-0.5,0.5-0.5h5.6c0.3,0,0.5,0.2,0.5,0.5v5.6
		C593.6,371.4,593.4,371.6,593.1,371.6z"/>
	<path d="M499.1,462.8h-7.5c-1.1,0-2-0.9-2-2v-7.5c0-1.1,0.9-2,2-2h7.5c1.1,0,2,0.9,2,2v7.5C501.2,461.9,500.3,462.8,499.1,462.8z"
		/>
	<path d="M499.2,479H492c-1.2,0-2.2-1-2.2-2.2v-7.2c0-1.2,1-2.2,2.2-2.2h7.2c1.2,0,2.2,1,2.2,2.2v7.2
		C501.4,478.1,500.4,479,499.2,479z"/>
	<rect x="467.1" y="391.5" width="11.6" height="11.6"/>
	<path class="st1" d="M476.9,426.6h-8c-1,0-1.8-0.8-1.8-1.8v-8c0-1,0.8-1.8,1.8-1.8h8c1,0,1.8,0.8,1.8,1.8v8
		C478.7,425.8,477.9,426.6,476.9,426.6z"/>
	<path d="M513.1,479h-7.2c-1.2,0-2.2-1-2.2-2.2v-7.2c0-1.2,1-2.2,2.2-2.2h7.2c1.2,0,2.2,1,2.2,2.2v7.2
		C515.3,478,514.3,479,513.1,479z"/>
</g>
<path class="st1" d="M476.4,150.7h-6.3c-1.4,0-2.6-1.2-2.6-2.6v-6.3c0-1.4,1.2-2.6,2.6-2.6h6.3c1.4,0,2.6,1.2,2.6,2.6v6.3
	C479,149.5,477.9,150.7,476.4,150.7z"/>
<g>
	<path class="st1" d="M185.7,601l-5.3,19h-17.3l22.5-74.1h22l23.1,74.1h-18.2l-5.7-19H185.7z M204.5,588.5l-4.6-15.7
		c-1.3-4.4-2.6-9.9-3.7-14.3h-0.2c-1.1,4.4-2.2,10-3.4,14.3l-4.4,15.7H204.5z"/>
	<path class="st1" d="M292.1,618c-3,1.4-10,3.2-18.9,3.2c-25.6,0-38.8-16.1-38.8-37.2c0-25.3,18-39.3,40.5-39.3
		c8.7,0,15.3,1.6,18.3,3.3l-3.5,13.2c-3.3-1.4-8-2.8-14.1-2.8c-13.2,0-23.5,8-23.5,24.5c0,14.8,8.8,24.2,23.7,24.2
		c5.2,0,10.7-1,14.1-2.4L292.1,618z"/>
	<path class="st1" d="M347.4,588.7h-27.3v17.6h30.5V620h-47.2v-74.1H349v13.8h-28.9V575h27.3V588.7z"/>
	<path d="M362,546.9c4.4-0.8,13.2-1.5,21.7-1.5c10.2,0,16.5,1,22,4.2c5.2,2.8,8.8,7.8,8.8,14.6c0,6.5-3.9,12.5-12.2,15.7v0.2
		c8.5,2.2,14.7,8.7,14.7,18.2c0,6.8-3.1,12.1-7.7,15.8c-5.4,4.3-14.4,6.7-29.2,6.7c-8.2,0-14.4-0.5-18.2-1.1V546.9z M378.6,575.3
		h5.5c8.9,0,13.5-3.6,13.5-9.1c0-5.6-4.3-8.6-11.9-8.6c-3.7,0-5.8,0.2-7.2,0.4V575.3z M378.6,608.1c1.7,0.2,3.6,0.2,6.5,0.2
		c7.6,0,14.3-3,14.3-10.8c0-7.4-6.7-10.3-15.1-10.3h-5.7V608.1z"/>
	<path d="M445.1,545.9v42.6c0,12.9,4.9,19.4,13.4,19.4c8.8,0,13.6-6.2,13.6-19.4v-42.6h16.7v41.6c0,22.9-11.6,33.8-30.9,33.8
		c-18.7,0-29.6-10.5-29.6-34v-41.4H445.1z"/>
	<path d="M504,602.8c4.4,2.3,11.4,4.6,18.6,4.6c7.7,0,11.8-3.2,11.8-8c0-4.6-3.5-7.3-12.4-10.3c-12.3-4.4-20.5-11.2-20.5-22
		c0-12.6,10.7-22.2,28-22.2c8.5,0,14.5,1.6,18.9,3.7l-3.7,13.4c-2.9-1.4-8.3-3.5-15.4-3.5c-7.3,0-10.8,3.4-10.8,7.2
		c0,4.7,4.1,6.8,13.8,10.5c13.1,4.8,19.1,11.7,19.1,22.1c0,12.4-9.5,23-29.8,23c-8.5,0-16.8-2.3-21-4.6L504,602.8z"/>
	<path d="M577.3,560h-20v-14.1h57V560H594V620h-16.7V560z"/>
	<path d="M667.2,588.7H640v17.6h30.5V620h-47.2v-74.1h45.7v13.8H640V575h27.3V588.7z"/>
	<path d="M681.9,546.9c5.4-0.9,13.3-1.5,22.3-1.5c11,0,18.7,1.7,24,5.8c4.5,3.5,6.9,8.8,6.9,15.6c0,9.3-6.7,15.8-13.1,18.2v0.3
		c5.2,2.1,8,6.9,9.9,13.8c2.3,8.5,4.5,18.1,5.9,21h-17.2c-1.1-2.2-3-8.1-5.1-17.3c-2.1-9.3-5.3-11.8-12.2-11.9h-5V620h-16.6V546.9z
		 M698.5,578.8h6.6c8.4,0,13.3-4.2,13.3-10.7c0-6.7-4.6-10.2-12.3-10.2c-4.1,0-6.4,0.2-7.6,0.5V578.8z"/>
	<path d="M747.6,602.8c4.4,2.3,11.4,4.6,18.6,4.6c7.7,0,11.8-3.2,11.8-8c0-4.6-3.5-7.3-12.4-10.3c-12.3-4.4-20.5-11.2-20.5-22
		c0-12.6,10.7-22.2,28-22.2c8.5,0,14.5,1.6,18.9,3.7l-3.7,13.4c-2.9-1.4-8.3-3.5-15.4-3.5c-7.3,0-10.8,3.4-10.8,7.2
		c0,4.7,4.1,6.8,13.8,10.5c13.1,4.8,19.1,11.7,19.1,22.1c0,12.4-9.5,23-29.8,23c-8.5,0-16.8-2.3-21-4.6L747.6,602.8z"/>
</g>
</svg>
