<svg xmlns="http://www.w3.org/2000/svg" viewBox="5067.03 31 382.28 54.098">
  <defs>
    <style>
      .cls-1 {
        fill: #fff;
      }

      .cls-2 {
        fill: #eff800;
        stroke: rgba(0,0,0,0);
      }
    </style>
  </defs>
  <g id="Group_649" data-name="Group 649" transform="translate(5001 -52)">
    <g id="Group_47" data-name="Group 47" transform="translate(132.151 83)">
      <path id="Path_1" data-name="Path 1" class="cls-1" d="M12.016,14.084,6.526,24.909H0L12.016.1,24.032,24.909h-6.37Z" transform="translate(0 -0.048)"/>
      <path id="Path_2" data-name="Path 2" class="cls-1" d="M61.1,6.215a6.442,6.442,0,0,0-6.215,6.215A6.442,6.442,0,0,0,61.1,18.645V24.86A12.243,12.243,0,0,1,49.6,12.43,12.461,12.461,0,0,1,61.1,0Z" transform="translate(-23.911)"/>
      <rect id="Rectangle_1" data-name="Rectangle 1" class="cls-1" width="12.119" height="6.215" transform="translate(37.601)"/>
      <rect id="Rectangle_2" data-name="Rectangle 2" class="cls-1" width="12.119" height="6.215" transform="translate(37.601 18.645)"/>
      <path id="Path_3" data-name="Path 3" class="cls-1" d="M109.186,6.215v4.972a12.214,12.214,0,0,0-5.386,7.769V0h24.032V6.215Z" transform="translate(-50.039)"/>
      <path id="Path_4" data-name="Path 4" class="cls-1" d="M115.816,24.212a7.3,7.3,0,0,0-6.008,3.159h18.024v6.215H103.8V30.427c0-6.629,5.594-12.327,12.016-12.327h11.6v6.112h-11.6Z" transform="translate(-50.039 -8.726)"/>
      <path id="Path_5" data-name="Path 5" class="cls-1" d="M183.832,7.614A7.381,7.381,0,0,0,176.633,0H159.8V15.227h16.522a1.6,1.6,0,0,1,1.709,1.709,1.6,1.6,0,0,1-1.709,1.709H165.186V15.693H159.8V24.86h16.833a7.381,7.381,0,0,0,7.2-7.614,7.881,7.881,0,0,0-1.554-4.817A7.881,7.881,0,0,0,183.832,7.614Zm-7.458,2.02H165.238V6.215h11.135a1.6,1.6,0,0,1,1.709,1.709A1.6,1.6,0,0,1,176.374,9.633Z" transform="translate(-77.036)"/>
      <path id="Path_6" data-name="Path 6" class="cls-1" d="M239.832,12.482c0,6.319-4.972,12.378-12.016,12.378-6.629,0-12.016-5.9-12.016-12.378V0h5.386V12.482a6.643,6.643,0,0,0,13.259,0V0h5.386Z" transform="translate(-104.032)"/>
      <path id="Path_7" data-name="Path 7" class="cls-1" d="M276.947,6.215a1.64,1.64,0,0,0-1.761,1.709,1.694,1.694,0,0,0,1.761,1.709h9.789a7.145,7.145,0,0,1,7.147,7.355c0,4.351-3.211,7.924-7.147,7.924H270.68V18.645h16.056a1.615,1.615,0,0,0,1.761-1.709,1.728,1.728,0,0,0-1.761-1.709h-9.789A7.221,7.221,0,0,1,269.8,7.872C269.8,3.625,273.011,0,276.947,0h15.641V6.215Z" transform="translate(-130.064)"/>
      <path id="Path_8" data-name="Path 8" class="cls-1" d="M322.6,6.215V.052h8.908V6.215Zm9.323,18.645V0h5.386V24.86Zm5.8-18.645V.052h8.908V6.215Z" transform="translate(-155.517)"/>
      <path id="Path_9" data-name="Path 9" class="cls-1" d="M382.386,6.215v4.972A12.214,12.214,0,0,0,377,18.956V0h24.032V6.215Zm6.629,9.271a7.3,7.3,0,0,0-6.008,3.159h18.024V24.86H377V21.7c0-6.629,5.594-12.327,12.016-12.327h11.6v6.112h-11.6Z" transform="translate(-181.742)"/>
      <rect id="Rectangle_3" data-name="Rectangle 3" class="cls-1" width="5.386" height="9.219" transform="translate(224.262 15.641)"/>
      <path id="Path_10" data-name="Path 10" class="cls-1" d="M457.032,7.614A7.382,7.382,0,0,0,449.833,0H433V15.227h12.119a6.415,6.415,0,0,1,6.526,6.267V24.86h5.386V21.494a12.524,12.524,0,0,0-2.8-7.821A7.776,7.776,0,0,0,457.032,7.614Zm-7.458,2.02H438.438V6.215h11.135a1.626,1.626,0,0,1,1.709,1.709A1.626,1.626,0,0,1,449.574,9.633Z" transform="translate(-208.738)"/>
      <path id="Path_11" data-name="Path 11" class="cls-1" d="M496.147,6.215a1.64,1.64,0,0,0-1.761,1.709,1.694,1.694,0,0,0,1.761,1.709h9.789a7.145,7.145,0,0,1,7.147,7.355c0,4.351-3.211,7.924-7.147,7.924H489.88V18.645h16.056a1.615,1.615,0,0,0,1.761-1.709,1.728,1.728,0,0,0-1.761-1.709h-9.789A7.221,7.221,0,0,1,489,7.872C489,3.625,492.211,0,496.147,0h15.641V6.215Z" transform="translate(-235.734)"/>
    </g>
    <g id="Group_48" data-name="Group 48" transform="translate(66.03 84.771)">
      <path id="Path_57" data-name="Path 57" class="cls-1" d="M67,185.617H78.607L72.8,175.9Z" transform="translate(-52.102 -136.788)"/>
      <path id="Path_58" data-name="Path 58" class="cls-1" d="M20.657,0,0,33.087l12.007,9.161,8.805-5.937,8.672,6.159,11.985-9.606Zm.022,6.27,5.337,8.405H15.409ZM29.373,38.29l-8.516-6.026-8.739,5.892L4.447,32.264l9.183-14.72H27.839l9.25,14.587Z"/>
    </g>
    <path id="Path_846" data-name="Path 846" class="cls-2" d="M2.112,12.782H.528V11.418l1.672-.11.22-2.992H3.938v2.992H6.82v1.474H3.938v5.94A2.724,2.724,0,0,0,4.3,20.251a1.438,1.438,0,0,0,1.287.539A2.4,2.4,0,0,0,6.2,20.7a4.692,4.692,0,0,0,.594-.2l.352,1.364a9.353,9.353,0,0,1-.957.275,4.478,4.478,0,0,1-1.023.121A3.489,3.489,0,0,1,3.729,22a2.478,2.478,0,0,1-.946-.726,2.829,2.829,0,0,1-.517-1.122A6.392,6.392,0,0,1,2.112,18.7ZM9.24,6.336h1.8V10.6l-.066,2.2a10.048,10.048,0,0,1,1.606-1.243,3.647,3.647,0,0,1,1.958-.517A2.874,2.874,0,0,1,17.017,12.1a5.219,5.219,0,0,1,.781,3.124V22h-1.8V15.466a3.821,3.821,0,0,0-.484-2.189,1.769,1.769,0,0,0-1.54-.671,2.628,2.628,0,0,0-1.474.418,9.562,9.562,0,0,0-1.452,1.232V22H9.24Zm11.176,10.34a6.476,6.476,0,0,1,.407-2.365A5.535,5.535,0,0,1,21.9,12.54a4.677,4.677,0,0,1,1.529-1.111,4.307,4.307,0,0,1,1.782-.385,4.477,4.477,0,0,1,1.815.352,3.539,3.539,0,0,1,1.342,1.012,4.643,4.643,0,0,1,.825,1.584,6.979,6.979,0,0,1,.286,2.068,6.18,6.18,0,0,1-.066.99H22.2a4.251,4.251,0,0,0,1.067,2.75,3.279,3.279,0,0,0,2.5,1.012,4.2,4.2,0,0,0,1.419-.231,6.279,6.279,0,0,0,1.243-.6l.638,1.188a9.108,9.108,0,0,1-1.562.77,5.426,5.426,0,0,1-1.958.33,5.235,5.235,0,0,1-2.013-.385,4.771,4.771,0,0,1-1.628-1.1,5.094,5.094,0,0,1-1.089-1.749A6.547,6.547,0,0,1,20.416,16.676Zm7.48-.814a3.965,3.965,0,0,0-.693-2.519,2.349,2.349,0,0,0-1.947-.869,2.64,2.64,0,0,0-1.089.231,3.019,3.019,0,0,0-.935.66,3.52,3.52,0,0,0-.693,1.056,4.882,4.882,0,0,0-.363,1.441Zm7.876.814a6.387,6.387,0,0,1,.418-2.387,5.378,5.378,0,0,1,1.122-1.771,4.68,4.68,0,0,1,1.639-1.1,5.252,5.252,0,0,1,1.969-.374,3.97,3.97,0,0,1,1.815.385,5.782,5.782,0,0,1,1.309.891l-.9,1.166a5.045,5.045,0,0,0-1-.682,2.5,2.5,0,0,0-1.155-.264,3.049,3.049,0,0,0-1.342.3,3.018,3.018,0,0,0-1.056.847,4.2,4.2,0,0,0-.693,1.309,5.3,5.3,0,0,0-.253,1.683,5.415,5.415,0,0,0,.242,1.672,4.042,4.042,0,0,0,.671,1.287,2.967,2.967,0,0,0,1.045.836,3.2,3.2,0,0,0,2.739-.022,5.034,5.034,0,0,0,1.111-.759l.814,1.188a5.883,5.883,0,0,1-1.617,1.012,4.756,4.756,0,0,1-1.859.374,5.227,5.227,0,0,1-1.98-.374,4.449,4.449,0,0,1-1.6-1.089,5.122,5.122,0,0,1-1.056-1.76A6.808,6.808,0,0,1,35.772,16.676ZM46.6,11.308h1.5l.154,1.936h.066a4.94,4.94,0,0,1,1.331-1.606,2.756,2.756,0,0,1,1.7-.594,2.842,2.842,0,0,1,1.144.22l-.352,1.584a4.068,4.068,0,0,0-.484-.132,2.872,2.872,0,0,0-.55-.044,2.4,2.4,0,0,0-1.419.55A4.376,4.376,0,0,0,48.4,15.136V22H46.6Zm7.326,13.64.4.1a1.725,1.725,0,0,0,.418.055,1.932,1.932,0,0,0,1.507-.649,4.587,4.587,0,0,0,.913-1.639l.242-.792-4.29-10.714h1.87l2.178,5.918q.242.7.517,1.485t.517,1.529h.088q.242-.726.462-1.518t.44-1.5l1.914-5.918h1.76L58.828,22.88a12.378,12.378,0,0,1-.638,1.474,4.851,4.851,0,0,1-.836,1.177,3.717,3.717,0,0,1-1.1.781,3.363,3.363,0,0,1-1.43.286,3.893,3.893,0,0,1-.682-.055,2.731,2.731,0,0,1-.572-.165Zm12.8-2.046V26.51h-1.8v-15.2h1.5l.154,1.232h.066a8.134,8.134,0,0,1,1.6-1.056,3.968,3.968,0,0,1,1.815-.44,4.128,4.128,0,0,1,1.826.385,3.547,3.547,0,0,1,1.32,1.1,5.158,5.158,0,0,1,.8,1.716,8.518,8.518,0,0,1,.275,2.255,7.327,7.327,0,0,1-.374,2.431,5.636,5.636,0,0,1-1.012,1.815,4.281,4.281,0,0,1-1.474,1.133,4.159,4.159,0,0,1-1.76.385,3.6,3.6,0,0,1-1.485-.33,7.519,7.519,0,0,1-1.485-.9Zm0-3.278a4.8,4.8,0,0,0,1.408.869,3.539,3.539,0,0,0,1.21.253,2.569,2.569,0,0,0,1.221-.3,2.917,2.917,0,0,0,.968-.836,4.086,4.086,0,0,0,.638-1.331A6.361,6.361,0,0,0,72.4,16.5a7.754,7.754,0,0,0-.154-1.606,3.589,3.589,0,0,0-.5-1.243,2.371,2.371,0,0,0-.88-.8,2.711,2.711,0,0,0-1.287-.286,2.877,2.877,0,0,0-1.375.374,8.041,8.041,0,0,0-1.485,1.078ZM77.44,12.782H75.856V11.418l1.672-.11.22-2.992h1.518v2.992h2.882v1.474H79.266v5.94a2.724,2.724,0,0,0,.363,1.529,1.438,1.438,0,0,0,1.287.539,2.4,2.4,0,0,0,.616-.088,4.692,4.692,0,0,0,.594-.2l.352,1.364a9.354,9.354,0,0,1-.957.275,4.478,4.478,0,0,1-1.023.121A3.489,3.489,0,0,1,79.057,22a2.478,2.478,0,0,1-.946-.726,2.829,2.829,0,0,1-.517-1.122A6.392,6.392,0,0,1,77.44,18.7Zm6.116,3.894a6.541,6.541,0,0,1,.407-2.387,5.43,5.43,0,0,1,1.089-1.771,4.563,4.563,0,0,1,1.573-1.1,4.917,4.917,0,0,1,3.762,0,4.563,4.563,0,0,1,1.573,1.1,5.43,5.43,0,0,1,1.089,1.771,6.541,6.541,0,0,1,.407,2.387,6.476,6.476,0,0,1-.407,2.365A5.3,5.3,0,0,1,91.96,20.8a4.633,4.633,0,0,1-1.573,1.089,4.917,4.917,0,0,1-3.762,0A4.633,4.633,0,0,1,85.052,20.8a5.3,5.3,0,0,1-1.089-1.76A6.476,6.476,0,0,1,83.556,16.676Zm1.87,0a5.918,5.918,0,0,0,.22,1.672,3.974,3.974,0,0,0,.627,1.287,2.882,2.882,0,0,0,.979.836,2.8,2.8,0,0,0,2.508,0,2.882,2.882,0,0,0,.979-.836,3.974,3.974,0,0,0,.627-1.287,5.918,5.918,0,0,0,.22-1.672,6.034,6.034,0,0,0-.22-1.683,4.1,4.1,0,0,0-.627-1.309,2.836,2.836,0,0,0-.979-.847,2.8,2.8,0,0,0-2.508,0,2.837,2.837,0,0,0-.979.847,4.1,4.1,0,0,0-.627,1.309A6.034,6.034,0,0,0,85.426,16.676Zm10.054,0a6.387,6.387,0,0,1,.418-2.387,5.377,5.377,0,0,1,1.122-1.771,4.68,4.68,0,0,1,1.639-1.1,5.252,5.252,0,0,1,1.969-.374,3.97,3.97,0,0,1,1.815.385,5.781,5.781,0,0,1,1.309.891l-.9,1.166a5.045,5.045,0,0,0-1-.682,2.5,2.5,0,0,0-1.155-.264,3.049,3.049,0,0,0-1.342.3,3.018,3.018,0,0,0-1.056.847,4.2,4.2,0,0,0-.693,1.309,5.3,5.3,0,0,0-.253,1.683,5.415,5.415,0,0,0,.242,1.672,4.042,4.042,0,0,0,.671,1.287,2.967,2.967,0,0,0,1.045.836,3.2,3.2,0,0,0,2.739-.022,5.034,5.034,0,0,0,1.111-.759l.814,1.188a5.883,5.883,0,0,1-1.617,1.012,4.756,4.756,0,0,1-1.859.374,5.227,5.227,0,0,1-1.98-.374A4.449,4.449,0,0,1,96.921,20.8a5.122,5.122,0,0,1-1.056-1.76A6.808,6.808,0,0,1,95.48,16.676Zm10.67-5.368h1.826v6.534a3.892,3.892,0,0,0,.473,2.189,1.74,1.74,0,0,0,1.529.671,2.579,2.579,0,0,0,1.474-.429A6.917,6.917,0,0,0,112.86,18.9v-7.59h1.8V22h-1.5l-.154-1.672h-.066a7.132,7.132,0,0,1-1.573,1.408,3.533,3.533,0,0,1-1.947.528,2.9,2.9,0,0,1-2.5-1.056,5.219,5.219,0,0,1-.781-3.124Zm12.122,0h1.5l.154,1.936h.066a4.94,4.94,0,0,1,1.331-1.606,2.756,2.756,0,0,1,1.705-.594,2.842,2.842,0,0,1,1.144.22l-.352,1.584a4.068,4.068,0,0,0-.484-.132,2.872,2.872,0,0,0-.55-.044,2.4,2.4,0,0,0-1.419.55,4.376,4.376,0,0,0-1.287,1.914V22h-1.8Zm7.634,0h1.5l.154,1.936h.066a4.94,4.94,0,0,1,1.331-1.606,2.756,2.756,0,0,1,1.705-.594,2.842,2.842,0,0,1,1.144.22l-.352,1.584a4.068,4.068,0,0,0-.484-.132,2.872,2.872,0,0,0-.55-.044,2.4,2.4,0,0,0-1.419.55,4.376,4.376,0,0,0-1.287,1.914V22h-1.8Zm6.622,5.368a6.475,6.475,0,0,1,.407-2.365,5.535,5.535,0,0,1,1.078-1.771,4.677,4.677,0,0,1,1.529-1.111,4.307,4.307,0,0,1,1.782-.385,4.477,4.477,0,0,1,1.815.352,3.539,3.539,0,0,1,1.342,1.012,4.643,4.643,0,0,1,.825,1.584,6.979,6.979,0,0,1,.286,2.068,6.179,6.179,0,0,1-.066.99H134.31a4.251,4.251,0,0,0,1.067,2.75,3.279,3.279,0,0,0,2.5,1.012,4.2,4.2,0,0,0,1.419-.231,6.279,6.279,0,0,0,1.243-.6l.638,1.188a9.109,9.109,0,0,1-1.562.77,5.426,5.426,0,0,1-1.958.33,5.235,5.235,0,0,1-2.013-.385,4.771,4.771,0,0,1-1.628-1.1,5.094,5.094,0,0,1-1.089-1.749A6.547,6.547,0,0,1,132.528,16.676Zm7.48-.814a3.965,3.965,0,0,0-.693-2.519,2.349,2.349,0,0,0-1.947-.869,2.64,2.64,0,0,0-1.089.231,3.019,3.019,0,0,0-.935.66,3.52,3.52,0,0,0-.693,1.056,4.882,4.882,0,0,0-.363,1.441Zm4.224-4.554h1.5l.154,1.54h.066a8.71,8.71,0,0,1,1.617-1.287,3.7,3.7,0,0,1,1.969-.517,2.874,2.874,0,0,1,2.475,1.056,5.219,5.219,0,0,1,.781,3.124V22h-1.8V15.466a3.821,3.821,0,0,0-.484-2.189,1.769,1.769,0,0,0-1.54-.671,2.629,2.629,0,0,0-1.474.418,9.562,9.562,0,0,0-1.452,1.232V22h-1.8Zm11.242,5.368a6.387,6.387,0,0,1,.418-2.387,5.378,5.378,0,0,1,1.122-1.771,4.68,4.68,0,0,1,1.639-1.1,5.253,5.253,0,0,1,1.969-.374,3.97,3.97,0,0,1,1.815.385,5.782,5.782,0,0,1,1.309.891l-.9,1.166a5.045,5.045,0,0,0-1-.682,2.5,2.5,0,0,0-1.155-.264,3.049,3.049,0,0,0-1.342.3,3.018,3.018,0,0,0-1.056.847,4.2,4.2,0,0,0-.693,1.309,5.3,5.3,0,0,0-.253,1.683,5.415,5.415,0,0,0,.242,1.672,4.042,4.042,0,0,0,.671,1.287,2.967,2.967,0,0,0,1.045.836,3.2,3.2,0,0,0,2.739-.022,5.034,5.034,0,0,0,1.111-.759l.814,1.188a5.883,5.883,0,0,1-1.617,1.012,4.756,4.756,0,0,1-1.859.374,5.227,5.227,0,0,1-1.98-.374,4.448,4.448,0,0,1-1.6-1.089,5.122,5.122,0,0,1-1.056-1.76A6.808,6.808,0,0,1,155.474,16.676Zm10.23,8.272.4.1a1.725,1.725,0,0,0,.418.055,1.932,1.932,0,0,0,1.507-.649,4.587,4.587,0,0,0,.913-1.639l.242-.792-4.29-10.714h1.87l2.178,5.918q.242.7.517,1.485t.517,1.529h.088q.242-.726.462-1.518t.44-1.5l1.914-5.918h1.76L170.61,22.88a12.376,12.376,0,0,1-.638,1.474,4.85,4.85,0,0,1-.836,1.177,3.717,3.717,0,0,1-1.1.781,3.363,3.363,0,0,1-1.43.286,3.893,3.893,0,0,1-.682-.055,2.732,2.732,0,0,1-.572-.165ZM182.952,22.9V26.51h-1.8v-15.2h1.5l.154,1.232h.066a8.134,8.134,0,0,1,1.6-1.056,3.968,3.968,0,0,1,1.815-.44,4.128,4.128,0,0,1,1.826.385,3.547,3.547,0,0,1,1.32,1.1,5.158,5.158,0,0,1,.8,1.716A8.517,8.517,0,0,1,190.5,16.5a7.327,7.327,0,0,1-.374,2.431,5.636,5.636,0,0,1-1.012,1.815,4.281,4.281,0,0,1-1.474,1.133,4.159,4.159,0,0,1-1.76.385,3.6,3.6,0,0,1-1.485-.33,7.519,7.519,0,0,1-1.485-.9Zm0-3.278a4.8,4.8,0,0,0,1.408.869,3.539,3.539,0,0,0,1.21.253,2.569,2.569,0,0,0,1.221-.3,2.917,2.917,0,0,0,.968-.836,4.086,4.086,0,0,0,.638-1.331,6.361,6.361,0,0,0,.231-1.782,7.754,7.754,0,0,0-.154-1.606,3.589,3.589,0,0,0-.5-1.243,2.371,2.371,0,0,0-.88-.8,2.711,2.711,0,0,0-1.287-.286,2.877,2.877,0,0,0-1.375.374,8.041,8.041,0,0,0-1.485,1.078Zm9.614-2.948a6.541,6.541,0,0,1,.407-2.387,5.43,5.43,0,0,1,1.089-1.771,4.563,4.563,0,0,1,1.573-1.1,4.917,4.917,0,0,1,3.762,0,4.563,4.563,0,0,1,1.573,1.1,5.43,5.43,0,0,1,1.089,1.771,6.541,6.541,0,0,1,.407,2.387,6.476,6.476,0,0,1-.407,2.365,5.3,5.3,0,0,1-1.089,1.76A4.633,4.633,0,0,1,199.4,21.89a4.917,4.917,0,0,1-3.762,0,4.633,4.633,0,0,1-1.573-1.089,5.3,5.3,0,0,1-1.089-1.76A6.475,6.475,0,0,1,192.566,16.676Zm1.87,0a5.918,5.918,0,0,0,.22,1.672,3.974,3.974,0,0,0,.627,1.287,2.882,2.882,0,0,0,.979.836,2.8,2.8,0,0,0,2.508,0,2.882,2.882,0,0,0,.979-.836,3.974,3.974,0,0,0,.627-1.287,5.918,5.918,0,0,0,.22-1.672,6.034,6.034,0,0,0-.22-1.683,4.094,4.094,0,0,0-.627-1.309,2.836,2.836,0,0,0-.979-.847,2.8,2.8,0,0,0-2.508,0,2.836,2.836,0,0,0-.979.847,4.1,4.1,0,0,0-.627,1.309A6.034,6.034,0,0,0,194.436,16.676Zm10.846-10.34h1.782v10.6h.066l4.554-5.632h2L210.1,15.6l4.07,6.4h-1.98l-3.124-5.148-2,2.332V22h-1.782Zm9.7,10.34a6.475,6.475,0,0,1,.407-2.365,5.535,5.535,0,0,1,1.078-1.771A4.677,4.677,0,0,1,218,11.429a4.307,4.307,0,0,1,1.782-.385,4.477,4.477,0,0,1,1.815.352,3.539,3.539,0,0,1,1.342,1.012,4.643,4.643,0,0,1,.825,1.584,6.979,6.979,0,0,1,.286,2.068,6.179,6.179,0,0,1-.066.99h-7.216a4.251,4.251,0,0,0,1.067,2.75,3.279,3.279,0,0,0,2.5,1.012,4.2,4.2,0,0,0,1.419-.231,6.279,6.279,0,0,0,1.243-.6l.638,1.188a9.109,9.109,0,0,1-1.562.77,5.426,5.426,0,0,1-1.958.33,5.235,5.235,0,0,1-2.013-.385,4.771,4.771,0,0,1-1.628-1.1,5.094,5.094,0,0,1-1.089-1.749A6.547,6.547,0,0,1,214.984,16.676Zm7.48-.814a3.965,3.965,0,0,0-.693-2.519,2.349,2.349,0,0,0-1.947-.869,2.64,2.64,0,0,0-1.089.231,3.019,3.019,0,0,0-.935.66,3.52,3.52,0,0,0-.693,1.056,4.882,4.882,0,0,0-.363,1.441Zm4.224-4.554h1.5l.154,1.936h.066a4.94,4.94,0,0,1,1.331-1.606,2.756,2.756,0,0,1,1.705-.594,2.842,2.842,0,0,1,1.144.22l-.352,1.584a4.068,4.068,0,0,0-.484-.132,2.872,2.872,0,0,0-.55-.044,2.4,2.4,0,0,0-1.419.55,4.376,4.376,0,0,0-1.287,1.914V22h-1.8ZM240.57,22.9V26.51h-1.8v-15.2h1.5l.154,1.232h.066a8.134,8.134,0,0,1,1.6-1.056,3.968,3.968,0,0,1,1.815-.44,4.128,4.128,0,0,1,1.826.385,3.547,3.547,0,0,1,1.32,1.1,5.158,5.158,0,0,1,.8,1.716,8.517,8.517,0,0,1,.275,2.255,7.327,7.327,0,0,1-.374,2.431,5.636,5.636,0,0,1-1.012,1.815,4.281,4.281,0,0,1-1.474,1.133,4.159,4.159,0,0,1-1.76.385,3.6,3.6,0,0,1-1.485-.33,7.519,7.519,0,0,1-1.485-.9Zm0-3.278a4.8,4.8,0,0,0,1.408.869,3.539,3.539,0,0,0,1.21.253,2.569,2.569,0,0,0,1.221-.3,2.917,2.917,0,0,0,.968-.836,4.086,4.086,0,0,0,.638-1.331,6.361,6.361,0,0,0,.231-1.782,7.754,7.754,0,0,0-.154-1.606,3.589,3.589,0,0,0-.5-1.243,2.371,2.371,0,0,0-.88-.8,2.711,2.711,0,0,0-1.287-.286,2.877,2.877,0,0,0-1.375.374,8.041,8.041,0,0,0-1.485,1.078ZM250.976,6.336h1.8v13.64a.945.945,0,0,0,.154.616.458.458,0,0,0,.352.176h.165a.933.933,0,0,0,.231-.044l.242,1.364a1.556,1.556,0,0,1-.418.132,3.546,3.546,0,0,1-.616.044,1.687,1.687,0,0,1-1.474-.616,3.089,3.089,0,0,1-.44-1.8Zm5.082,12.892a2.965,2.965,0,0,1,1.573-2.695,13,13,0,0,1,5-1.309,4.927,4.927,0,0,0-.1-.99,2.356,2.356,0,0,0-.352-.858,1.91,1.91,0,0,0-.671-.605,2.216,2.216,0,0,0-1.078-.231,4.308,4.308,0,0,0-1.749.352,8.644,8.644,0,0,0-1.441.792l-.726-1.254a11.675,11.675,0,0,1,1.826-.935,6.1,6.1,0,0,1,2.376-.451,3.285,3.285,0,0,1,2.838,1.2,5.292,5.292,0,0,1,.88,3.2V22h-1.5l-.154-1.276h-.044a8.884,8.884,0,0,1-1.661,1.089,4.11,4.11,0,0,1-1.881.451,3.268,3.268,0,0,1-2.255-.792A2.845,2.845,0,0,1,256.058,19.228Zm1.782-.132a1.529,1.529,0,0,0,.539,1.32,2.187,2.187,0,0,0,1.331.4,3.11,3.11,0,0,0,1.463-.363,7.115,7.115,0,0,0,1.463-1.067v-2.97a18.741,18.741,0,0,0-2.266.418,5.927,5.927,0,0,0-1.485.572,2.123,2.123,0,0,0-.8.759A1.871,1.871,0,0,0,257.84,19.1Zm10.318-6.314h-1.584V11.418l1.672-.11.22-2.992h1.518v2.992h2.882v1.474h-2.882v5.94a2.724,2.724,0,0,0,.363,1.529,1.438,1.438,0,0,0,1.287.539,2.4,2.4,0,0,0,.616-.088,4.691,4.691,0,0,0,.594-.2l.352,1.364a9.354,9.354,0,0,1-.957.275,4.478,4.478,0,0,1-1.023.121A3.489,3.489,0,0,1,269.775,22a2.478,2.478,0,0,1-.946-.726,2.829,2.829,0,0,1-.517-1.122,6.392,6.392,0,0,1-.154-1.452ZM280.1,7.81a2.952,2.952,0,0,0-1.21-.264q-1.5,0-1.5,2.068v1.694h2.266v1.474H277.4V22h-1.8V12.782h-1.452V11.418l1.452-.11V9.614a4.038,4.038,0,0,1,.759-2.6,2.851,2.851,0,0,1,2.365-.946,4.455,4.455,0,0,1,.957.1,4.957,4.957,0,0,1,.825.253Zm.594,8.866a6.541,6.541,0,0,1,.407-2.387,5.43,5.43,0,0,1,1.089-1.771,4.563,4.563,0,0,1,1.573-1.1,4.917,4.917,0,0,1,3.762,0,4.563,4.563,0,0,1,1.573,1.1,5.43,5.43,0,0,1,1.089,1.771,6.541,6.541,0,0,1,.407,2.387,6.476,6.476,0,0,1-.407,2.365A5.3,5.3,0,0,1,289.1,20.8a4.632,4.632,0,0,1-1.573,1.089,4.917,4.917,0,0,1-3.762,0,4.633,4.633,0,0,1-1.573-1.089,5.3,5.3,0,0,1-1.089-1.76A6.476,6.476,0,0,1,280.7,16.676Zm1.87,0a5.918,5.918,0,0,0,.22,1.672,3.974,3.974,0,0,0,.627,1.287,2.882,2.882,0,0,0,.979.836,2.8,2.8,0,0,0,2.508,0,2.882,2.882,0,0,0,.979-.836,3.974,3.974,0,0,0,.627-1.287,5.918,5.918,0,0,0,.22-1.672,6.034,6.034,0,0,0-.22-1.683,4.1,4.1,0,0,0-.627-1.309,2.837,2.837,0,0,0-.979-.847,2.8,2.8,0,0,0-2.508,0,2.836,2.836,0,0,0-.979.847,4.1,4.1,0,0,0-.627,1.309A6.034,6.034,0,0,0,282.568,16.676Zm10.846-5.368h1.5l.154,1.936h.066a4.94,4.94,0,0,1,1.331-1.606,2.756,2.756,0,0,1,1.7-.594,2.842,2.842,0,0,1,1.144.22l-.352,1.584a4.068,4.068,0,0,0-.484-.132,2.872,2.872,0,0,0-.55-.044,2.4,2.4,0,0,0-1.419.55,4.376,4.376,0,0,0-1.287,1.914V22h-1.8Zm7.634,0h1.5l.154,1.54h.066a7.388,7.388,0,0,1,1.529-1.287,3.313,3.313,0,0,1,1.793-.517,3.066,3.066,0,0,1,1.925.539,3.127,3.127,0,0,1,1.023,1.507,9.024,9.024,0,0,1,1.683-1.485,3.262,3.262,0,0,1,1.837-.561,2.885,2.885,0,0,1,2.453,1.056,5.111,5.111,0,0,1,.8,3.124V22h-1.8V15.466a3.821,3.821,0,0,0-.484-2.189,1.721,1.721,0,0,0-1.5-.671,3.967,3.967,0,0,0-2.684,1.65V22h-1.8V15.466a3.821,3.821,0,0,0-.484-2.189,1.745,1.745,0,0,0-1.518-.671,3.967,3.967,0,0,0-2.684,1.65V22h-1.8Z" transform="translate(132 110)"/>
  </g>
</svg>
