<svg xmlns="http://www.w3.org/2000/svg" viewBox="6253 5074 120 120">
  <defs>
    <style>
      .cls-1 {
        fill: #e31041;
        opacity: 0;
      }

      .cls-2 {
        fill: #fff;
      }
    </style>
  </defs>
  <g id="security" transform="translate(5001 -52)">
    <rect id="Rectangle_63" data-name="Rectangle 63" class="cls-1" width="120" height="120" rx="6" transform="translate(1252 5126)"/>
    <path id="Path_84" data-name="Path 84" class="cls-2" d="M25.326,63.315a1.21,1.21,0,0,1-.787-.284L.472,43.879A1.222,1.222,0,0,1,0,42.9V8.1A1.315,1.315,0,0,1,.5,7.087C.882,6.8,9.954,0,25.326,0S49.77,6.8,50.148,7.087a1.268,1.268,0,0,1,.5,1.008V40.7a1.366,1.366,0,0,1-.41.945L26.176,63A1.3,1.3,0,0,1,25.326,63.315ZM2.52,42.3,25.294,60.417,48.132,40.131V8.757C46.084,7.4,37.863,2.52,25.326,2.52,12.757,2.52,4.567,7.4,2.52,8.757Z" transform="translate(1286.074 5154)"/>
    <path id="Path_85" data-name="Path 85" class="cls-2" d="M10.759,60.738a1.21,1.21,0,0,1-.787-.283L.868,53.21a1.284,1.284,0,0,1-.22-1.764,1.256,1.256,0,0,1,1.764-.252l2.9,2.173,38.9-39.5a1.244,1.244,0,0,1,1.512-.22l4.536,2.52a1.236,1.236,0,0,1,.661,1.1v14.49a1.27,1.27,0,0,1-.535,1.04l-38.9,27.72A1.163,1.163,0,0,1,10.759,60.738Zm-3.528-5.7L10.822,57.9,48.4,31.1V18.024l-3.055-1.7Z" transform="translate(1285.804 5144.764)"/>
  </g>
</svg>
