<svg xmlns="http://www.w3.org/2000/svg" viewBox="10764 5572 120 120">
  <defs>
    <style>
      .cls-1 {
        fill: #e31041;
      }

      .cls-2 {
        fill: #fff;
      }
    </style>
  </defs>
  <g id="staking" transform="translate(9169 -52)">
    <rect id="Rectangle_63" data-name="Rectangle 63" class="cls-1" width="120" height="120" rx="6" transform="translate(1595 5624)"/>
    <path id="Path_786" data-name="Path 786" class="cls-2" d="M72.538,0H72.5V.382h.038a27.767,27.767,0,1,1,0,55.534H72.5V56.3h.038a28.15,28.15,0,0,0,0-56.3Z" transform="translate(1582.512 5654.45)"/>
    <path id="Path_787" data-name="Path 787" class="cls-2" d="M95.678,36.239A23.17,23.17,0,0,0,72.538,13.1H72.5v.382h.038a22.757,22.757,0,0,1,0,45.514H72.5v.382h.038A23.146,23.146,0,0,0,95.678,36.239Z" transform="translate(1582.512 5646.36)"/>
    <path id="Path_788" data-name="Path 788" class="cls-2" d="M73.647,5.186A1.184,1.184,0,0,0,72.5,4V6.41A1.273,1.273,0,0,0,73.647,5.186Z" transform="translate(1582.512 5651.98)"/>
    <path id="Path_789" data-name="Path 789" class="cls-2" d="M73.839,138.286a1.192,1.192,0,0,0-1.186-1.186H72.5v2.371h.153A1.192,1.192,0,0,0,73.839,138.286Z" transform="translate(1582.512 5569.787)"/>
    <path id="Path_790" data-name="Path 790" class="cls-2" d="M84.567,135.549a1.193,1.193,0,1,0,1.415.918A1.181,1.181,0,0,0,84.567,135.549Z" transform="translate(1575.646 5570.764)"/>
    <path id="Path_791" data-name="Path 791" class="cls-2" d="M97.545,131.233a1.189,1.189,0,0,0-.612,1.568,1.19,1.19,0,0,0,2.18-.956A1.177,1.177,0,0,0,97.545,131.233Z" transform="translate(1567.488 5573.474)"/>
    <path id="Path_792" data-name="Path 792" class="cls-2" d="M109.3,124.41a1.2,1.2,0,1,0,1.683.268A1.181,1.181,0,0,0,109.3,124.41Z" transform="translate(1560.089 5577.772)"/>
    <path id="Path_793" data-name="Path 793" class="cls-2" d="M119.381,115.157a1.166,1.166,0,0,0,.076,1.683,1.191,1.191,0,0,0,1.606-1.759A1.169,1.169,0,0,0,119.381,115.157Z" transform="translate(1553.761 5583.583)"/>
    <path id="Path_794" data-name="Path 794" class="cls-2" d="M129.07,103.623a1.193,1.193,0,0,0-1.645.421,1.207,1.207,0,1,0,2.1,1.186A1.2,1.2,0,0,0,129.07,103.623Z" transform="translate(1548.699 5590.565)"/>
    <path id="Path_795" data-name="Path 795" class="cls-2" d="M134.445,90.815a1.209,1.209,0,1,0,.765,1.53A1.246,1.246,0,0,0,134.445,90.815Z" transform="translate(1545.236 5598.402)"/>
    <path id="Path_796" data-name="Path 796" class="cls-2" d="M137.026,77.187a1.212,1.212,0,1,0,1.071,1.339A1.214,1.214,0,0,0,137.026,77.187Z" transform="translate(1543.497 5606.789)"/>
    <path id="Path_797" data-name="Path 797" class="cls-2" d="M135.687,64.526a1.209,1.209,0,0,0,1.339,1.071,1.184,1.184,0,0,0,1.071-1.339,1.212,1.212,0,0,0-2.41.268Z" transform="translate(1543.498 5615.435)"/>
    <path id="Path_798" data-name="Path 798" class="cls-2" d="M132.715,51.215a1.169,1.169,0,0,0,1.53.765,1.209,1.209,0,1,0-.765-2.295A1.229,1.229,0,0,0,132.715,51.215Z" transform="translate(1545.36 5623.812)"/>
    <path id="Path_799" data-name="Path 799" class="cls-2" d="M128.811,39.189a1.24,1.24,0,0,0,.459-1.645,1.184,1.184,0,0,0-1.645-.421,1.239,1.239,0,0,0-.459,1.645A1.193,1.193,0,0,0,128.811,39.189Z" transform="translate(1548.844 5631.631)"/>
    <path id="Path_800" data-name="Path 800" class="cls-2" d="M120.764,27.84a1.191,1.191,0,1,0-1.683-.076A1.168,1.168,0,0,0,120.764,27.84Z" transform="translate(1553.945 5638.543)"/>
    <path id="Path_801" data-name="Path 801" class="cls-2" d="M108.877,18.687A1.2,1.2,0,1,0,108.61,17,1.186,1.186,0,0,0,108.877,18.687Z" transform="translate(1560.362 5644.254)"/>
    <path id="Path_802" data-name="Path 802" class="cls-2" d="M96.98,11.913a1.19,1.19,0,1,0-.612-1.568A1.26,1.26,0,0,0,96.98,11.913Z" transform="translate(1567.824 5648.504)"/>
    <path id="Path_803" data-name="Path 803" class="cls-2" d="M83.985,7.7A1.164,1.164,0,0,0,85.4,6.782a1.193,1.193,0,1,0-1.415.918Z" transform="translate(1575.999 5651.148)"/>
    <path id="Path_804" data-name="Path 804" class="cls-2" d="M79.193,55.415V47l-6.655-3.9H72.5V55.415h6.693Z" transform="translate(1582.512 5627.834)"/>
    <path id="Path_805" data-name="Path 805" class="cls-2" d="M80.608,83.116V77.8H72.5v9.179l.038.038Z" transform="translate(1582.512 5606.406)"/>
    <path id="Path_806" data-name="Path 806" class="cls-2" d="M73.686,103l-.765.382-.382.191-.038-.038v3.748h1.874Z" transform="translate(1582.512 5590.844)"/>
    <path id="Path_807" data-name="Path 807" class="cls-2" d="M72.921,34.7l.765.344.688-4.245H72.5v3.71h.038Z" transform="translate(1582.512 5635.43)"/>
    <path id="Path_808" data-name="Path 808" class="cls-2" d="M13.1,36.857A22.779,22.779,0,0,0,35.819,59.614V52.385H34.059l.65-4.284.765.382.344.153v-.994L27.787,43.78V38.463h8.032v-.956H29.2V29.093l6.617-3.863v-.994l-.344.153-.765.382-.65-4.284h1.759V14.1A22.828,22.828,0,0,0,13.1,36.857Z" transform="translate(1619.193 5645.743)"/>
    <path id="Path_809" data-name="Path 809" class="cls-2" d="M0,28.767A27.782,27.782,0,0,0,27.729,56.534V55.387a1.2,1.2,0,0,1,0-2.371V51.868a23.139,23.139,0,0,1,0-46.279V4.48h-.076a1.186,1.186,0,0,1,0-2.371h.076V1A27.806,27.806,0,0,0,0,28.767ZM21.418,53.436a1.193,1.193,0,1,1,.918,1.415A1.164,1.164,0,0,1,21.418,53.436ZM16.408,51.6a1.19,1.19,0,1,1,.612,1.568A1.189,1.189,0,0,1,16.408,51.6Zm-4.475-2.869a1.2,1.2,0,1,1,.268,1.683A1.215,1.215,0,0,1,11.933,48.732ZM22.145,2.721a1.164,1.164,0,0,1,1.415.918,1.193,1.193,0,0,1-2.333.5A1.211,1.211,0,0,1,22.145,2.721ZM16.829,4.48a1.19,1.19,0,1,1-.612,1.568A1.177,1.177,0,0,1,16.829,4.48ZM12.009,7.272a1.2,1.2,0,1,1-.268,1.683A1.215,1.215,0,0,1,12.009,7.272ZM1.262,26.09a1.212,1.212,0,1,1,1.071,1.339A1.209,1.209,0,0,1,1.262,26.09Zm0,5.584a1.232,1.232,0,0,1,1.071-1.339,1.212,1.212,0,0,1,.268,2.41A1.232,1.232,0,0,1,1.262,31.674Zm6.884,13.31a1.191,1.191,0,1,1-.076,1.683A1.166,1.166,0,0,1,8.147,44.984ZM5.2,40.547a1.173,1.173,0,0,1,1.645.459A1.2,1.2,0,1,1,5.2,40.547Zm-.459-4.169a1.246,1.246,0,0,1-.765,1.53,1.209,1.209,0,1,1-.765-2.295A1.169,1.169,0,0,1,4.743,36.378ZM4.666,21.386a1.169,1.169,0,0,1-1.53.765A1.209,1.209,0,0,1,3.9,19.856,1.183,1.183,0,0,1,4.666,21.386Zm2.065-4.628a1.207,1.207,0,1,1-.459-1.645A1.24,1.24,0,0,1,6.731,16.758ZM9.6,10.944a1.191,1.191,0,1,1-1.683.076A1.168,1.168,0,0,1,9.6,10.944Z" transform="translate(1627.283 5653.833)"/>
  </g>
</svg>
