<svg xmlns="http://www.w3.org/2000/svg" viewBox="7230 1618 643 445">
  <defs>
    <style>
      .cls-1 {
        fill: none;
      }

      .cls-2 {
        fill: #f5fbff;
      }

      .cls-2, .cls-3 {
        stroke: rgba(0,0,0,0);
      }

      .cls-3 {
        fill: #d0d0d0;
      }
    </style>
  </defs>
  <g id="billion" transform="translate(7107 -52)">
    <rect id="Rectangle_681" data-name="Rectangle 681" class="cls-1" width="643" height="445" transform="translate(123 1670)"/>
    <path id="Path_846" data-name="Path 846" class="cls-2" d="M40.283,98.77V86.926L80.1,69.664,40.283,52.528V40.936L88.163,63.49V76.72ZM107.315,112v-9.45h15.246v-68.8l-16.506,6.552V30.1L121.3,23.8h11.97v78.75h12.474V112Zm59.22,0v-9.45h15.246v-68.8l-16.506,6.552V30.1l15.246-6.3h11.97v78.75h12.474V112Zm131.481-4.536Q293.039,112,281.573,112h-23.94V23.8h22.428q11.214,0,16.443,4.536t5.229,15.12v7.182q0,9.7-6.93,14.616,8.19,4.536,8.19,15.5v11.34Q302.993,102.928,298.016,107.464Zm-9.45-72.072q-2.205-2.142-6.993-2.142H268.6V61.1h12.978a9.134,9.134,0,0,0,6.552-2.52,8.793,8.793,0,0,0,2.646-6.678V42.322Q290.771,37.534,288.566,35.392ZM289.511,73a9.156,9.156,0,0,0-6.678-2.457H268.6v32h14.112q4.788,0,7.056-2.205t2.268-6.993V79.618A8.815,8.815,0,0,0,289.511,73ZM321.893,35.14V23.8h11.97V35.14Zm.63,76.86V49h10.71v63Zm33.453-3.024q-3.213-3.024-3.213-9.576V23.8h10.71V98.77a3.672,3.672,0,0,0,1.008,2.9,5.167,5.167,0,0,0,3.4.882h2.52V112h-6.93A10.6,10.6,0,0,1,355.976,108.976Zm31.5,0q-3.213-3.024-3.213-9.576V23.8h10.71V98.77a3.672,3.672,0,0,0,1.008,2.9,5.167,5.167,0,0,0,3.4.882h2.52V112h-6.93A10.6,10.6,0,0,1,387.476,108.976ZM415.763,35.14V23.8h11.97V35.14Zm.63,76.86V49H427.1v63Zm68.859-4.788Q480.023,112,469.061,112h-1.638q-10.962,0-16.191-4.788T446,91.84V69.16q0-10.584,5.229-15.372T467.423,49h1.638q10.962,0,16.191,4.788t5.229,15.372V91.84Q490.481,102.424,485.252,107.212Zm-7.875-46.62q-2.394-2.142-7.056-2.142h-4.158q-4.662,0-7.056,2.142a7.694,7.694,0,0,0-2.394,6.048V94.36a7.694,7.694,0,0,0,2.394,6.048q2.394,2.142,7.056,2.142h4.158q4.662,0,7.056-2.142a7.694,7.694,0,0,0,2.394-6.048V66.64A7.694,7.694,0,0,0,477.377,60.592Zm32-11.592h10.08v3.024A15.994,15.994,0,0,1,529.541,49h3.276Q543.023,49,548,53.788t4.977,15.372V112h-10.71V66.64a7.61,7.61,0,0,0-8.19-8.19h-5.8q-4.158,0-6.174,2.205a6.9,6.9,0,0,0-2.016,4.725V112h-10.71Z" transform="translate(148 1782)"/>
    <path id="Path_847" data-name="Path 847" class="cls-3" d="M135.767,12.3V28.93a9.058,9.058,0,0,1-2.654,6.908,10.18,10.18,0,0,1-7.295,2.514q-4.641,0-7.181-2.531a9.388,9.388,0,0,1-2.54-6.961V12.3h2.988V29.07a6.606,6.606,0,0,0,1.758,4.939,7.093,7.093,0,0,0,5.168,1.723A6.839,6.839,0,0,0,131.021,34a6.661,6.661,0,0,0,1.758-4.966V12.3Zm21.3,18.861a6.3,6.3,0,0,1-2.461,5.291,10.671,10.671,0,0,1-6.68,1.9,16.73,16.73,0,0,1-7.031-1.178V34.291a18.512,18.512,0,0,0,3.445,1.055,18.127,18.127,0,0,0,3.691.387,7.448,7.448,0,0,0,4.5-1.134,3.721,3.721,0,0,0,1.512-3.155,4.05,4.05,0,0,0-.536-2.188,4.981,4.981,0,0,0-1.793-1.573,25.083,25.083,0,0,0-3.823-1.635,12.2,12.2,0,0,1-5.124-3.041,6.714,6.714,0,0,1-1.538-4.588,5.706,5.706,0,0,1,2.232-4.729,9.277,9.277,0,0,1,5.906-1.758,17.406,17.406,0,0,1,7.049,1.406l-.932,2.6A15.93,15.93,0,0,0,149.3,14.6a5.988,5.988,0,0,0-3.709,1.02,3.36,3.36,0,0,0-1.336,2.83,4.337,4.337,0,0,0,.492,2.188,4.634,4.634,0,0,0,1.661,1.564,20.639,20.639,0,0,0,3.577,1.573,14.162,14.162,0,0,1,5.563,3.094A6.085,6.085,0,0,1,157.071,31.162Zm25.77-6.258q0,6.363-3.454,9.729T169.446,38h-7.119V12.3H170.2q5.994,0,9.316,3.322T182.841,24.9Zm-3.164.105q0-5.027-2.522-7.576t-7.5-2.549h-4.342V35.416h3.639q5.344,0,8.033-2.628T179.677,25.01Zm26.6-6.627a11.418,11.418,0,0,1,2.3.211l-.4,2.707a9.94,9.94,0,0,0-2.109-.264,5.135,5.135,0,0,0-4,1.9,6.922,6.922,0,0,0-1.661,4.729V38h-2.918V18.734h2.408l.334,3.568h.141a8.469,8.469,0,0,1,2.584-2.9A5.817,5.817,0,0,1,206.272,18.383ZM219.6,38.352a8.851,8.851,0,0,1-6.741-2.6,10.071,10.071,0,0,1-2.47-7.225,11.169,11.169,0,0,1,2.294-7.4,7.62,7.62,0,0,1,6.161-2.742,7.265,7.265,0,0,1,5.73,2.382,9.129,9.129,0,0,1,2.109,6.284v1.846H213.409a7.637,7.637,0,0,0,1.714,5.15A5.928,5.928,0,0,0,219.7,35.8a15.517,15.517,0,0,0,6.152-1.3v2.6a15.442,15.442,0,0,1-2.927.958A16.448,16.448,0,0,1,219.6,38.352Zm-.791-17.525a4.765,4.765,0,0,0-3.7,1.512,6.968,6.968,0,0,0-1.626,4.184h10.072a6.416,6.416,0,0,0-1.23-4.228A4.331,4.331,0,0,0,218.806,20.826ZM235.153,38l-7.312-19.266h3.129l4.148,11.426a54.08,54.08,0,0,1,1.652,5.2h.141a39.3,39.3,0,0,1,1.222-3.858q1.028-2.927,4.614-12.771h3.129L238.563,38Zm21.955.352a8.851,8.851,0,0,1-6.741-2.6,10.071,10.071,0,0,1-2.47-7.225,11.169,11.169,0,0,1,2.294-7.4,7.62,7.62,0,0,1,6.161-2.742,7.265,7.265,0,0,1,5.73,2.382,9.129,9.129,0,0,1,2.109,6.284v1.846H250.921a7.637,7.637,0,0,0,1.714,5.15,5.928,5.928,0,0,0,4.579,1.758,15.517,15.517,0,0,0,6.152-1.3v2.6a15.442,15.442,0,0,1-2.927.958A16.448,16.448,0,0,1,257.108,38.352Zm-.791-17.525a4.765,4.765,0,0,0-3.7,1.512,6.968,6.968,0,0,0-1.626,4.184h10.072a6.416,6.416,0,0,0-1.23-4.228A4.331,4.331,0,0,0,256.317,20.826ZM282.351,38V25.537a5.028,5.028,0,0,0-1.072-3.516,4.368,4.368,0,0,0-3.357-1.16,5.537,5.537,0,0,0-4.43,1.635q-1.406,1.635-1.406,5.4V38h-2.918V18.734h2.373l.475,2.637h.141a5.958,5.958,0,0,1,2.514-2.206,8.167,8.167,0,0,1,3.6-.782,7.318,7.318,0,0,1,5.238,1.679q1.758,1.679,1.758,5.37V38ZM294,18.734v12.5a5.028,5.028,0,0,0,1.072,3.516,4.368,4.368,0,0,0,3.357,1.16,5.478,5.478,0,0,0,4.421-1.652q1.4-1.652,1.4-5.4V18.734h2.918V38h-2.408l-.422-2.584h-.158A5.816,5.816,0,0,1,301.7,37.6a8.36,8.36,0,0,1-3.63.756,7.365,7.365,0,0,1-5.265-1.67q-1.749-1.67-1.749-5.344v-12.6ZM321.5,38.352a8.851,8.851,0,0,1-6.741-2.6,10.071,10.071,0,0,1-2.47-7.225,11.169,11.169,0,0,1,2.294-7.4,7.62,7.62,0,0,1,6.161-2.742,7.265,7.265,0,0,1,5.73,2.382,9.129,9.129,0,0,1,2.109,6.284v1.846H315.31a7.637,7.637,0,0,0,1.714,5.15A5.928,5.928,0,0,0,321.6,35.8a15.517,15.517,0,0,0,6.152-1.3v2.6a15.442,15.442,0,0,1-2.927.958A16.448,16.448,0,0,1,321.5,38.352Zm-.791-17.525a4.765,4.765,0,0,0-3.7,1.512,6.968,6.968,0,0,0-1.626,4.184h10.072a6.416,6.416,0,0,0-1.23-4.228A4.331,4.331,0,0,0,320.706,20.826Zm31.166,17.525a8.337,8.337,0,0,1-3.437-.694,6.463,6.463,0,0,1-2.61-2.136h-.211a25.841,25.841,0,0,1,.211,3.2v7.928h-2.918V18.734h2.373l.4,2.637h.141a6.777,6.777,0,0,1,2.619-2.285,7.962,7.962,0,0,1,3.428-.7A7.121,7.121,0,0,1,357.787,21q2.083,2.619,2.083,7.348,0,4.746-2.118,7.374A7.133,7.133,0,0,1,351.872,38.352Zm-.422-17.49a5.171,5.171,0,0,0-4.271,1.635q-1.318,1.635-1.354,5.2v.65q0,4.061,1.354,5.81a5.148,5.148,0,0,0,4.342,1.749,4.515,4.515,0,0,0,3.911-2.021,9.586,9.586,0,0,0,1.415-5.572,9.226,9.226,0,0,0-1.415-5.528A4.654,4.654,0,0,0,351.45,20.861Zm21.656,17.49a8.851,8.851,0,0,1-6.741-2.6,10.071,10.071,0,0,1-2.47-7.225,11.169,11.169,0,0,1,2.294-7.4,7.62,7.62,0,0,1,6.161-2.742,7.265,7.265,0,0,1,5.73,2.382,9.129,9.129,0,0,1,2.109,6.284v1.846H366.919a7.637,7.637,0,0,0,1.714,5.15,5.928,5.928,0,0,0,4.579,1.758,15.517,15.517,0,0,0,6.152-1.3v2.6a15.442,15.442,0,0,1-2.927.958A16.448,16.448,0,0,1,373.106,38.352Zm-.791-17.525a4.765,4.765,0,0,0-3.7,1.512,6.968,6.968,0,0,0-1.626,4.184h10.072a6.416,6.416,0,0,0-1.23-4.228A4.331,4.331,0,0,0,372.315,20.826Zm21.639-2.443a11.418,11.418,0,0,1,2.3.211l-.4,2.707a9.94,9.94,0,0,0-2.109-.264,5.135,5.135,0,0,0-4,1.9,6.922,6.922,0,0,0-1.661,4.729V38h-2.918V18.734h2.408l.334,3.568h.141a8.469,8.469,0,0,1,2.584-2.9A5.817,5.817,0,0,1,393.954,18.383Zm12.2.352h3.129L413.5,29.721a41.788,41.788,0,0,1,1.723,5.432h.141q.229-.9.958-3.067t4.772-13.351h3.129l-8.279,21.938a10.944,10.944,0,0,1-2.874,4.614,6.112,6.112,0,0,1-4.034,1.362,11.739,11.739,0,0,1-2.637-.3V44.012a10.171,10.171,0,0,0,2.162.211q3.006,0,4.289-3.375l1.072-2.742Zm29.338,19.617a8.851,8.851,0,0,1-6.741-2.6,10.071,10.071,0,0,1-2.47-7.225,11.169,11.169,0,0,1,2.294-7.4,7.62,7.62,0,0,1,6.161-2.742,7.265,7.265,0,0,1,5.73,2.382,9.129,9.129,0,0,1,2.109,6.284v1.846H429.3a7.637,7.637,0,0,0,1.714,5.15A5.928,5.928,0,0,0,435.6,35.8a15.517,15.517,0,0,0,6.152-1.3v2.6a15.442,15.442,0,0,1-2.927.958A16.448,16.448,0,0,1,435.491,38.352ZM434.7,20.826a4.765,4.765,0,0,0-3.7,1.512,6.968,6.968,0,0,0-1.626,4.184h10.072a6.416,6.416,0,0,0-1.23-4.228A4.331,4.331,0,0,0,434.7,20.826ZM459.4,38l-.58-2.742h-.141A8.107,8.107,0,0,1,455.8,37.71a8.76,8.76,0,0,1-3.577.642,6.435,6.435,0,0,1-4.491-1.477,5.386,5.386,0,0,1-1.626-4.2q0-5.836,9.334-6.117l3.27-.105v-1.2a4.884,4.884,0,0,0-.976-3.349,4.012,4.012,0,0,0-3.12-1.081,12.713,12.713,0,0,0-5.449,1.477l-.9-2.232a13.712,13.712,0,0,1,3.12-1.213,13.513,13.513,0,0,1,3.4-.439,7.339,7.339,0,0,1,5.106,1.529q1.661,1.529,1.661,4.9V38Zm-6.592-2.057a5.923,5.923,0,0,0,4.28-1.494,5.527,5.527,0,0,0,1.556-4.184v-1.74l-2.918.123a10.614,10.614,0,0,0-5.019,1.081,3.26,3.26,0,0,0-1.538,2.979,3.006,3.006,0,0,0,.958,2.408A3.977,3.977,0,0,0,452.806,35.943ZM476.36,18.383a11.418,11.418,0,0,1,2.3.211l-.4,2.707a9.94,9.94,0,0,0-2.109-.264,5.135,5.135,0,0,0-4,1.9,6.922,6.922,0,0,0-1.661,4.729V38h-2.918V18.734h2.408l.334,3.568h.141a8.469,8.469,0,0,1,2.584-2.9A5.817,5.817,0,0,1,476.36,18.383Z" transform="translate(148 1929)"/>
  </g>
</svg>
