<svg xmlns="http://www.w3.org/2000/svg" viewBox="7487 3668 436 436">
  <defs>
    <style>
      .cls-1 {
        fill: none;
      }

      .cls-2 {
        fill: #e31041;
      }

      .cls-3 {
        fill: #fff;
      }
    </style>
  </defs>
  <g id="cryptopoker" transform="translate(7107 -52)">
    <rect id="Rectangle_681" data-name="Rectangle 681" class="cls-1" width="436" height="436" transform="translate(380 3720)"/>
    <g id="Group_692" data-name="Group 692" transform="translate(-2 -1)">
      <g id="Group_691" data-name="Group 691" transform="translate(433 3765)">
        <path id="Path_844" data-name="Path 844" class="cls-2" d="M189.242,46.3C110.408,46.3,46.3,110.408,46.3,189.242s64.108,143.011,142.942,143.011,142.942-64.108,142.942-142.942S268.075,46.3,189.242,46.3Zm-1.181,39.729.486.625h12.016l-4.1,26.741L191.6,111.1l-2.431-1.181-.764.347V87.418L182.3,92.211l-.833-1.111Zm42.785,54.454V193.2h-42.16l-.556.972-7.293-4.028.695-1.25,6.946,3.82V116.521l.764-.417Zm-52.579,61.955-8.057,2.084-.347-1.32,8.057-2.084Zm-12.016-20.42.695-1.25,7.293,4.028-.695,1.25Zm8.682-85.779.833,1.111-6.6,5.14-.833-1.111Zm-13.127,10.28.833,1.111-6.6,5.14-.833-1.111Zm-12.085,116.9,1.181-.695,4.167,7.223H155l.139.139,2.639,3.959c0,.208.208.208.208.417l4.167,6.39-7.293,5.07-7.71-5.279,6.6-10.21Zm12.085-18.059.347,1.32-8.057,2.084-.347-1.32Zm-2.848-27.366-7.293-4.028.695-1.25,7.293,4.028Zm-9.585-61.33a.522.522,0,0,1,.9,0l2.153,3.264c0,.208.208.208.208.347l3.4,5.209-5.973,4.167-6.321-4.306Zm-6.043,9.724,6.321,4.306h.695l6.112-4.306v.208l-4.654,7.293,5.279-2.709.625,1.25-7.432,3.82-.069-.069h-.139l-.972,5-1.389-.278.833-4.306-2.223.139-.069-1.389,2.848-.139-5.973-8.4C143.331,126.592,143.331,126.592,143.331,126.383Zm4.376,22.921-1.6,8.2-1.389-.278,1.6-8.2Zm-8.613,15.906,3.751,2.223.347-1.945,1.389.278-.486,2.431.972.556-.556,1.042,4.1,6.182c0,.417.417.417.417.764l7.362,11.252-12.849,8.821L130,187.505l12.016-18.614c.069-.069.139-.208.208-.278l-3.82-2.292Zm-13.058,51.815.486,1.32-7.779,3.056-.486-1.32Zm-6.6-13.613.417-1.32,7.918,2.709-.417,1.32Zm.347,35.006a.394.394,0,0,1,.695,0l1.667,2.5c0,.139.139.139.139.278l2.639,3.959-4.515,3.2-4.793-3.334ZM123.4,235.5l-1.042-.9,5.418-6.39,1.042.9Zm.625-77.652.695-1.181,7.154,4.237-.695,1.181Zm14.1-22.087.069,1.389-8.335.417-.069-1.389Zm-17.781,1.667a.41.41,0,0,1,.764,0l-.069-.833h.417l.069,1.389h-.069l1.667,2.5c0,.139.139.139.139.347l3.126,4.792-5.418,3.751-5.765-3.959Zm-5.487,8.89,5.765,3.959h.695l5.557-3.959v.139L121.452,155c0,.139-.139.139-.347.139-.139,0-.139,0-.347-.139l-5.9-8.4Zm1.945,10.418.625,1.25-7.432,3.751-.625-1.25ZM94.433,168.891a.461.461,0,0,1,.347-.278l-.347-.695,7.432-3.751.625,1.25-6.876,3.473h0l2.848,4.237c0,.208.208.208.208.486l4.445,6.807-7.779,5.418-8.2-5.626Zm-7.849,13.127v-.486l8.2,5.626h.972l7.988-5.626v.208L96.031,193.9l.208.069-.278.833,3.195,4.793-1.181.764-5-7.5,1.736.556Zm17.156,25.213,2.153,3.264c0,.208.208.208.208.347l3.4,5.209-5.973,4.167-6.321-4.306,5.626-8.682A.482.482,0,0,1,103.741,207.231Zm-.417,20.281-.486-1.32.208-.069L96.864,217.3v-.347l6.321,4.306h.695l6.112-4.306v.208l-5.279,8.335,5.834-2.292.486,1.32Zm8.265-26.81-7.918-2.709.417-1.32,7.918,2.709Zm8.89,52.579c-.139,0-.139,0-.278-.139l-4.931-7.015v-.278l4.793,3.334h.556l4.654-3.334v.139l-4.515,7.154C120.757,253.281,120.619,253.281,120.48,253.281Zm7.849,4.584-7.5-3.681.625-1.25,7.5,3.681Zm4.792-35.978,5.418-6.39,1.042.9-5.418,6.39Zm10.141,43.341-7.5-3.681.625-1.25,7.5,3.681Zm-.417-53.759-1.25-.417.417,1.111-7.779,3.056-.486-1.32,7.571-2.987-6.112-2.084.417-1.32,7.085,2.431-13.683-19.309v-.764l13.544,9.307h1.528l13.2-9.307v.417L144.928,209.8l.625-.139.347,1.32-1.667.417,2.362,4.167-1.181.695Zm15.419,61.052-7.5-3.681.625-1.25,7.5,3.681Zm4.515-30.214-7.154,11.252,7.085,1.667-.347,1.32-8.126-1.945.278-1.042-7.849-11.044V242.1l7.71,5.279h.833l7.5-5.279v.208Zm1.806-115.02,7.432-3.82.625,1.25-7.432,3.82Zm8.613,152.6-7.5-3.681.625-1.25,7.5,3.681Zm5.418-19.448-8.126-1.945.347-1.32,8.126,1.945Zm.764-140.788,7.432-3.82.625,1.25L180,120.9Zm9.168,166.765-.417.833-7.5-3.681.625-1.25,7.154,3.542V262.8l-1.806-.417.347-1.32,2.292.556-.347,1.32-.347-.069.556.278,2.431-1.181,4.862-2.292,4.1,26.741H188.547Zm51.189-53.829-50.495,24.379-.764-.347V199.8l-2.153.556-.347-1.32,2.292-.625.208.833h51.189v33.339Z" transform="translate(-14.142 -14.142)"/>
        <path id="Path_845" data-name="Path 845" class="cls-2" d="M175.1,0C78.416,0,0,78.416,0,175.1S78.416,350.2,175.1,350.2s175.1-78.416,175.1-175.1A175.083,175.083,0,0,0,175.1,0ZM341.032,156.972a7.509,7.509,0,1,1-8.265-6.668A7.506,7.506,0,0,1,341.032,156.972Zm-16.878-38.9a7.556,7.556,0,1,1-4.862,9.516A7.527,7.527,0,0,1,324.154,118.076ZM309.012,88.349a7.53,7.53,0,1,1-2.778,10.28A7.515,7.515,0,0,1,309.012,88.349ZM288.106,62.372A7.525,7.525,0,1,1,287.55,73,7.43,7.43,0,0,1,288.106,62.372ZM262.129,41.327A7.509,7.509,0,1,1,263.8,51.815,7.536,7.536,0,0,1,262.129,41.327ZM232.471,26.185a7.525,7.525,0,1,1,3.82,9.932A7.509,7.509,0,0,1,232.471,26.185ZM200.243,17.5a7.492,7.492,0,1,1,5.765,8.89A7.419,7.419,0,0,1,200.243,17.5ZM174.405,8.2a7.5,7.5,0,1,1-7.5,7.5A7.514,7.514,0,0,1,174.405,8.2Zm-34.659,3.82a7.492,7.492,0,1,1-5.765,8.89A7.489,7.489,0,0,1,139.747,12.016Zm-33.131,10.9a7.525,7.525,0,1,1-3.82,9.932A7.509,7.509,0,0,1,106.616,22.921ZM76.472,40.493A7.509,7.509,0,1,1,74.8,50.981,7.536,7.536,0,0,1,76.472,40.493ZM50.634,63.969A7.525,7.525,0,1,1,51.189,74.6,7.558,7.558,0,0,1,50.634,63.969ZM30.214,92.238a7.53,7.53,0,1,1,2.778,10.28A7.515,7.515,0,0,1,30.214,92.238Zm-14.03,31.95a7.556,7.556,0,1,1,4.862,9.516A7.5,7.5,0,0,1,16.183,124.188ZM9.029,158.361a7.509,7.509,0,1,1,6.668,8.265A7.586,7.586,0,0,1,9.029,158.361Zm.139,34.867a7.509,7.509,0,1,1,8.265,6.668A7.506,7.506,0,0,1,9.168,193.228Zm16.878,38.965a7.556,7.556,0,1,1,4.862-9.516A7.613,7.613,0,0,1,26.046,232.193Zm15.142,29.727a7.53,7.53,0,1,1,2.778-10.28A7.515,7.515,0,0,1,41.188,261.921ZM62.164,287.9a7.525,7.525,0,1,1,.556-10.627A7.558,7.558,0,0,1,62.164,287.9Zm25.907,20.976A7.509,7.509,0,1,1,86.4,298.385,7.536,7.536,0,0,1,88.071,308.873ZM117.8,324.084a7.525,7.525,0,1,1-3.82-9.932A7.509,7.509,0,0,1,117.8,324.084Zm32.228,8.613a7.419,7.419,0,0,1-8.89,5.765,7.492,7.492,0,1,1,8.89-5.765ZM175.795,342a7.5,7.5,0,1,1,7.5-7.5A7.514,7.514,0,0,1,175.795,342Zm34.728-3.751a7.492,7.492,0,1,1,5.765-8.89A7.489,7.489,0,0,1,210.523,338.253Zm33.131-10.9a7.525,7.525,0,1,1,3.82-9.932A7.615,7.615,0,0,1,243.654,327.349ZM273.8,309.776a7.509,7.509,0,1,1,1.667-10.488A7.536,7.536,0,0,1,273.8,309.776ZM175.1,319.5c-79.6,0-144.331-64.734-144.331-144.331S95.5,30.769,175.1,30.769,319.431,95.5,319.431,175.1,254.7,319.5,175.1,319.5Zm124.536-33.2a7.525,7.525,0,1,1-.556-10.627A7.558,7.558,0,0,1,299.636,286.3Zm20.351-28.338a7.53,7.53,0,1,1-2.778-10.28A7.515,7.515,0,0,1,319.986,257.962Zm14.1-31.95a7.556,7.556,0,1,1-4.862-9.516A7.583,7.583,0,0,1,334.086,226.012Zm-1.181-27.435a7.509,7.509,0,0,1,1.6-14.933,7.509,7.509,0,0,1-1.6,14.933Z"/>
      </g>
      <g id="Group_690" data-name="Group 690" transform="translate(417 3763)">
        <path id="Path_844-2" data-name="Path 844" class="cls-3" d="M189.242,46.3C110.408,46.3,46.3,110.408,46.3,189.242s64.108,143.011,142.942,143.011,142.942-64.108,142.942-142.942S268.075,46.3,189.242,46.3Zm-1.181,39.729.486.625h12.016l-4.1,26.741L191.6,111.1l-2.431-1.181-.764.347V87.418L182.3,92.211l-.833-1.111Zm42.785,54.454V193.2h-42.16l-.556.972-7.293-4.028.695-1.25,6.946,3.82V116.521l.764-.417Zm-52.579,61.955-8.057,2.084-.347-1.32,8.057-2.084Zm-12.016-20.42.695-1.25,7.293,4.028-.695,1.25Zm8.682-85.779.833,1.111-6.6,5.14-.833-1.111Zm-13.127,10.28.833,1.111-6.6,5.14-.833-1.111Zm-12.085,116.9,1.181-.695,4.167,7.223H155l.139.139,2.639,3.959c0,.208.208.208.208.417l4.167,6.39-7.293,5.07-7.71-5.279,6.6-10.21Zm12.085-18.059.347,1.32-8.057,2.084-.347-1.32Zm-2.848-27.366-7.293-4.028.695-1.25,7.293,4.028Zm-9.585-61.33a.522.522,0,0,1,.9,0l2.153,3.264c0,.208.208.208.208.347l3.4,5.209-5.973,4.167-6.321-4.306Zm-6.043,9.724,6.321,4.306h.695l6.112-4.306v.208l-4.654,7.293,5.279-2.709.625,1.25-7.432,3.82-.069-.069h-.139l-.972,5-1.389-.278.833-4.306-2.223.139-.069-1.389,2.848-.139-5.973-8.4C143.331,126.592,143.331,126.592,143.331,126.383Zm4.376,22.921-1.6,8.2-1.389-.278,1.6-8.2Zm-8.613,15.906,3.751,2.223.347-1.945,1.389.278-.486,2.431.972.556-.556,1.042,4.1,6.182c0,.417.417.417.417.764l7.362,11.252-12.849,8.821L130,187.505l12.016-18.614c.069-.069.139-.208.208-.278l-3.82-2.292Zm-13.058,51.815.486,1.32-7.779,3.056-.486-1.32Zm-6.6-13.613.417-1.32,7.918,2.709-.417,1.32Zm.347,35.006a.394.394,0,0,1,.695,0l1.667,2.5c0,.139.139.139.139.278l2.639,3.959-4.515,3.2-4.793-3.334ZM123.4,235.5l-1.042-.9,5.418-6.39,1.042.9Zm.625-77.652.695-1.181,7.154,4.237-.695,1.181Zm14.1-22.087.069,1.389-8.335.417-.069-1.389Zm-17.781,1.667a.41.41,0,0,1,.764,0l-.069-.833h.417l.069,1.389h-.069l1.667,2.5c0,.139.139.139.139.347l3.126,4.792-5.418,3.751-5.765-3.959Zm-5.487,8.89,5.765,3.959h.695l5.557-3.959v.139L121.452,155c0,.139-.139.139-.347.139-.139,0-.139,0-.347-.139l-5.9-8.4Zm1.945,10.418.625,1.25-7.432,3.751-.625-1.25ZM94.433,168.891a.461.461,0,0,1,.347-.278l-.347-.695,7.432-3.751.625,1.25-6.876,3.473h0l2.848,4.237c0,.208.208.208.208.486l4.445,6.807-7.779,5.418-8.2-5.626Zm-7.849,13.127v-.486l8.2,5.626h.972l7.988-5.626v.208L96.031,193.9l.208.069-.278.833,3.195,4.793-1.181.764-5-7.5,1.736.556Zm17.156,25.213,2.153,3.264c0,.208.208.208.208.347l3.4,5.209-5.973,4.167-6.321-4.306,5.626-8.682A.482.482,0,0,1,103.741,207.231Zm-.417,20.281-.486-1.32.208-.069L96.864,217.3v-.347l6.321,4.306h.695l6.112-4.306v.208l-5.279,8.335,5.834-2.292.486,1.32Zm8.265-26.81-7.918-2.709.417-1.32,7.918,2.709Zm8.89,52.579c-.139,0-.139,0-.278-.139l-4.931-7.015v-.278l4.793,3.334h.556l4.654-3.334v.139l-4.515,7.154C120.757,253.281,120.619,253.281,120.48,253.281Zm7.849,4.584-7.5-3.681.625-1.25,7.5,3.681Zm4.792-35.978,5.418-6.39,1.042.9-5.418,6.39Zm10.141,43.341-7.5-3.681.625-1.25,7.5,3.681Zm-.417-53.759-1.25-.417.417,1.111-7.779,3.056-.486-1.32,7.571-2.987-6.112-2.084.417-1.32,7.085,2.431-13.683-19.309v-.764l13.544,9.307h1.528l13.2-9.307v.417L144.928,209.8l.625-.139.347,1.32-1.667.417,2.362,4.167-1.181.695Zm15.419,61.052-7.5-3.681.625-1.25,7.5,3.681Zm4.515-30.214-7.154,11.252,7.085,1.667-.347,1.32-8.126-1.945.278-1.042-7.849-11.044V242.1l7.71,5.279h.833l7.5-5.279v.208Zm1.806-115.02,7.432-3.82.625,1.25-7.432,3.82Zm8.613,152.6-7.5-3.681.625-1.25,7.5,3.681Zm5.418-19.448-8.126-1.945.347-1.32,8.126,1.945Zm.764-140.788,7.432-3.82.625,1.25L180,120.9Zm9.168,166.765-.417.833-7.5-3.681.625-1.25,7.154,3.542V262.8l-1.806-.417.347-1.32,2.292.556-.347,1.32-.347-.069.556.278,2.431-1.181,4.862-2.292,4.1,26.741H188.547Zm51.189-53.829-50.495,24.379-.764-.347V199.8l-2.153.556-.347-1.32,2.292-.625.208.833h51.189v33.339Z" transform="translate(-14.142 -14.142)"/>
        <path id="Path_845-2" data-name="Path 845" class="cls-3" d="M175.1,0C78.416,0,0,78.416,0,175.1S78.416,350.2,175.1,350.2s175.1-78.416,175.1-175.1A175.083,175.083,0,0,0,175.1,0ZM341.032,156.972a7.509,7.509,0,1,1-8.265-6.668A7.506,7.506,0,0,1,341.032,156.972Zm-16.878-38.9a7.556,7.556,0,1,1-4.862,9.516A7.527,7.527,0,0,1,324.154,118.076ZM309.012,88.349a7.53,7.53,0,1,1-2.778,10.28A7.515,7.515,0,0,1,309.012,88.349ZM288.106,62.372A7.525,7.525,0,1,1,287.55,73,7.43,7.43,0,0,1,288.106,62.372ZM262.129,41.327A7.509,7.509,0,1,1,263.8,51.815,7.536,7.536,0,0,1,262.129,41.327ZM232.471,26.185a7.525,7.525,0,1,1,3.82,9.932A7.509,7.509,0,0,1,232.471,26.185ZM200.243,17.5a7.492,7.492,0,1,1,5.765,8.89A7.419,7.419,0,0,1,200.243,17.5ZM174.405,8.2a7.5,7.5,0,1,1-7.5,7.5A7.514,7.514,0,0,1,174.405,8.2Zm-34.659,3.82a7.492,7.492,0,1,1-5.765,8.89A7.489,7.489,0,0,1,139.747,12.016Zm-33.131,10.9a7.525,7.525,0,1,1-3.82,9.932A7.509,7.509,0,0,1,106.616,22.921ZM76.472,40.493A7.509,7.509,0,1,1,74.8,50.981,7.536,7.536,0,0,1,76.472,40.493ZM50.634,63.969A7.525,7.525,0,1,1,51.189,74.6,7.558,7.558,0,0,1,50.634,63.969ZM30.214,92.238a7.53,7.53,0,1,1,2.778,10.28A7.515,7.515,0,0,1,30.214,92.238Zm-14.03,31.95a7.556,7.556,0,1,1,4.862,9.516A7.5,7.5,0,0,1,16.183,124.188ZM9.029,158.361a7.509,7.509,0,1,1,6.668,8.265A7.586,7.586,0,0,1,9.029,158.361Zm.139,34.867a7.509,7.509,0,1,1,8.265,6.668A7.506,7.506,0,0,1,9.168,193.228Zm16.878,38.965a7.556,7.556,0,1,1,4.862-9.516A7.613,7.613,0,0,1,26.046,232.193Zm15.142,29.727a7.53,7.53,0,1,1,2.778-10.28A7.515,7.515,0,0,1,41.188,261.921ZM62.164,287.9a7.525,7.525,0,1,1,.556-10.627A7.558,7.558,0,0,1,62.164,287.9Zm25.907,20.976A7.509,7.509,0,1,1,86.4,298.385,7.536,7.536,0,0,1,88.071,308.873ZM117.8,324.084a7.525,7.525,0,1,1-3.82-9.932A7.509,7.509,0,0,1,117.8,324.084Zm32.228,8.613a7.419,7.419,0,0,1-8.89,5.765,7.492,7.492,0,1,1,8.89-5.765ZM175.795,342a7.5,7.5,0,1,1,7.5-7.5A7.514,7.514,0,0,1,175.795,342Zm34.728-3.751a7.492,7.492,0,1,1,5.765-8.89A7.489,7.489,0,0,1,210.523,338.253Zm33.131-10.9a7.525,7.525,0,1,1,3.82-9.932A7.615,7.615,0,0,1,243.654,327.349ZM273.8,309.776a7.509,7.509,0,1,1,1.667-10.488A7.536,7.536,0,0,1,273.8,309.776ZM175.1,319.5c-79.6,0-144.331-64.734-144.331-144.331S95.5,30.769,175.1,30.769,319.431,95.5,319.431,175.1,254.7,319.5,175.1,319.5Zm124.536-33.2a7.525,7.525,0,1,1-.556-10.627A7.558,7.558,0,0,1,299.636,286.3Zm20.351-28.338a7.53,7.53,0,1,1-2.778-10.28A7.515,7.515,0,0,1,319.986,257.962Zm14.1-31.95a7.556,7.556,0,1,1-4.862-9.516A7.583,7.583,0,0,1,334.086,226.012Zm-1.181-27.435a7.509,7.509,0,0,1,1.6-14.933,7.509,7.509,0,0,1-1.6,14.933Z"/>
      </g>
    </g>
  </g>
</svg>
