<svg xmlns="http://www.w3.org/2000/svg" viewBox="6126 12176 78 78">
  <defs>
    <style>
      .cls-1 {
        fill: #f5fbff;
      }
    </style>
  </defs>
  <path id="discord" class="cls-1" d="M66,0H12A12.035,12.035,0,0,0,0,12V66A12.035,12.035,0,0,0,12,78H66A12.035,12.035,0,0,0,78,66V12A12.035,12.035,0,0,0,66,0ZM64.7,51.4a20.232,20.232,0,0,1-3.3,3.2,21.005,21.005,0,0,1-6.1,2.7c-.6.1-3.2.5-3.7.5a24.084,24.084,0,0,1-2.9-3.6,6.659,6.659,0,0,1,.7-.3,19.917,19.917,0,0,0,4.1-2.1c1-.7,3.1-2.7,3-2.9a2.829,2.829,0,0,0-.6.3,26.636,26.636,0,0,1-6.5,2.9,29.156,29.156,0,0,1-10.8,1.6,25.45,25.45,0,0,1-4.3-.3,33.117,33.117,0,0,1-12-4.4l-.4-.2.1.3A14.747,14.747,0,0,0,25.1,52a15.076,15.076,0,0,0,3.6,1.8c.3.1.7.2.7.3a21.983,21.983,0,0,1-2.8,3.6,13.613,13.613,0,0,1-1.6-.1,16.075,16.075,0,0,1-11.2-5.7l-.8-1,.1-1.6a60.477,60.477,0,0,1,5.5-22.4c.4-.9.9-1.7,1-1.9a28.03,28.03,0,0,1,3.7-2.3,23.538,23.538,0,0,1,6.8-2.2c1.6-.2,1.8-.2,2,0a1.439,1.439,0,0,1,.2.3s-.6.2-1.4.5a44.051,44.051,0,0,0-7.5,3.4,18.477,18.477,0,0,0-2.5,1.8,10.4,10.4,0,0,0,1.2-.5,38.131,38.131,0,0,1,15.1-3.7,36.468,36.468,0,0,1,18,3.7c.7.3,1.3.6,1.3.6a13.074,13.074,0,0,0-2.6-1.9,32.617,32.617,0,0,0-7-3.2L45.5,21l.3-.3.3-.3,1.1.1a31.385,31.385,0,0,1,5.1,1.2,23.736,23.736,0,0,1,6.2,3.5,60.254,60.254,0,0,1,2.6,6,60.645,60.645,0,0,1,3.6,17.3l.2,2.3Z" transform="translate(6126 12176)"/>
</svg>
