<svg xmlns="http://www.w3.org/2000/svg" viewBox="5719 12176 77.1 77.2">
  <defs>
    <style>
      .cls-1 {
        fill: #f5fbff;
      }
    </style>
  </defs>
  <path id="facebook" class="cls-1" d="M77.1,4.3V72.9a4.268,4.268,0,0,1-4.3,4.3H53.2V47.3h10l1.5-11.7H53.2V28.2c0-3.4.9-5.6,5.8-5.6h6.1V12.1a66.209,66.209,0,0,0-8.9-.5c-8.9,0-15,5.4-15,15.4v8.6h-10V47.3h10V77.2H4.3A4.268,4.268,0,0,1,0,72.9V4.3A4.268,4.268,0,0,1,4.3,0H72.9A4.247,4.247,0,0,1,77.1,4.3Z" transform="translate(5719 12176)"/>
</svg>
