<svg xmlns="http://www.w3.org/2000/svg" viewBox="6264 12177 77.2 77.3">
  <defs>
    <style>
      .cls-1 {
        fill: #fff;
      }
    </style>
  </defs>
  <path id="github" class="cls-1" d="M77.1,62.7A14.51,14.51,0,0,1,62.6,77.2H51.4c-1.6,0-3.3,0-3.3-2.4v-12c0-3.6-1.2-5.9-2.6-7.1,8.6-1,17.6-4.2,17.6-19a14.512,14.512,0,0,0-4-10.3,13.89,13.89,0,0,0-.4-10.2c-3.2-1-10.6,4-10.6,4a34.726,34.726,0,0,0-9.6-1.3,38.321,38.321,0,0,0-9.6,1.3s-7.4-5-10.6-4a13.89,13.89,0,0,0-.4,10.2,14.687,14.687,0,0,0-4,10.3c0,14.8,9,18.1,17.6,19A8.752,8.752,0,0,0,29,60.9c-2.2,1-7.8,2.7-11.2-3.2a8.023,8.023,0,0,0-5.9-4c-3.8,0-.3,2.4-.3,2.4,2.5,1.2,4.3,5.6,4.3,5.6,2.3,6.9,13,4.6,13,4.6,0,3.2.1,7.7.1,8.6,0,2.4-1.7,2.4-3.3,2.4H14.5A14.727,14.727,0,0,1,0,62.7V14.5A14.51,14.51,0,0,1,14.5,0H62.7A14.51,14.51,0,0,1,77.2,14.5V62.7ZM14,55.5c-.3-.2-.5-.4-.4-.6s.4-.2.7-.1c.3.2.5.4.4.6A.878.878,0,0,1,14,55.5Zm1.4,1.4c-.3-.3-.3-.7-.1-.8a.554.554,0,0,1,.8.2c.3.3.3.7.1.8A.554.554,0,0,1,15.4,56.9Zm2.3,2.5c-.2.2-.6,0-.9-.4s-.3-.8,0-.9a.687.687,0,0,1,.9.3A.893.893,0,0,1,17.7,59.4Zm1.1,1.9c-.4-.3-.5-.8-.2-1,.2-.3.7-.2,1,.2.3.3.4.8.2,1A.705.705,0,0,1,18.8,61.3ZM21.7,63c-.5-.1-.8-.5-.7-.8a.886.886,0,0,1,1-.4c.5.2.8.5.7.8A.731.731,0,0,1,21.7,63Zm3.3.5c-.5,0-.9-.2-.9-.6,0-.3.4-.6.8-.6.5,0,.9.2.9.6S25.5,63.5,25,63.5Zm3-.3c-.5.1-.9-.1-.9-.4-.1-.4.3-.7.7-.8.5,0,.9.2.9.5C28.8,62.8,28.5,63.1,28,63.2Z" transform="translate(6264 12177)"/>
</svg>
