<?xml version="1.0" standalone="no"?><!-- Generator: Gravit.io --><svg xmlns="http://www.w3.org/2000/svg" xmlns:xlink="http://www.w3.org/1999/xlink" style="isolation:isolate" viewBox="0 0 2573.575 2578.177" width="2573.575" height="2578.177"><defs><clipPath id="_clipPath_0RzUmCyqrLZGIfAl22DG7SXSoMb1c2en"><rect width="2573.575" height="2578.177"/></clipPath></defs><g clip-path="url(#_clipPath_0RzUmCyqrLZGIfAl22DG7SXSoMb1c2en)"><path d=" M 1865.803 2222.736 C 1772.539 2134.654 1643.005 2067.296 1575.648 2067.296 C 1425.389 2067.296 1316.58 1948.125 1358.031 1818.591 C 1394.3 1714.964 1171.503 1445.534 1047.15 1445.534 C 959.067 1445.534 819.171 1647.607 850.259 1730.508 C 865.803 1766.778 829.534 1808.229 772.539 1823.773 C 694.819 1844.498 663.731 1891.13 663.731 1994.757 L 663.731 2139.835 L 503.109 1984.394 C 415.026 1901.493 306.218 1761.597 269.948 1668.332 C 176.684 1450.716 176.684 1020.664 269.948 808.229 C 358.031 606.156 637.824 331.545 834.715 259.006 C 1202.591 119.109 1736.269 238.28 1979.793 507.711 C 2078.238 616.519 2078.238 621.7 1979.793 694.239 C 1927.979 735.69 1824.352 771.959 1756.995 771.959 C 1622.28 771.959 1440.933 948.125 1440.933 1082.84 C 1440.933 1129.472 1508.29 1227.918 1586.01 1305.638 C 1700 1414.446 1746.632 1429.99 1793.264 1383.358 C 1881.347 1295.275 2010.881 1435.172 2057.513 1657.97 C 2083.42 1792.685 2119.689 1828.954 2187.047 1818.591 C 2254.404 1803.047 2275.129 1823.773 2254.404 1880.768 C 2238.86 1922.218 2259.585 1984.394 2301.036 2015.483 C 2342.487 2051.752 2373.575 2145.016 2373.575 2227.918 C 2373.575 2362.633 2358.031 2378.177 2207.772 2378.177 C 2093.782 2378.177 1979.793 2326.363 1865.803 2222.736 Z " fill="rgb(245,251,255)"/></g></svg>