<svg xmlns="http://www.w3.org/2000/svg" viewBox="5719 12176 77.1 77.2">
  <defs>
    <style>
      .cls-1 {
        fill: #f5fbff;
      }
    </style>
  </defs>
  <path id="parsec"  class="cls-1" d="M332 410 c-18 -17 -43 -30 -56 -30 -29 0 -50 -23 -42 -48 7 -20 -36
-72 -60 -72 -17 0 -44 39 -38 55 3 7 -4 15 -15 18 -15 4 -21 13 -21 33 l0 28
-31 -30 c-17 -16 -38 -43 -45 -61 -18 -42 -18 -125 0 -166 17 -39 71 -92 109
-106 71 -27 174 -4 221 48 19 21 19 22 0 36 -10 8 -30 15 -43 15 -26 0 -61 34
-61 60 0 9 13 28 28 43 22 21 31 24 40 15 17 -17 42 10 51 53 5 26 12 33 25
31 13 -3 17 1 13 12 -3 8 1 20 9 26 8 7 14 25 14 41 0 26 -3 29 -32 29 -22 0
-44 -10 -66 -30z"/>
</svg>
