<svg xmlns="http://www.w3.org/2000/svg" viewBox="5990.7 12176 77.2 77.1">
  <defs>
    <style>
      .cls-1 {
        fill: #f5fbff;
      }
    </style>
  </defs>
  <path id="reddit" class="cls-1" d="M298.9,16.1V61a16.089,16.089,0,0,1-16.1,16.1h-45A16.154,16.154,0,0,1,221.7,61V16.1A16.219,16.219,0,0,1,237.8,0h45A16.089,16.089,0,0,1,298.9,16.1ZM292.1,35a6.231,6.231,0,0,0-6.2-6.2,6.309,6.309,0,0,0-4.9,2.4c-4.7-3.4-11.4-5.5-18.8-5.8l4.2-13.3,10.3,2.5a6.171,6.171,0,0,0,6.1,6,6.061,6.061,0,0,0,6.1-6.1,6.124,6.124,0,0,0-6.1-6.1,6.306,6.306,0,0,0-5.6,3.7L265.8,9.4a1.225,1.225,0,0,0-1.5.9l-4.8,15.2c-7.5.2-14.3,2.3-19.1,5.7a6.175,6.175,0,0,0-10.9,4,6.362,6.362,0,0,0,3.6,5.7,8.422,8.422,0,0,0-.4,2.7c0,10,12.5,18.2,27.8,18.2s27.8-8.1,27.8-18.2a12.414,12.414,0,0,0-.3-2.7A6.507,6.507,0,0,0,292.1,35ZM251,44.5a4.567,4.567,0,0,1-4.5-4.6,4.5,4.5,0,1,1,9,0A4.567,4.567,0,0,1,251,44.5ZM271.2,51a1.267,1.267,0,0,1,0,1.8C269,55,265.6,56,260.8,56h-.1c-4.8,0-8.2-1.1-10.4-3.2a1.273,1.273,0,1,1,1.8-1.8c1.7,1.7,4.5,2.6,8.6,2.6h.1c4.1,0,7-.9,8.7-2.6A1.15,1.15,0,0,1,271.2,51ZM275,39.9a4.5,4.5,0,1,1-9,0,4.481,4.481,0,0,1,4.5-4.5A4.544,4.544,0,0,1,275,39.9Zm4.2-25.4a3.6,3.6,0,1,1,3.6,3.6A3.718,3.718,0,0,1,279.2,14.5Z" transform="translate(5769 12176)"/>
</svg>
