<svg xmlns="http://www.w3.org/2000/svg" viewBox="9314 1566 548 548">
  <defs>
    <style>
      .cls-1, .cls-4 {
        fill: #fff;
      }

      .cls-1 {
        stroke: #95989a;
        opacity: 0;
      }

      .cls-2 {
        fill: #e31041;
      }

      .cls-3 {
        fill: #242424;
      }

      .cls-4 {
        font-size: 24px;
        font-family: ShareTech-Regular, Share Tech;
      }

      .cls-5 {
        stroke: none;
      }

      .cls-6 {
        fill: none;
      }
    </style>
  </defs>
  <g id="skillgame" transform="translate(9169 -52)">
    <g id="Rectangle_681" data-name="Rectangle 681" class="cls-1" transform="translate(145 1618)">
      <rect class="cls-5" width="548" height="548"/>
      <rect class="cls-6" x="0.5" y="0.5" width="547" height="547"/>
    </g>
    <g id="skillgame-2" data-name="skillgame" transform="translate(12.104 15.162)">
      <path id="Path_91" data-name="Path 91" class="cls-2" d="M3.712,33.463C5.9,37.4,9.618,40.9,15.085,43.962c16.4-10.5,46.367-15.091,85.3-15.091s68.895,4.593,85.3,15.091c5.468-3.062,9.186-6.561,11.373-10.5a10.4,10.4,0,0,1,1.312-3.062h0c0-18.809-43.743-30.4-97.984-30.4S2.4,11.592,2.4,30.4h0A25.006,25.006,0,0,1,3.712,33.463Z" transform="translate(309.784 1972.011)"/>
      <path id="Path_92" data-name="Path 92" class="cls-2" d="M206.209,15.2h0c-.656.656-.656,1.75-1.094,2.406-9.842,19.466-47.68,27.558-101.921,27.558S11.116,37.071,1.273,17.606C.836,16.731,1.055,15.856.18,15.2h0c-.656,0,1.094,14.873,1.094,18.153A96.964,96.964,0,0,1,.18,43.633c0,18.809,46.149,30.4,103.014,30.4s103.014-11.592,103.014-30.4a90.172,90.172,0,0,1-1.094-10.28C205.115,30.073,206.865,15.2,206.209,15.2Z" transform="translate(306.974 1993.055)"/>
      <path id="Path_90" data-name="Path 90" class="cls-2" d="M360.735,120.31a173.677,173.677,0,0,1-4.029-16.995c-.7-3.663-1.172-6.117-2.051-7.911-.366-.769-.952-2.307-1.795-4.432-1.428-3.773-3.7-9.706-6.739-16.226-1.721-1.245-5.9-2.784-8.351-3.7-5.75-2.124-12.307-4.542-15.749-9.193-2.491-3.37-6.19-7.325-9.926-7.106-2.161.11-3.992,1.612-5.2,2.967a22.347,22.347,0,0,1,3.443,5.86c3.15,8.314.476,16.409-7.032,21.17a27.65,27.65,0,0,1-14.724,3.992c-10,0-21.829-4.578-32.671-16.189a4.2,4.2,0,0,1,6.153-5.714C275.212,80.9,290.485,82.914,298.8,77.64c5.531-3.516,4.688-8.461,3.663-11.1-1.758-4.578-6.629-8.864-11.9-7.985-6.666,1.1-9.413-5.091-11.611-10.072-2.381-5.384-5.348-12.123-12.966-15.969-6.776-3.443-9.047-2.967-11.244-2.491-3.992.806-7.325.989-14.467-4.359-5.384-4.029-12.233-1.978-18.826-.037-6.08,1.795-11.83,3.48-16.372.147-10.036-7.325-6.446-19.925-4.4-25.089-3.3-.33-8.937.659-13.955,1.575-5.494.989-10.732,1.941-14.5,1.575-1.026-.11-2.2-.22-3.48-.366a113.212,113.212,0,0,0-21.207-.806,34.068,34.068,0,0,1,8.644,10.878c.11.183.183.366.293.513,1.245.33,2.6-.147,5.054-1.172,3.333-1.392,7.838-3.26,12.783-.183,4.322,2.674,5.238,6.739,6.007,9.962.733,3.223,1.282,5.531,4.542,7.545,2.674,1.648,4.945,4.139,7.325,6.776,6.666,7.325,13.588,14.87,30.913,9.083a4.187,4.187,0,1,1,2.637,7.948,43.817,43.817,0,0,1-13.772,2.454c-13.369,0-20.731-8.058-26.041-13.881a31.153,31.153,0,0,0-5.531-5.274c-6.227-3.846-7.4-9.01-8.278-12.783-.659-2.893-1.026-3.956-2.271-4.725-1.1-.7-2.088-.44-5.091.806-3.3,1.355-7.838,3.26-12.966.513-1.465-.769-2.088-1.978-3-3.663-2.014-3.736-5.75-10.548-16.335-12.856-7.325,1.538-11.867,3.516-15.017,5.457,5.018,1.135,10.512,3.406,14.321,7.728,5.494,6.227-.476,12.709-4.029,16.592-1.355,1.465-3.919,4.249-4.029,5.311a6.658,6.658,0,0,0,.769.623c2.381,1.685,7.179.147,11.977-1.795,8.278-3.3,20.108-2.82,27.909,5.677a10.047,10.047,0,0,0,3.37,2.491c14.028,6.117,18.789,16.848,13.405,30.254a3.224,3.224,0,0,0-.366,1.5c.879,1.135,6.959,1.868,10.255,2.271,5.97.733,12.123,1.465,16.555,4.468,10.365,7,21.939,33.7,15.53,50.948-3.15,8.5-2.527,11.611-2.271,12.307a4.211,4.211,0,0,1-2.564,7.545,4.093,4.093,0,0,1-1.612-.33c-2.564-1.062-7.765-5.347-1.465-22.452,4.8-13-4.468-35.748-12.343-41.058-2.747-1.831-8.131-2.491-12.856-3.077-7.032-.842-13.7-1.685-16.482-6.41-1.465-2.491-1.538-5.457-.183-8.827,3.7-9.23,1.026-15.054-8.974-19.412a19.162,19.162,0,0,1-6.227-4.505c-5.091-5.531-13-5.75-18.57-3.553-6.556,2.6-14.028,5.054-20,.842a9.118,9.118,0,0,1-4.249-6.593c-.476-4.652,3.077-8.5,6.19-11.867,1.392-1.5,3.956-4.285,3.992-5.347-4.871-5.457-15.31-6.227-19.449-6.08C95.083,20.43,73.473,28.78,66.734,39.292l-.586.916-.989.513C60.58,43.138,45.893,62.367,39.447,72c-1.758,2.6-5.164,9.12-8.5,15.42-3.809,7.215-7.728,14.687-10.072,18.167-2.784,4.1-6.593,13.479-9.853,22.525a21.008,21.008,0,0,1,2.014,4.468c1.172,3.26,2.051,5.128,2.857,4.945,2.454-.476,3-1.685,3.956-8.754.806-5.86,1.868-13.881,7.692-21.317,11.684-15.017,22.672-15.676,31.9-14.028a48.7,48.7,0,0,0-.916-7.838c-.623-3.882-1.245-7.545-.879-10.548C59.079,64.052,72.667,48.962,82.739,47.2c4.322-.769,8.021.952,9.926,4.578,3,5.787,6.08,7,6.813,7.215h.147c20.071-.842,41.278-.22,46.149,11.1,1.392,3.223,3.04,4.542,5.347,6.336,3.846,3.04,8.644,6.849,11.794,19.375,2.894,11.427,2.271,19.522-1.831,25.016-2.674,3.589-6.666,5.311-11.464,5.311h-.183c-2.234,0-4.1-1.245-4.212-3.516a4,4,0,0,1,4.029-4.139c2.271-.11,3.956-.769,5.091-2.307,1.428-1.9,3.37-6.739.44-18.387-2.454-9.779-5.567-12.2-8.864-14.8-2.637-2.088-5.6-4.432-7.838-9.56-1.5-3.443-9.267-7.252-38.092-6.043l-.623.037c-.073,0-.11-.037-.183-.037s-.146.037-.22.037c-.806-.037-8.058-.769-13.772-11.757-.33-.293-1.758-.293-4.432,1.282C74.5,60.572,66.88,69.582,66.038,76.139c-.22,1.758.33,5.128.806,8.094,1.062,6.41,2.051,12.49-1.428,15.859a7.219,7.219,0,0,1-6.739,1.721c-6.739-1.282-14.8-1.648-24.467,10.8-4.4,5.64-5.238,11.83-6.007,17.288-.916,6.666-1.941,14.211-10.732,15.9a9.47,9.47,0,0,1-1.978.183c-4.4,0-6.959-3.113-8.571-6.227-.293.733-.586,1.5-.916,2.307C3.516,148,.256,155.948,0,166.643a9.544,9.544,0,0,1,1.831-.4c2.527-.22,6.263.549,9.962,5.457,1.245,1.648,4.322,2.784,7.508,2.71,3.333-.037,6.19-1.282,7.618-3.26,1.282-1.795,2.564-5.164,3.956-8.717,3.992-10.365,10-26.078,25.822-22.415a4.211,4.211,0,1,1-1.9,8.2c-8.058-1.868-11.574,5.6-16.042,17.215-1.575,4.066-3.04,8.937-4.945,11.611-3.04,4.249-8.278,7.8-14.358,7.8h-.256a18.215,18.215,0,0,1-14.028-7.069,9.446,9.446,0,0,0-2.491-2.637,4.027,4.027,0,0,0-1.941,1.465,70.464,70.464,0,0,0,2.893,12.05c1.026,3.187,2.014,6.19,2.93,9.047,0,.037,0,.037.037.073a11.171,11.171,0,0,1,2.71-2.344c2.381-1.428,6.373-2.564,12.05.073a4.162,4.162,0,0,1,2.051,5.567,4.2,4.2,0,0,1-5.567,2.051c-1.9-.879-3.333-1.026-4.249-.476-1.795,1.062-2.82,4.761-3.113,7.069,4.688,13.772,8.241,21.134,14.87,23.221a28.138,28.138,0,0,0,10.988,1.026c4.871-.256,10.439-.549,17.654,4.175,6.959,4.542,19.705.22,28.129-2.637,2.307-.769,4.322-1.465,5.97-1.9,8.607-2.307,20.511-4.249,28.239-.33,1.721.879,7.985,2.491,14.028,4.029,12.783,3.3,22.635,6.007,28.788,9.047a15.848,15.848,0,0,1,3.26-3.846,18.851,18.851,0,0,1,19.925-2.674c2.93,1.282,5.9,2.857,8.79,4.359,8.131,4.322,15.786,8.387,23.954,6.959a33.365,33.365,0,0,1,12.6.366c5.934.989,11.537,1.941,24.576-5.238,10.109-7.655,10.768-8.241,12.416-18.533.733-4.542-.037-5.934-1.062-7.838-1.721-3.15-3-6.3-1.5-12.856a10.018,10.018,0,0,0-1.758-8.827,15.219,15.219,0,0,0-11.318-5.164,4.212,4.212,0,1,1,0-8.424,23.594,23.594,0,0,1,17.91,8.314,18.168,18.168,0,0,1,3.406,15.933c-.916,4.029-.366,5.054.7,6.959,1.319,2.454,3.15,5.824,1.978,13.149-.366,2.234-.733,4.139-1.135,5.824,6.446-4.249,9.413-7.435,8.754-10.439-1.355-6.3,1.648-10.292,3.846-13.112,1.721-2.234,2.527-3.516,2.344-5.347a41.173,41.173,0,0,0-17.691-28.093c-6.922-4.542-12.087-5.64-16.775-9.853h0v.623c-4.8-1.612-9.12-.952-14.358.916-12.673,4.505-28.9-.989-43.439-14.76-6.41-6.043-10.255-6.153-17.251-6.336-1.209-.037-2.454-.073-3.809-.146-1.868-.146-5.6,1.319-9.267,2.637-8.424,3.077-18.863,6.886-27.616,2.784-4.8-2.271-8.351-6.593-10.548-12.856-4.249-12.014-4.578-22.965-4.871-30.949-.183-5.164-.366-10.988-1.868-11.281a4.21,4.21,0,1,1,1.538-8.278c8.131,1.538,8.424,10.146,8.717,19.266.256,7.838.586,17.617,4.4,28.422,1.465,4.139,3.48,6.776,6.19,8.058,5.6,2.637,14.211-.513,21.134-3.077a50.151,50.151,0,0,1,10.585-3.04c14.028-12.783,10.878-21.573,10.732-21.939a4.223,4.223,0,0,1,2.271-5.457,4.166,4.166,0,0,1,5.457,2.088c.22.513,4.8,11.281-7.069,25.565,5.347.549,10.622,2.234,17.1,8.351,9.413,8.9,23.441,16.958,34.8,12.929a29.264,29.264,0,0,1,15.163-1.538c.513-.916,1.135-1.868,1.795-2.967,1.978-3.077,5.6-8.827,4.468-11.281a4.2,4.2,0,0,1,7.618-3.516c2.967,6.41-1.319,13.479-4.688,18.789,7.985-.733,23.258-4.4,27.507-18.277a4.194,4.194,0,1,1,8.021,2.454c-4.249,13.845-16.3,20.145-26.628,22.708,1.721,1.062,3.48,2.2,5.311,3.406a46.116,46.116,0,0,1,10.768,9.889c4.285.4,16.372,1.282,24.979-.659a54.551,54.551,0,0,0,12.05-4.175,43.742,43.742,0,0,1,10.219-3.589c7.692-1.648,20.584-9.853,22.489-18.46,1.1-4.981.256-7.289-.256-8.827a2.6,2.6,0,0,1-.147-.733,13.333,13.333,0,0,1-4.139-2.088c-4.871-3.589-7.875-10.146-9.01-19.522-.7-5.824-2.6-9.962-5.677-12.307a11.718,11.718,0,0,0-7.8-2.2,4.206,4.206,0,0,1-1.282-8.314,19.875,19.875,0,0,1,14.174,3.809c4.981,3.773,7.985,9.816,8.937,17.984,1.392,11.611,5.75,14.724,8.5,14.834C359.673,135.693,363.958,131.335,360.735,120.31ZM218.111,207.262a4.222,4.222,0,0,1,5.934.44c3.37,3.956,8.168,10.365,8.937,15.859a14.83,14.83,0,0,1,11.9,3.956,4.179,4.179,0,0,1,.11,5.934,4.305,4.305,0,0,1-3.04,1.282,4.253,4.253,0,0,1-2.93-1.172c-2.124-2.051-4.835-1.795-7.875-1.282-1.941.33-4.835.806-6.593-1.795-.769-1.135-1.319-3,.147-5.567-.037-1.9-3.333-7.4-7.069-11.757A4.151,4.151,0,0,1,218.111,207.262Zm-98.525-45.2c9.523,10.219,17.764,19.119,26.957,16.958,16.519-3.809,35.052-6.227,47.065,4.505l.073.073c13.442,11.354,11.025,25.968,7.875,32.158a4.167,4.167,0,0,1-3.736,2.271,3.969,3.969,0,0,1-1.9-.476,4.191,4.191,0,0,1-1.831-5.641c.256-.513,5.86-12.2-5.934-22.049-.037,0-.037-.037-.037-.073a.128.128,0,0,0-.073-.037c-9.193-8.2-25.968-5.677-39.557-2.527-6.849,1.575-12.819-.293-18.387-3.956a26.57,26.57,0,0,1-1.868,9.56,10.2,10.2,0,0,1-3.333,3.956c4.432,11.354,19.375,13.222,22.2,13.222h.037a6.108,6.108,0,0,1,4.505,1.941,4.635,4.635,0,0,1-.476,6.263,6.957,6.957,0,0,1-4.4,1.5c-4.908,0-11.354-2.344-11.464-2.381-9.669-3.589-16.226-10.036-18.826-18.313-4.249.037-8.937-.916-13.149-1.758-3.736-.769-8.864-1.795-10.548-1.245-1.319.769-3.113,6.41-3.846,8.864a42.747,42.747,0,0,1-1.941,5.311,16.345,16.345,0,0,0,3.773,15.566,4.246,4.246,0,0,1,.11,5.934,4.305,4.305,0,0,1-3.04,1.282,4.193,4.193,0,0,1-2.893-1.135,24.767,24.767,0,0,1-6.043-23.99c.037-.183.183-.293.22-.476.073-.147.073-.33.147-.476a30.806,30.806,0,0,0,1.612-4.505c1.831-5.9,3.919-12.563,9.23-14.321,3.809-1.282,8.937-.22,14.87.989,5.677,1.172,14.284,2.894,15.6.183,1.245-2.564,1.319-9.34.916-12.966-2.71-2.6-5.384-5.494-8.058-8.387-2.564-2.747-5.164-5.531-7.875-8.241-.659-.659-1.282-1.319-1.868-2.014-2.527,8.387-8.058,18.826-21.756,18.826a39.468,39.468,0,0,1-11.1-2.088c-5.274-1.538-9.853-2.857-14.541-.733a2.784,2.784,0,0,0-1.538,1.758c-1.721,4.725,1.721,14.907,4.285,20.218a4.154,4.154,0,0,1-1.978,5.6,4.041,4.041,0,0,1-1.831.4,4.14,4.14,0,0,1-3.773-2.381c-.842-1.721-8.094-17.178-4.615-26.737a11.291,11.291,0,0,1,6.007-6.556c7.545-3.37,14.321-1.392,20.328.33a32.547,32.547,0,0,0,8.754,1.758c10.182,0,13.332-9.376,15.237-19.522.073-.4.146-.733.22-1.1-3.26-8.278-2.894-16.885-2.527-25.346.147-3.589.33-7.325.22-11.061-.366-12.893-7.985-13.112-8.058-13.112-2.307-.037-4.175-2.6-4.175-4.908.037-2.307,1.9-4.835,4.212-4.835H87.1c5.457,0,15.933,5.2,16.409,21.939.11,4.029-.073,8.241-.22,12.014-.549,12.343-.989,22.269,8.2,31.352C114.238,156.277,116.949,159.244,119.586,162.064Zm213.9-10.548a3.994,3.994,0,0,1-4.212,3.919h0a3.928,3.928,0,0,1-4.175-3.956c0-2.747-.659-3.15-6.007-4.578-4.175-1.135-9.34-2.491-12.783-7.508-10.439-15.237-25.748-16.775-39.3-18.167-12.307-1.245-26.261-2.674-26.151-18.826.11-15.493.11-15.493-12.343-20.914-15.713-6.849-15.42-14.174-14.98-16.262A4.228,4.228,0,0,1,218.551,62a4.175,4.175,0,0,1,3.3,4.432c.147.476,1.428,3.589,10,7.325,15.347,6.666,17.544,8.937,17.4,28.679-.073,7.838,4.505,8.974,18.606,10.4,13.808,1.428,32.744,3.37,45.38,21.793,1.685,2.491,4.652,3.3,8.058,4.212C326.16,140.235,333.522,141.993,333.485,151.516Z" transform="translate(228.896 1668.215)"/>
      <rect id="Rectangle_65" data-name="Rectangle 65" class="cls-2" width="99" height="55" rx="27.5" transform="translate(359 2029)"/>
      <path id="Path_87" data-name="Path 87" class="cls-3" d="M212.226,652.69c-8.424-2.161-13.3-3.443-15.749-4.688-4.066-2.051-12.38-1.721-22.232.952-1.5.4-3.37,1.026-5.457,1.758-10,3.37-25.089,8.461-35.455,1.685a7.763,7.763,0,0,0-.733-.44c3.26,7.435,11.025,19.082,28.605,22.635a189.857,189.857,0,0,0,27.14,3.516c8.241.549,13.662.916,15.6,7.4,1.026,3.48,1.978,5.494,2.893,5.97a3.675,3.675,0,0,0,2.344-.037c1.465-.476,4.615-5.018,6.52-7.728,4.212-6.043,8.131-11.794,13.881-11.574a33.71,33.71,0,0,0,8.351-.769,6.493,6.493,0,0,0,2.6-2.381,9.642,9.642,0,0,0,1.355-6.52C238.414,659.429,220.833,654.888,212.226,652.69Z" transform="translate(139.862 1259.79)"/>
      <path id="Path_88" data-name="Path 88" class="cls-3" d="M567.837,18.591c1.209.879,5.714-.476,9.01-1.428,7.4-2.2,17.508-5.164,26.261,1.355,4.652,3.48,5.714,3.26,7.728,2.857,3.882-.806,8.058-1.135,16.738,3.223,10.292,5.2,14.248,14.138,16.848,20.071.879,2.014,2.088,4.761,2.82,5.238a16.577,16.577,0,0,1,10.988,1.978c2.271-2.527,6.043-5.677,11.171-5.97,6.007-.293,11.757,3.187,17.178,10.512,1.831,2.491,6.666,4.359,11.134,6.007-5.347-9.047-12.087-17.617-20.291-22.159-12.2-6.739-15.786-10.439-18.387-13.149-2.124-2.2-3.406-3.516-9.889-6.117-2.454-.989-5.347-2.161-8.534-3.48C625.707,11.449,600.728,1.23,592.89.315c-4.908-.586-11.647-.293-18.167,0-2.564.11-5.018.22-7.362.256a4.549,4.549,0,0,1-.33,1.209C566.885,1.926,561.062,13.647,567.837,18.591Z" transform="translate(-133.889 1669.625)"/>
      <path id="Path_89" data-name="Path 89" class="cls-3" d="M360.735,120.31a173.677,173.677,0,0,1-4.029-16.995c-.7-3.663-1.172-6.117-2.051-7.911-.366-.769-.952-2.307-1.795-4.432-1.428-3.773-3.7-9.706-6.739-16.226-1.721-1.245-5.9-2.784-8.351-3.7-5.75-2.124-12.307-4.542-15.749-9.193-2.491-3.37-6.19-7.325-9.926-7.106-2.161.11-3.992,1.612-5.2,2.967a22.347,22.347,0,0,1,3.443,5.86c3.15,8.314.476,16.409-7.032,21.17a27.65,27.65,0,0,1-14.724,3.992c-10,0-21.829-4.578-32.671-16.189a4.2,4.2,0,0,1,6.153-5.714C275.212,80.9,290.485,82.914,298.8,77.64c5.531-3.516,4.688-8.461,3.663-11.1-1.758-4.578-6.629-8.864-11.9-7.985-6.666,1.1-9.413-5.091-11.611-10.072-2.381-5.384-5.348-12.123-12.966-15.969-6.776-3.443-9.047-2.967-11.244-2.491-3.992.806-7.325.989-14.467-4.359-5.384-4.029-12.233-1.978-18.826-.037-6.08,1.795-11.83,3.48-16.372.147-10.036-7.325-6.446-19.925-4.4-25.089-3.3-.33-8.937.659-13.955,1.575-5.494.989-10.732,1.941-14.5,1.575-1.026-.11-2.2-.22-3.48-.366a113.212,113.212,0,0,0-21.207-.806,34.068,34.068,0,0,1,8.644,10.878c.11.183.183.366.293.513,1.245.33,2.6-.147,5.054-1.172,3.333-1.392,7.838-3.26,12.783-.183,4.322,2.674,5.238,6.739,6.007,9.962.733,3.223,1.282,5.531,4.542,7.545,2.674,1.648,4.945,4.139,7.325,6.776,6.666,7.325,13.588,14.87,30.913,9.083a4.187,4.187,0,1,1,2.637,7.948,43.817,43.817,0,0,1-13.772,2.454c-13.369,0-20.731-8.058-26.041-13.881a31.153,31.153,0,0,0-5.531-5.274c-6.227-3.846-7.4-9.01-8.278-12.783-.659-2.893-1.026-3.956-2.271-4.725-1.1-.7-2.088-.44-5.091.806-3.3,1.355-7.838,3.26-12.966.513-1.465-.769-2.088-1.978-3-3.663-2.014-3.736-5.75-10.548-16.335-12.856-7.325,1.538-11.867,3.516-15.017,5.457,5.018,1.135,10.512,3.406,14.321,7.728,5.494,6.227-.476,12.709-4.029,16.592-1.355,1.465-3.919,4.249-4.029,5.311a6.658,6.658,0,0,0,.769.623c2.381,1.685,7.179.147,11.977-1.795,8.278-3.3,20.108-2.82,27.909,5.677a10.047,10.047,0,0,0,3.37,2.491c14.028,6.117,18.789,16.848,13.405,30.254a3.224,3.224,0,0,0-.366,1.5c.879,1.135,6.959,1.868,10.255,2.271,5.97.733,12.123,1.465,16.555,4.468,10.365,7,21.939,33.7,15.53,50.948-3.15,8.5-2.527,11.611-2.271,12.307a4.211,4.211,0,0,1-2.564,7.545,4.093,4.093,0,0,1-1.612-.33c-2.564-1.062-7.765-5.347-1.465-22.452,4.8-13-4.468-35.748-12.343-41.058-2.747-1.831-8.131-2.491-12.856-3.077-7.032-.842-13.7-1.685-16.482-6.41-1.465-2.491-1.538-5.457-.183-8.827,3.7-9.23,1.026-15.054-8.974-19.412a19.162,19.162,0,0,1-6.227-4.505c-5.091-5.531-13-5.75-18.57-3.553-6.556,2.6-14.028,5.054-20,.842a9.118,9.118,0,0,1-4.249-6.593c-.476-4.652,3.077-8.5,6.19-11.867,1.392-1.5,3.956-4.285,3.992-5.347-4.871-5.457-15.31-6.227-19.449-6.08C95.083,20.43,73.473,28.78,66.734,39.292l-.586.916-.989.513C60.58,43.138,45.893,62.367,39.447,72c-1.758,2.6-5.164,9.12-8.5,15.42-3.809,7.215-7.728,14.687-10.072,18.167-2.784,4.1-6.593,13.479-9.853,22.525a21.008,21.008,0,0,1,2.014,4.468c1.172,3.26,2.051,5.128,2.857,4.945,2.454-.476,3-1.685,3.956-8.754.806-5.86,1.868-13.881,7.692-21.317,11.684-15.017,22.672-15.676,31.9-14.028a48.7,48.7,0,0,0-.916-7.838c-.623-3.882-1.245-7.545-.879-10.548C59.079,64.052,72.667,48.962,82.739,47.2c4.322-.769,8.021.952,9.926,4.578,3,5.787,6.08,7,6.813,7.215h.147c20.071-.842,41.278-.22,46.149,11.1,1.392,3.223,3.04,4.542,5.347,6.336,3.846,3.04,8.644,6.849,11.794,19.375,2.894,11.427,2.271,19.522-1.831,25.016-2.674,3.589-6.666,5.311-11.464,5.311h-.183c-2.234,0-4.1-1.245-4.212-3.516a4,4,0,0,1,4.029-4.139c2.271-.11,3.956-.769,5.091-2.307,1.428-1.9,3.37-6.739.44-18.387-2.454-9.779-5.567-12.2-8.864-14.8-2.637-2.088-5.6-4.432-7.838-9.56-1.5-3.443-9.267-7.252-38.092-6.043l-.623.037c-.073,0-.11-.037-.183-.037s-.146.037-.22.037c-.806-.037-8.058-.769-13.772-11.757-.33-.293-1.758-.293-4.432,1.282C74.5,60.572,66.88,69.582,66.038,76.139c-.22,1.758.33,5.128.806,8.094,1.062,6.41,2.051,12.49-1.428,15.859a7.219,7.219,0,0,1-6.739,1.721c-6.739-1.282-14.8-1.648-24.467,10.8-4.4,5.64-5.238,11.83-6.007,17.288-.916,6.666-1.941,14.211-10.732,15.9a9.47,9.47,0,0,1-1.978.183c-4.4,0-6.959-3.113-8.571-6.227-.293.733-.586,1.5-.916,2.307C3.516,148,.256,155.948,0,166.643a9.544,9.544,0,0,1,1.831-.4c2.527-.22,6.263.549,9.962,5.457,1.245,1.648,4.322,2.784,7.508,2.71,3.333-.037,6.19-1.282,7.618-3.26,1.282-1.795,2.564-5.164,3.956-8.717,3.992-10.365,10-26.078,25.822-22.415a4.211,4.211,0,1,1-1.9,8.2c-8.058-1.868-11.574,5.6-16.042,17.215-1.575,4.066-3.04,8.937-4.945,11.611-3.04,4.249-8.278,7.8-14.358,7.8h-.256a18.215,18.215,0,0,1-14.028-7.069,9.446,9.446,0,0,0-2.491-2.637,4.027,4.027,0,0,0-1.941,1.465,70.464,70.464,0,0,0,2.893,12.05c1.026,3.187,2.014,6.19,2.93,9.047,0,.037,0,.037.037.073a11.171,11.171,0,0,1,2.71-2.344c2.381-1.428,6.373-2.564,12.05.073a4.162,4.162,0,0,1,2.051,5.567,4.2,4.2,0,0,1-5.567,2.051c-1.9-.879-3.333-1.026-4.249-.476-1.795,1.062-2.82,4.761-3.113,7.069,4.688,13.772,8.241,21.134,14.87,23.221a28.138,28.138,0,0,0,10.988,1.026c4.871-.256,10.439-.549,17.654,4.175,6.959,4.542,19.705.22,28.129-2.637,2.307-.769,4.322-1.465,5.97-1.9,8.607-2.307,20.511-4.249,28.239-.33,1.721.879,7.985,2.491,14.028,4.029,12.783,3.3,22.635,6.007,28.788,9.047a15.848,15.848,0,0,1,3.26-3.846,18.851,18.851,0,0,1,19.925-2.674c2.93,1.282,5.9,2.857,8.79,4.359,8.131,4.322,15.786,8.387,23.954,6.959a33.365,33.365,0,0,1,12.6.366c5.934.989,11.537,1.941,24.576-5.238,10.109-7.655,10.768-8.241,12.416-18.533.733-4.542-.037-5.934-1.062-7.838-1.721-3.15-3-6.3-1.5-12.856a10.018,10.018,0,0,0-1.758-8.827,15.219,15.219,0,0,0-11.318-5.164,4.212,4.212,0,1,1,0-8.424,23.594,23.594,0,0,1,17.91,8.314,18.168,18.168,0,0,1,3.406,15.933c-.916,4.029-.366,5.054.7,6.959,1.319,2.454,3.15,5.824,1.978,13.149-.366,2.234-.733,4.139-1.135,5.824,6.446-4.249,9.413-7.435,8.754-10.439-1.355-6.3,1.648-10.292,3.846-13.112,1.721-2.234,2.527-3.516,2.344-5.347a41.173,41.173,0,0,0-17.691-28.093c-6.922-4.542-12.087-5.64-16.775-9.853h0v.623c-4.8-1.612-9.12-.952-14.358.916-12.673,4.505-28.9-.989-43.439-14.76-6.41-6.043-10.255-6.153-17.251-6.336-1.209-.037-2.454-.073-3.809-.146-1.868-.146-5.6,1.319-9.267,2.637-8.424,3.077-18.863,6.886-27.616,2.784-4.8-2.271-8.351-6.593-10.548-12.856-4.249-12.014-4.578-22.965-4.871-30.949-.183-5.164-.366-10.988-1.868-11.281a4.21,4.21,0,1,1,1.538-8.278c8.131,1.538,8.424,10.146,8.717,19.266.256,7.838.586,17.617,4.4,28.422,1.465,4.139,3.48,6.776,6.19,8.058,5.6,2.637,14.211-.513,21.134-3.077a50.151,50.151,0,0,1,10.585-3.04c14.028-12.783,10.878-21.573,10.732-21.939a4.223,4.223,0,0,1,2.271-5.457,4.166,4.166,0,0,1,5.457,2.088c.22.513,4.8,11.281-7.069,25.565,5.347.549,10.622,2.234,17.1,8.351,9.413,8.9,23.441,16.958,34.8,12.929a29.264,29.264,0,0,1,15.163-1.538c.513-.916,1.135-1.868,1.795-2.967,1.978-3.077,5.6-8.827,4.468-11.281a4.2,4.2,0,0,1,7.618-3.516c2.967,6.41-1.319,13.479-4.688,18.789,7.985-.733,23.258-4.4,27.507-18.277a4.194,4.194,0,1,1,8.021,2.454c-4.249,13.845-16.3,20.145-26.628,22.708,1.721,1.062,3.48,2.2,5.311,3.406a46.116,46.116,0,0,1,10.768,9.889c4.285.4,16.372,1.282,24.979-.659a54.551,54.551,0,0,0,12.05-4.175,43.742,43.742,0,0,1,10.219-3.589c7.692-1.648,20.584-9.853,22.489-18.46,1.1-4.981.256-7.289-.256-8.827a2.6,2.6,0,0,1-.147-.733,13.333,13.333,0,0,1-4.139-2.088c-4.871-3.589-7.875-10.146-9.01-19.522-.7-5.824-2.6-9.962-5.677-12.307a11.718,11.718,0,0,0-7.8-2.2,4.206,4.206,0,0,1-1.282-8.314,19.875,19.875,0,0,1,14.174,3.809c4.981,3.773,7.985,9.816,8.937,17.984,1.392,11.611,5.75,14.724,8.5,14.834C359.673,135.693,363.958,131.335,360.735,120.31ZM218.111,207.262a4.222,4.222,0,0,1,5.934.44c3.37,3.956,8.168,10.365,8.937,15.859a14.83,14.83,0,0,1,11.9,3.956,4.179,4.179,0,0,1,.11,5.934,4.305,4.305,0,0,1-3.04,1.282,4.253,4.253,0,0,1-2.93-1.172c-2.124-2.051-4.835-1.795-7.875-1.282-1.941.33-4.835.806-6.593-1.795-.769-1.135-1.319-3,.147-5.567-.037-1.9-3.333-7.4-7.069-11.757A4.151,4.151,0,0,1,218.111,207.262Zm-98.525-45.2c9.523,10.219,17.764,19.119,26.957,16.958,16.519-3.809,35.052-6.227,47.065,4.505l.073.073c13.442,11.354,11.025,25.968,7.875,32.158a4.167,4.167,0,0,1-3.736,2.271,3.969,3.969,0,0,1-1.9-.476,4.191,4.191,0,0,1-1.831-5.641c.256-.513,5.86-12.2-5.934-22.049-.037,0-.037-.037-.037-.073a.128.128,0,0,0-.073-.037c-9.193-8.2-25.968-5.677-39.557-2.527-6.849,1.575-12.819-.293-18.387-3.956a26.57,26.57,0,0,1-1.868,9.56,10.2,10.2,0,0,1-3.333,3.956c4.432,11.354,19.375,13.222,22.2,13.222h.037a6.108,6.108,0,0,1,4.505,1.941,4.635,4.635,0,0,1-.476,6.263,6.957,6.957,0,0,1-4.4,1.5c-4.908,0-11.354-2.344-11.464-2.381-9.669-3.589-16.226-10.036-18.826-18.313-4.249.037-8.937-.916-13.149-1.758-3.736-.769-8.864-1.795-10.548-1.245-1.319.769-3.113,6.41-3.846,8.864a42.747,42.747,0,0,1-1.941,5.311,16.345,16.345,0,0,0,3.773,15.566,4.246,4.246,0,0,1,.11,5.934,4.305,4.305,0,0,1-3.04,1.282,4.193,4.193,0,0,1-2.893-1.135,24.767,24.767,0,0,1-6.043-23.99c.037-.183.183-.293.22-.476.073-.147.073-.33.147-.476a30.806,30.806,0,0,0,1.612-4.505c1.831-5.9,3.919-12.563,9.23-14.321,3.809-1.282,8.937-.22,14.87.989,5.677,1.172,14.284,2.894,15.6.183,1.245-2.564,1.319-9.34.916-12.966-2.71-2.6-5.384-5.494-8.058-8.387-2.564-2.747-5.164-5.531-7.875-8.241-.659-.659-1.282-1.319-1.868-2.014-2.527,8.387-8.058,18.826-21.756,18.826a39.468,39.468,0,0,1-11.1-2.088c-5.274-1.538-9.853-2.857-14.541-.733a2.784,2.784,0,0,0-1.538,1.758c-1.721,4.725,1.721,14.907,4.285,20.218a4.154,4.154,0,0,1-1.978,5.6,4.041,4.041,0,0,1-1.831.4,4.14,4.14,0,0,1-3.773-2.381c-.842-1.721-8.094-17.178-4.615-26.737a11.291,11.291,0,0,1,6.007-6.556c7.545-3.37,14.321-1.392,20.328.33a32.547,32.547,0,0,0,8.754,1.758c10.182,0,13.332-9.376,15.237-19.522.073-.4.146-.733.22-1.1-3.26-8.278-2.894-16.885-2.527-25.346.147-3.589.33-7.325.22-11.061-.366-12.893-7.985-13.112-8.058-13.112-2.307-.037-4.175-2.6-4.175-4.908.037-2.307,1.9-4.835,4.212-4.835H87.1c5.457,0,15.933,5.2,16.409,21.939.11,4.029-.073,8.241-.22,12.014-.549,12.343-.989,22.269,8.2,31.352C114.238,156.277,116.949,159.244,119.586,162.064Zm213.9-10.548a3.994,3.994,0,0,1-4.212,3.919h0a3.928,3.928,0,0,1-4.175-3.956c0-2.747-.659-3.15-6.007-4.578-4.175-1.135-9.34-2.491-12.783-7.508-10.439-15.237-25.748-16.775-39.3-18.167-12.307-1.245-26.261-2.674-26.151-18.826.11-15.493.11-15.493-12.343-20.914-15.713-6.849-15.42-14.174-14.98-16.262A4.228,4.228,0,0,1,218.551,62a4.175,4.175,0,0,1,3.3,4.432c.147.476,1.428,3.589,10,7.325,15.347,6.666,17.544,8.937,17.4,28.679-.073,7.838,4.505,8.974,18.606,10.4,13.808,1.428,32.744,3.37,45.38,21.793,1.685,2.491,4.652,3.3,8.058,4.212C326.16,140.235,333.522,141.993,333.485,151.516Z" transform="translate(223.896 1669.215)"/>
      <g id="Group_66" data-name="Group 66" transform="translate(306.974 1982.011)">
        <path id="Path_91-2" data-name="Path 91" d="M3.712,33.463C5.9,37.4,9.618,40.9,15.085,43.962c16.4-10.5,46.367-15.091,85.3-15.091s68.895,4.593,85.3,15.091c5.468-3.062,9.186-6.561,11.373-10.5a10.4,10.4,0,0,1,1.312-3.062h0c0-18.809-43.743-30.4-97.984-30.4S2.4,11.592,2.4,30.4h0A25.006,25.006,0,0,1,3.712,33.463Z" transform="translate(2.81)"/>
        <path id="Path_92-2" data-name="Path 92" d="M206.209,15.2h0c-.656.656-.656,1.75-1.094,2.406-9.842,19.466-47.68,27.558-101.921,27.558S11.116,37.071,1.273,17.606C.836,16.731,1.055,15.856.18,15.2h0c-.656,0,1.094,14.873,1.094,18.153A96.964,96.964,0,0,1,.18,43.633c0,18.809,46.149,30.4,103.014,30.4s103.014-11.592,103.014-30.4a90.172,90.172,0,0,1-1.094-10.28C205.115,30.073,206.865,15.2,206.209,15.2Z" transform="translate(0 18.045)"/>
      </g>
      <rect id="Rectangle_64" data-name="Rectangle 64" width="99" height="55" rx="27.5" transform="translate(359 2029)"/>
      <text id="WSAB" class="cls-4" transform="translate(369 2045)"><tspan x="15.924" y="21">WSAB</tspan></text>
    </g>
  </g>
</svg>
