<svg xmlns="http://www.w3.org/2000/svg" viewBox="5854.6 12176 77.2 77.2">
  <defs>
    <style>
      .cls-1 {
        fill: #f5fbff;
      }
    </style>
  </defs>
  <path id="twitter" class="cls-1" d="M176.8,62.7a14.51,14.51,0,0,1-14.5,14.5H114.1A14.51,14.51,0,0,1,99.6,62.7V14.5A14.51,14.51,0,0,1,114.1,0h48.2a14.51,14.51,0,0,1,14.5,14.5Zm-19-36.8a10.638,10.638,0,0,0,4.7-5.9,22.763,22.763,0,0,1-6.7,2.6,10.338,10.338,0,0,0-7.7-3.3,10.5,10.5,0,0,0-10.5,10.5,6.344,6.344,0,0,0,.3,2.4,30.133,30.133,0,0,1-21.8-11,10.849,10.849,0,0,0-1.5,5.3,10.291,10.291,0,0,0,4.6,8.8,14.217,14.217,0,0,1-5-1.3v.1a10.7,10.7,0,0,0,8.7,10.3,7.457,7.457,0,0,1-2.6.4,13.552,13.552,0,0,1-2-.2,10.548,10.548,0,0,0,9.8,7.3A21.183,21.183,0,0,1,115,56.4a19.481,19.481,0,0,1-2.5-.2,29.84,29.84,0,0,0,16.2,4.7c19.4,0,30-16.1,30-30V29.5A19.833,19.833,0,0,0,164,24,17.175,17.175,0,0,1,157.8,25.9Z" transform="translate(5755 12176)"/>
</svg>
