<svg xmlns="http://www.w3.org/2000/svg" viewBox="9395.896 3551.491 485.214 443.3">
  <defs>
    <style>
      .cls-1 {
        fill: #e31041;
      }

      .cls-2 {
        fill: #1c1c1c;
      }
    </style>
  </defs>
  <g id="wall" transform="translate(9169 -52)">
    <path id="Path_709" data-name="Path 709" class="cls-1" d="M310.063,356.522c3.03,1.515,6.06.5,8.585,1.01,3.535.5,6.565,1.01,8.585,4.545,1.01,2.02,3.03,2.02,5.05,2.02,5.555-1.01,11.11-2.02,16.665-1.515,1.01,0,3.03-.5,3.535,2.02-5.555,1.01-11.11.5-16.16,2.02a11.119,11.119,0,0,1-4.04.5c-2.02.5-4.04,0-4.545,3.03,0,2.525.5,4.545,2.525,6.06,5.05,3.535,11.11,4.545,16.665,4.545,2.525,0,4.04,0,6.06,1.515s4.04,1.515,6.565,2.02c6.565,1.515,12.12,5.05,17.675,9.595-3.03,2.02-4.545.5-6.565-1.01a30.48,30.48,0,0,0-13.13-5.555c-3.03-.5-4.04.5-4.04,3.535-.505,5.05,1.01,9.09,5.05,12.12,1.515,1.01,4.04,1.515,4.545,4.04-5.555.5-10.6-3.535-12.12-9.09a24.586,24.586,0,0,1-.505-6.06c0-6.06,0-6.06-6.565-7.575-3.535-1.01-7.575-1.515-11.11-3.03-6.565-2.02-8.585-5.05-8.08-12.12.5-6.565-1.01-8.08-7.07-8.08-9.595-.5-18.685-1.515-28.279-2.02-10.6-.5-20.7,2.525-30.3,6.565-4.545,2.02-6.06,6.06-8.08,9.595,0,.5-.5,1.01,0,1.515,4.545,12.12,1.01,25.249,2.02,37.874v.5c0,6.06,2.525,10.6,8.585,12.12a44.53,44.53,0,0,1,10.1,4.545c1.01.5,2.02,1.01,1.515,3.535-6.565-2.02-13.635-4.04-19.19-8.08-2.525-2.02-3.535-5.555-4.04-9.09-1.01-7.07-.5-14.645-.5-21.715v-13.13c0-2.525-1.01-4.04-4.04-3.535-8.08,1.515-14.14-2.525-19.695-7.07-5.555-5.05-11.11-6.565-18.18-4.545-5.05,2.02-10.1,1.515-15.655,1.01-5.555,0-11.11,0-16.16,1.515-4.04,1.515-7.575,0-11.11-2.02-7.07-4.545-13.13-10.1-16.665-18.18-2.525-6.06-6.565-10.1-13.13-11.615a17.937,17.937,0,0,1-4.545-2.02c-10.1-7.575-22.219-9.09-33.329-12.625-3.03-1.01-4.04.505-5.05,3.03-2.02,4.545-4.04,8.585-5.555,13.13-1.01,2.02-2.02,3.535-5.05,4.04-4.04.5-7.07,3.03-10.1,5.555-2.525,1.515-3.535,4.04-4.04,7.07-1.515,7.07,0,14.645.5,21.715,0,1.01.5,1.515.5,2.525,0,.5-.5,1.01-1.01,1.515-1.01.5-2.02,0-2.02-1.01-1.515-9.595-2.02-18.685-.5-28.279.5-3.03,3.535-4.04,5.555-5.555a4.148,4.148,0,0,0,2.525-2.525c-.5-2.02-2.02-1.515-3.535-1.515-5.555.5-11.11.5-16.665,2.02-5.05,1.01-9.09,4.04-10.1,9.09-4.04,17.17-15.655,27.269-30.3,34.844-3.535,2.02-6.565,5.05-12.12,6.06,1.515-4.04,4.04-4.545,6.565-6.06,9.09-4.545,16.665-9.595,23.229-16.16,4.545-4.545,7.07-10.1,8.585-16.16a22.311,22.311,0,0,1,3.03-8.08c2.02-3.03,4.545-5.555,8.585-6.06a148.332,148.332,0,0,1,25.754-2.525c5.05,0,8.585-1.515,10.1-6.565,1.01-3.03,2.525-5.555,3.535-8.08a13.446,13.446,0,0,0,1.515-6.06c-1.515-9.09,0-18.685-3.03-27.774-1.01-3.535-.5-7.07-.5-10.6.5-7.575-4.545-15.15-11.615-17.17-4.545-1.01-9.09-1.515-13.13-2.525-7.07-1.515-7.575-3.535-5.555-10.6,2.525-7.07,8.585-11.615,12.625-17.675,4.04-6.565,8.08-13.13,9.595-20.7,1.01-7.07,5.05-13.635,7.575-20.2,3.535-9.09,4.04-18.18,1.01-27.269,0-.5-.5-1.01-.5-1.515.5-9.09-6.06-14.14-13.13-18.18a20.491,20.491,0,0,1-10.6-15.655c-.5-4.545-3.03-9.09-2.525-13.635,2.02-.5,2.525.5,2.525,1.515.5,4.545,2.525,8.585,3.535,13.13,1.515,5.05,4.04,8.585,8.08,11.11a50.409,50.409,0,0,1,12.12,11.11c1.515,2.02,3.535,3.03,5.555.505,2.02-2.02,4.04-2.02,6.565-2.525,8.585-.5,17.675-1.515,25.249-6.06a16.053,16.053,0,0,0,6.06-5.555c2.02-2.525,4.04-5.05,7.07-6.06,5.555-2.525,7.07-7.07,7.575-12.12,1.01-7.07,2.525-13.635,3.03-20.7.5-5.555-3.03-9.595-6.06-13.13a52.573,52.573,0,0,0-12.625-11.11c-8.585-5.555-10.6-10.1-8.585-19.695,1.515-7.575,3.03-14.645,4.04-22.219,0-1.01,0-2.525,1.515-2.525,2.02,0,1.515,2.02,1.515,3.03a138.423,138.423,0,0,1-2.525,14.14c-.5,3.535-1.515,7.07-1.515,10.6-.5,6.565,1.515,11.615,8.585,14.645,2.525-7.575,5.555-14.645,11.615-19.19.505.5,1.01.5,1.515,1.01-2.02,3.535-4.04,7.07-6.06,11.11-2.525,5.05-3.535,10.1,1.515,14.645a41.019,41.019,0,0,1,9.595,14.645c1.01,2.525,2.02,2.525,4.04,1.515,10.1-3.535,20.7-6.565,31.814-7.07,5.555-.5,7.575-5.05,4.545-9.595a50.463,50.463,0,0,1-4.04-7.07c-2.02-4.04-1.01-7.575,2.02-10.6a62.507,62.507,0,0,1,9.09-7.07c4.545-3.03,4.545-5.05,1.01-9.09-2.02-1.515-3.535-3.535-5.555-5.05-3.535-2.02-3.535-4.545-3.535-8.08.5-5.05,1.515-9.595.5-14.645s-2.02-9.595-5.05-13.635c-.5-1.01-1.515-2.02,0-3.03,1.01-1.01,2.02,0,2.525,1.01,1.515,2.525,2.525,5.05,4.04,8.08.5,1.515,2.02,2.02,3.03,1.01a55.128,55.128,0,0,0,8.585-6.565c2.02-2.02.5-5.05,1.515-7.07,3.535,3.03,4.04,6.565,1.01,9.595A9.083,9.083,0,0,1,202,12.625q-9.09,3.787-7.575,13.635v2.525c-1.515,6.565-1.515,12.625,6.06,15.655,2.525,1.01,3.535,4.545,4.545,7.07,11.11-6.565,11.615-12.625,9.595-20.2A80.723,80.723,0,0,1,212.1,20.7c-1.01-5.555,1.515-9.595,7.07-12.12,1.01-.5,2.02-.5,2.525.5a1.845,1.845,0,0,1-1.01,2.525c-7.07,3.535-5.555,9.09-4.04,14.645a33.948,33.948,0,0,1,2.02,12.12c-.5,6.565-4.545,11.615-9.595,15.655-4.545,3.535-9.595,6.565-14.14,9.595-6.565,5.05-7.07,7.575-2.525,14.14,3.03,4.545,5.05,9.09.5,14.14-2.02,2.525-1.01,4.545,1.515,6.565,4.04,3.03,8.585,6.06,12.625,9.09,2.02,1.515,4.04.5,5.555-.5,7.575-5.555,17.17-6.565,25.754-10.1,2.525-1.01,6.06-.5,8.585,0,4.04.5,6.565-.5,9.09-4.04,2.02-3.535,3.535-6.565,5.555-10.1a53.113,53.113,0,0,1,10.1-13.635c3.535-3.535,4.545-3.03,9.09-.5,4.04,2.525,4.545,2.525,6.565-2.525,1.515-3.535,3.535-6.06,7.575-7.575,5.555-2.02,9.595-7.07,15.15-10.6,2.02-1.01,3.535-2.525,5.555-3.03,1.01,2.525-1.01,3.535-2.02,4.545-6.06,5.05-11.615,10.1-18.685,13.13-2.525,1.01-3.535,3.535-4.545,5.555-2.525,5.555-4.545,6.06-10.1,3.535-5.05-2.525-6.06-2.02-9.595,2.02a33.615,33.615,0,0,0-6.06,10.1c-1.515,4.04-3.535,7.07-5.555,10.6-2.525,4.545-6.06,6.565-11.11,5.05a14.072,14.072,0,0,0-5.05-.5c2.02,3.535,3.03,6.565,4.545,9.595,1.515,3.535,3.535,6.06,7.07,7.575,6.565,3.03,10.1,8.08,11.11,15.15.5,3.535,2.02,6.06,5.05,7.575,4.04,2.02,6.565,5.555,9.09,9.09a10.28,10.28,0,0,0,9.595,5.555c3.535,0,7.07,1.515,10.6,2.525,3.03,1.01,3.535,3.03,2.02,6.06a50.674,50.674,0,0,1-14.14,15.15c-6.565,4.545-7.07,4.545-5.05,12.625,2.02,8.585,3.535,16.665,3.535,25.249,0,7.07-2.525,11.615-8.08,15.15a85.672,85.672,0,0,0-7.07,5.05c-1.01,1.01-2.02,2.02-1.515,3.535a3.364,3.364,0,0,0,3.535,2.525h.505c11.615.5,23.734-8.585,23.734-19.695,0-8.585,4.545-12.12,11.615-14.14a44.768,44.768,0,0,0,8.585-4.04c2.525-1.515,4.545-2.525,4.545-6.565,0-3.535,3.03-5.555,6.06-7.575,2.02-1.01,4.04-1.01,5.555.5,3.03,3.535,7.07,6.06,9.09,10.1,2.02,3.03,3.03,6.565,8.08,4.04,1.01-.5,2.525.5,3.535,2.02,5.555,7.07,12.625,13.13,18.685,19.695,2.525,3.03,5.05,6.565,7.575,9.595,4.04,5.05,9.595,6.06,15.15,2.525,5.05-3.03,10.6-5.555,17.17-6.06,9.09-1.515,17.675-5.05,24.239-12.625a11.039,11.039,0,0,1,2.525-1.515c2.02,2.525-1.515,3.535-1.515,4.545,7.07,9.09,15.655,9.595,25.249,7.575,3.535-1.01,7.575-.5,11.615-1.01.505,0,1.01.5,2.02.5,0,2.02-1.515,2.02-3.03,2.02a56.312,56.312,0,0,0-15.655,2.525c-6.06,1.515-11.615.5-16.16-3.535a9.3,9.3,0,0,0-10.1-1.515c-2.525,1.01-5.05,1.515-7.575,3.03a44.338,44.338,0,0,1-11.615,3.535c-7.07.5-13.13,3.03-17.675,9.09-1.01,1.515-3.03,2.525-4.545,3.535-2.525,2.02-5.05,3.535-7.07,6.06-2.02,3.03-3.03,5.555-1.01,8.585s3.03,6.565,4.04,10.1c1.01,2.525,0,4.545-3.03,5.05s-6.06,1.515-9.09,2.02a8.3,8.3,0,0,0-6.06,4.04,62.337,62.337,0,0,0-8.08,21.715v2.525c.5,2.525,2.02,5.05-.5,7.07s-5.05,3.535-8.585,3.535c-5.05-.505-10.1.5-14.645,1.515-7.575,2.02-13.13,6.565-19.19,11.11-1.01.505-1.515,2.02-2.02,3.03C313.6,342.887,312.083,349.452,310.063,356.522Zm-67.668-200.48h0v-17.17c0-5.05,0-5.05-5.555-5.05-13.635,0-27.774,1.01-41.409.5-10.6-.5-21.21.5-31.814.5-3.03,0-4.545,1.515-4.04,4.545v8.585c0,8.585-.5,17.675,2.02,26.259,1.515,5.555,1.01,5.555,7.07,5.555,16.16.5,31.814-1.515,47.974-2.02,7.575-.5,15.15-.5,22.22-1.01,3.03,0,4.04-1.01,4.04-4.04C241.889,167.151,242.394,161.6,242.394,156.041ZM162.1,305.518h8.585c9.09,0,18.685-.5,27.774-.5,2.525,0,4.545-.505,4.545-3.535-.5-10.6.5-21.21-1.01-31.814-.5-4.545-.5-5.05-5.05-5.05-11.615.5-23.229-1.01-34.339,3.03h-2.02c-6.565-2.02-13.635-1.515-20.2-.505a149.16,149.16,0,0,1-21.21,1.01c-4.545,0-5.05.5-5.555,5.05,0,9.09,0,18.18.5,27.269,0,4.04,1.515,5.05,6.06,4.545,12.12-1.515,23.734-.5,35.854.505A12.126,12.126,0,0,1,162.1,305.518ZM109.582,222.7a96.161,96.161,0,0,0,17.17-.5c10.1-1.515,19.695-1.01,29.794-1.01,12.12,0,23.734.5,35.854.5,5.555,0,7.07-1.515,6.06-7.07-1.515-7.575-.5-14.645,0-22.219,0-8.585,2.02-9.09-9.09-8.585h-.5a105.561,105.561,0,0,1-25.249,0c-16.16-1.01-32.824-.5-48.984-.5-2.02,0-3.03.5-4.04,3.03-3.03,8.08-2.02,16.665-3.03,25.249a7.177,7.177,0,0,0,1.01,3.03C109.582,217.145,110.592,219.67,109.582,222.7Zm51,10.6h0a8.594,8.594,0,0,1-.5-3.535c.5-3.535-.5-5.05-4.04-5.05-8.585,0-17.675-1.01-26.259.5-5.05,1.01-10.6.5-15.655,1.01-9.595.5-19.19,1.01-29.289,1.01-4.545,0-8.08,1.01-10.6,5.555-2.02,4.04-5.555,7.07-8.585,10.6-1.515,2.02-3.03,4.545-4.545,7.07-3.03,7.07-2.525,7.575,5.05,8.585,5.05.5,10.1,1.01,14.14,3.535,3.535,2.525,7.575,2.525,11.615,2.525,8.585-.5,17.17-1.515,25.754-1.515,12.12,0,24.239-1.515,36.359-2.02a3.19,3.19,0,0,0,3.535-3.535A206.822,206.822,0,0,0,160.586,233.3Zm101.5,70.7h22.724c2.02,0,4.04,0,4.04-3.03-.5-10.1.5-20.2-.5-30.3-.5-3.535-1.515-4.545-5.05-4.545-6.565,0-12.625.5-19.19,0-17.17-.5-34.339-1.01-51.509-.5-6.06,0-6.565,0-6.565,6.565v27.774c0,3.535,1.515,5.05,5.555,5.555a81.2,81.2,0,0,0,15.655.5C238.354,304,248.454,305.013,262.089,304Zm20.2-81.3a33.519,33.519,0,0,0,.505-6.565c1.515-11.11-3.535-20.7-5.05-31.309-.5-2.525-2.02-3.03-4.545-3.535h-10.6c-18.685-1.515-36.864.5-55.549.5-3.03,0-4.545,1.01-4.545,4.545,0,9.09-2.02,18.18,0,27.774,1.515,7.575,1.01,7.575,9.09,8.08h2.525c19.19-1.515,38.884-1.01,58.074-1.01C275.219,221.185,278.754,220.68,282.288,222.7Zm-90.9,2.525H171.7c-6.565,0-6.565-.5-7.07,6.565,0,1.515-.5,2.525-.5,4.04-1.01,7.575-2.02,14.645-1.515,22.219,0,3.03,1.01,4.04,4.04,4.04,3.535-.5,6.565,0,10.1-.5a195.676,195.676,0,0,1,29.794-.5c12.12,1.01,24.239.5,36.864.5,2.02,0,3.535-1.01,3.03-3.535-1.01-4.04-.5-7.575-.5-11.615,0-6.06.5-11.615,0-17.675,0-3.03-1.01-4.545-4.545-4.04A412.884,412.884,0,0,1,191.391,225.225Zm131.3,39.389c-4.04,1.01-7.575.5-11.615.5-4.545,0-9.595.505-14.14.505-2.525,0-4.04,1.01-4.04,4.04,0,9.595-.5,19.19,0,28.279,0,5.05,1.515,5.555,7.07,5.555,6.565,0,13.13-.5,19.695-.5,10.1.5,20.7,1.515,30.8-.5h2.525c1.515.5,2.525,1.01,2.525,2.525a2.828,2.828,0,0,1-3.03,2.525c-4.545-1.01-8.585.5-12.625,0-6.06-.5-7.07,1.01-6.565,6.565,0,2.02,1.01,3.03,3.03,2.525l16.665-1.515c3.03,0,4.04-1.515,3.535-4.545a14.414,14.414,0,0,1,0-6.565c2.525-7.575,4.04-16.16,8.585-22.724,2.525-4.04,2.02-7.07,1.515-11.11s-2.525-5.05-5.555-5.05c-5.05,0-10.1.5-14.645-.505C338.342,264.109,330.262,266.129,322.688,264.614ZM197.955,308.548h-4.04c-8.585-1.01-16.665,1.01-25.249,0-2.525-.5-5.05.5-4.545,3.535,1.515,9.595.5,18.685,2.525,28.279,1.01,3.535,2.525,5.05,6.06,5.05h17.675c15.655,0,30.8-3.535,46.459-2.525,1.01,0,2.02-.5,3.535-.5,5.05-1.01,5.05-1.01,5.05-6.06-.5-7.575,0-14.645-1.01-22.219-.5-5.05-.5-5.555-5.555-5.05C224.72,308.548,211.085,309.053,197.955,308.548Zm50.5,33.329h34.339c6.565,0,13.13-.5,19.695-.5,2.02,0,3.535.5,3.535,3.03-.5,2.02-1.515,3.03-4.04,2.525a25.347,25.347,0,0,0-6.06-1.01c-1.01,0-2.525,0-3.03,1.01-1.01,3.03,0,5.555,1.515,8.585,1.01,2.525,3.03,1.515,4.545,1.515,6.06-.5,9.595-3.03,10.6-9.09.5-3.03,1.515-5.555,2.02-8.585,1.01-4.545,2.525-8.08,6.565-10.6,2.02-1.515,3.535-3.535,6.06-4.545,5.05-3.03,6.565-7.07,5.05-12.625-.505-2.525-1.515-3.535-4.04-3.535a115.367,115.367,0,0,0-18.685,0c-17.675.5-35.349.5-53.024,1.01-5.555,0-5.555,0-5.555,5.555.5,8.08-.5,16.16,2.02,23.734A30.016,30.016,0,0,1,248.454,341.877Zm30.3-115.137v-1.515c-8.08-1.01-16.665-.5-24.744-.5-3.03,0-4.545,2.02-4.545,5.05,0,8.585-2.02,17.17.5,25.249v2.02c0,4.545,0,4.545,4.545,4.545h18.18c17.675,0,35.854,0,53.529-1.01,5.555,0,5.555,0,6.565-5.05,0-1.01.505-2.02.505-3.535,1.01-9.09,0-18.685,1.01-27.774.5-2.02-1.01-2.525-3.03-2.525A165.246,165.246,0,0,0,304,223.71c-2.02.5-3.535,1.515-4.04,3.535-4.04,12.625-15.15,16.16-26.259,18.685a7.79,7.79,0,0,1-8.08-5.05c-1.01-3.03.5-5.555,3.03-7.575C272.189,231.79,275.219,229.265,278.754,226.74ZM206.035,110.087c-1.01,5.555-1.515,10.1-.5,14.14.5,1.515,0,3.535-2.02,3.535s-2.02-2.02-2.525-3.535a11.119,11.119,0,0,1,.5-4.04c1.515-9.595-3.03-16.16-10.6-21.21-4.04-2.525-8.08-4.04-12.625-2.525-5.555,1.515-11.11,3.03-16.16,4.545a10.766,10.766,0,0,0-8.585,8.585c-1.01,4.545-2.525,9.09-3.535,13.635-1.515,6.06-.5,7.07,5.555,7.575h1.515c9.595,0,19.19-.505,28.784-.505,11.11-.5,22.724,1.01,33.834,0,14.14-1.01,27.774-1.01,41.914-1.515,0-4.545-3.535-6.06-6.565-7.575-5.05-2.525-8.585-6.06-9.595-12.12a5.93,5.93,0,0,0-7.07-5.05c-7.575.5-15.15,1.515-21.21,6.06C213.105,112.107,210.075,112.612,206.035,110.087Zm-1.515,237.85h-3.03a318.958,318.958,0,0,1-43.934.5h-2.525q-3.03,0-1.515,3.03a31.644,31.644,0,0,0,14.14,15.15,10.4,10.4,0,0,0,7.575,1.515c7.07-2.02,14.14-1.515,20.7-1.01a35.433,35.433,0,0,0,14.645-1.515c5.555-2.02,9.595-.5,14.14,2.525,2.525,1.515,4.545,3.535,7.07,5.05q12.877,7.575,21.21-4.545c2.02-3.03,4.04-5.555,7.575-6.565,8.08-2.525,16.16-5.555,24.744-6.06,2.525,0,4.545-.5,4.04-3.535-.505-4.545-1.515-6.565-5.05-6.565-13.13,0-26.764-.5-39.894-.5-3.03,0-6.565,1.515-9.595,1.01-6.565-1.01-13.13.505-19.695,1.01-5.05.5-7.575,4.04-7.07,9.09a14.745,14.745,0,0,0,1.01,4.545c0,1.01,0,2.02-1.01,2.525a2.429,2.429,0,0,1-3.03-1.01,13.446,13.446,0,0,1-1.515-6.06A25.016,25.016,0,0,0,204.52,347.937ZM130.287,178.766h23.229c4.04,0,4.545-.5,4.04-4.04a73.086,73.086,0,0,1-.5-18.18c0-5.555-.5-10.6-1.01-16.16q0-4.545-4.545-4.545c-6.565-1.01-11.615,1.515-15.15,6.565-4.545,6.565-11.11,9.595-18.685,11.11l-18.18,3.03c-6.06,1.01-8.08,4.545-6.565,10.6a39.248,39.248,0,0,1,1.01,8.08c0,5.05,0,5.05,5.05,5.05C109.077,178.766,119.682,179.271,130.287,178.766Zm-18.18,129.277c-4.545-.5-9.595.5-14.14.5-1.515,0-2.525,0-3.535,1.515-2.02,4.04,1.515,11.615,6.06,12.12A91.936,91.936,0,0,1,132.812,333.8c4.04,2.525,9.09,2.525,12.12,5.555,4.04,4.545,9.595,3.535,14.645,4.04,2.525,0,4.04-.5,3.03-3.535a34.358,34.358,0,0,1-1.01-10.1c-.5-6.06,0-12.12-1.515-18.18-.505-1.515-.505-3.535-3.03-3.535a133.063,133.063,0,0,1-14.14-1.01C132.812,306.528,122.712,309.053,112.107,308.043ZM245.424,163.111a21.83,21.83,0,0,0,1.01,11.11c.5,1.515,1.01,2.525,3.03,2.525h21.715c3.03,0,6.06-1.515,9.09.5,1.01,1.01,2.02,0,3.03-1.01,5.05-4.04,10.1-7.575,14.14-12.625,2.525-3.03,2.02-4.545-2.02-5.555a24.585,24.585,0,0,0-6.06-.505,10.149,10.149,0,0,1-6.565-2.02,81.275,81.275,0,0,1-17.17-17.675c-2.525-3.535-4.545-6.06-8.585-5.05a28.8,28.8,0,0,1-6.565.5c-4.04-.5-5.05,1.515-4.545,5.05C246.434,145.942,245.424,154.021,245.424,163.111Zm143.417,82.313c-6.06-.5-9.09-5.05-12.625-9.09a127.4,127.4,0,0,0-13.635-15.15c-1.01-1.01-2.02-2.525-3.03-1.01-1.01,2.525-2.525,2.02-4.545,1.515-4.04-1.01-8.585,0-12.625,0a3.19,3.19,0,0,0-3.535,3.535c-.5,9.595-1.515,18.685-2.02,28.279-.5,7.07.5,7.575,7.07,8.08,10.6.5,21.715-.5,32.824,1.515C376.721,254.514,383.286,250.474,388.841,245.424Zm-283.3-51c0-10.6,1.515-11.11-9.09-10.1-3.03.5-4.545,2.02-5.05,4.545-1.01,3.535-1.515,7.07-3.535,10.1-4.04,6.06-4.545,13.635-6.565,20.2-1.01,3.03,0,3.535,2.525,4.04,6.06.5,12.12-1.01,18.18.5a2.384,2.384,0,0,0,3.03-3.03C103.018,211.59,107.562,202.5,105.543,194.421ZM88.878,270.169c1.515,4.04,3.03,7.07,2.525,10.6-1.515,7.07,1.01,13.635,2.02,20.7.5,2.02,1.515,3.535,3.535,3.535,4.04,0,7.575-.505,11.615-.505a3.19,3.19,0,0,0,3.535-3.535c-.5-9.595-1.01-19.19-1.01-28.784,0-2.525-1.515-4.545-3.535-4.04C101,269.159,94.938,268.654,88.878,270.169ZM357.027,216.64c-3.03-3.03-4.04-8.585-10.1-6.565-1.515.5-3.03-1.01-3.535-2.525-2.02-4.545-5.555-7.575-9.09-11.11s-8.585-2.525-8.585,2.02c-.5,4.545-3.03,6.06-6.06,8.08a87.82,87.82,0,0,1-13.635,7.07c-1.515,1.01-3.535,1.515-4.04,3.03-1.01,1.515-1.01,3.03,1.515,3.535h2.525c9.595-1.01,18.685-1.515,28.279-2.525C341.372,217.65,348.442,218.155,357.027,216.64Zm25.249,58.579c-1.515-5.05-4.04-7.575-8.585-8.585-1.01,0-2.525-.5-2.525,1.01-.505,3.03-1.01,6.06,1.01,8.585s4.545.505,6.565,0A12.847,12.847,0,0,0,382.276,275.219Z" transform="translate(234.896 3611.491)"/>
    <path id="Path_708" data-name="Path 708" class="cls-2" d="M310.063,356.522c3.03,1.515,6.06.5,8.585,1.01,3.535.5,6.565,1.01,8.585,4.545,1.01,2.02,3.03,2.02,5.05,2.02,5.555-1.01,11.11-2.02,16.665-1.515,1.01,0,3.03-.5,3.535,2.02-5.555,1.01-11.11.5-16.16,2.02a11.119,11.119,0,0,1-4.04.5c-2.02.5-4.04,0-4.545,3.03,0,2.525.5,4.545,2.525,6.06,5.05,3.535,11.11,4.545,16.665,4.545,2.525,0,4.04,0,6.06,1.515s4.04,1.515,6.565,2.02c6.565,1.515,12.12,5.05,17.675,9.595-3.03,2.02-4.545.5-6.565-1.01a30.48,30.48,0,0,0-13.13-5.555c-3.03-.5-4.04.5-4.04,3.535-.505,5.05,1.01,9.09,5.05,12.12,1.515,1.01,4.04,1.515,4.545,4.04-5.555.5-10.6-3.535-12.12-9.09a24.586,24.586,0,0,1-.505-6.06c0-6.06,0-6.06-6.565-7.575-3.535-1.01-7.575-1.515-11.11-3.03-6.565-2.02-8.585-5.05-8.08-12.12.5-6.565-1.01-8.08-7.07-8.08-9.595-.5-18.685-1.515-28.279-2.02-10.6-.5-20.7,2.525-30.3,6.565-4.545,2.02-6.06,6.06-8.08,9.595,0,.5-.5,1.01,0,1.515,4.545,12.12,1.01,25.249,2.02,37.874v.5c0,6.06,2.525,10.6,8.585,12.12a44.53,44.53,0,0,1,10.1,4.545c1.01.5,2.02,1.01,1.515,3.535-6.565-2.02-13.635-4.04-19.19-8.08-2.525-2.02-3.535-5.555-4.04-9.09-1.01-7.07-.5-14.645-.5-21.715v-13.13c0-2.525-1.01-4.04-4.04-3.535-8.08,1.515-14.14-2.525-19.695-7.07-5.555-5.05-11.11-6.565-18.18-4.545-5.05,2.02-10.1,1.515-15.655,1.01-5.555,0-11.11,0-16.16,1.515-4.04,1.515-7.575,0-11.11-2.02-7.07-4.545-13.13-10.1-16.665-18.18-2.525-6.06-6.565-10.1-13.13-11.615a17.937,17.937,0,0,1-4.545-2.02c-10.1-7.575-22.219-9.09-33.329-12.625-3.03-1.01-4.04.505-5.05,3.03-2.02,4.545-4.04,8.585-5.555,13.13-1.01,2.02-2.02,3.535-5.05,4.04-4.04.5-7.07,3.03-10.1,5.555-2.525,1.515-3.535,4.04-4.04,7.07-1.515,7.07,0,14.645.5,21.715,0,1.01.5,1.515.5,2.525,0,.5-.5,1.01-1.01,1.515-1.01.5-2.02,0-2.02-1.01-1.515-9.595-2.02-18.685-.5-28.279.5-3.03,3.535-4.04,5.555-5.555a4.148,4.148,0,0,0,2.525-2.525c-.5-2.02-2.02-1.515-3.535-1.515-5.555.5-11.11.5-16.665,2.02-5.05,1.01-9.09,4.04-10.1,9.09-4.04,17.17-15.655,27.269-30.3,34.844-3.535,2.02-6.565,5.05-12.12,6.06,1.515-4.04,4.04-4.545,6.565-6.06,9.09-4.545,16.665-9.595,23.229-16.16,4.545-4.545,7.07-10.1,8.585-16.16a22.311,22.311,0,0,1,3.03-8.08c2.02-3.03,4.545-5.555,8.585-6.06a148.332,148.332,0,0,1,25.754-2.525c5.05,0,8.585-1.515,10.1-6.565,1.01-3.03,2.525-5.555,3.535-8.08a13.446,13.446,0,0,0,1.515-6.06c-1.515-9.09,0-18.685-3.03-27.774-1.01-3.535-.5-7.07-.5-10.6.5-7.575-4.545-15.15-11.615-17.17-4.545-1.01-9.09-1.515-13.13-2.525-7.07-1.515-7.575-3.535-5.555-10.6,2.525-7.07,8.585-11.615,12.625-17.675,4.04-6.565,8.08-13.13,9.595-20.7,1.01-7.07,5.05-13.635,7.575-20.2,3.535-9.09,4.04-18.18,1.01-27.269,0-.5-.5-1.01-.5-1.515.5-9.09-6.06-14.14-13.13-18.18a20.491,20.491,0,0,1-10.6-15.655c-.5-4.545-3.03-9.09-2.525-13.635,2.02-.5,2.525.5,2.525,1.515.5,4.545,2.525,8.585,3.535,13.13,1.515,5.05,4.04,8.585,8.08,11.11a50.409,50.409,0,0,1,12.12,11.11c1.515,2.02,3.535,3.03,5.555.505,2.02-2.02,4.04-2.02,6.565-2.525,8.585-.5,17.675-1.515,25.249-6.06a16.053,16.053,0,0,0,6.06-5.555c2.02-2.525,4.04-5.05,7.07-6.06,5.555-2.525,7.07-7.07,7.575-12.12,1.01-7.07,2.525-13.635,3.03-20.7.5-5.555-3.03-9.595-6.06-13.13a52.573,52.573,0,0,0-12.625-11.11c-8.585-5.555-10.6-10.1-8.585-19.695,1.515-7.575,3.03-14.645,4.04-22.219,0-1.01,0-2.525,1.515-2.525,2.02,0,1.515,2.02,1.515,3.03a138.423,138.423,0,0,1-2.525,14.14c-.5,3.535-1.515,7.07-1.515,10.6-.5,6.565,1.515,11.615,8.585,14.645,2.525-7.575,5.555-14.645,11.615-19.19.505.5,1.01.5,1.515,1.01-2.02,3.535-4.04,7.07-6.06,11.11-2.525,5.05-3.535,10.1,1.515,14.645a41.019,41.019,0,0,1,9.595,14.645c1.01,2.525,2.02,2.525,4.04,1.515,10.1-3.535,20.7-6.565,31.814-7.07,5.555-.5,7.575-5.05,4.545-9.595a50.463,50.463,0,0,1-4.04-7.07c-2.02-4.04-1.01-7.575,2.02-10.6a62.507,62.507,0,0,1,9.09-7.07c4.545-3.03,4.545-5.05,1.01-9.09-2.02-1.515-3.535-3.535-5.555-5.05-3.535-2.02-3.535-4.545-3.535-8.08.5-5.05,1.515-9.595.5-14.645s-2.02-9.595-5.05-13.635c-.5-1.01-1.515-2.02,0-3.03,1.01-1.01,2.02,0,2.525,1.01,1.515,2.525,2.525,5.05,4.04,8.08.5,1.515,2.02,2.02,3.03,1.01a55.128,55.128,0,0,0,8.585-6.565c2.02-2.02.5-5.05,1.515-7.07,3.535,3.03,4.04,6.565,1.01,9.595A9.083,9.083,0,0,1,202,12.625q-9.09,3.787-7.575,13.635v2.525c-1.515,6.565-1.515,12.625,6.06,15.655,2.525,1.01,3.535,4.545,4.545,7.07,11.11-6.565,11.615-12.625,9.595-20.2A80.723,80.723,0,0,1,212.1,20.7c-1.01-5.555,1.515-9.595,7.07-12.12,1.01-.5,2.02-.5,2.525.5a1.845,1.845,0,0,1-1.01,2.525c-7.07,3.535-5.555,9.09-4.04,14.645a33.948,33.948,0,0,1,2.02,12.12c-.5,6.565-4.545,11.615-9.595,15.655-4.545,3.535-9.595,6.565-14.14,9.595-6.565,5.05-7.07,7.575-2.525,14.14,3.03,4.545,5.05,9.09.5,14.14-2.02,2.525-1.01,4.545,1.515,6.565,4.04,3.03,8.585,6.06,12.625,9.09,2.02,1.515,4.04.5,5.555-.5,7.575-5.555,17.17-6.565,25.754-10.1,2.525-1.01,6.06-.5,8.585,0,4.04.5,6.565-.5,9.09-4.04,2.02-3.535,3.535-6.565,5.555-10.1a53.113,53.113,0,0,1,10.1-13.635c3.535-3.535,4.545-3.03,9.09-.5,4.04,2.525,4.545,2.525,6.565-2.525,1.515-3.535,3.535-6.06,7.575-7.575,5.555-2.02,9.595-7.07,15.15-10.6,2.02-1.01,3.535-2.525,5.555-3.03,1.01,2.525-1.01,3.535-2.02,4.545-6.06,5.05-11.615,10.1-18.685,13.13-2.525,1.01-3.535,3.535-4.545,5.555-2.525,5.555-4.545,6.06-10.1,3.535-5.05-2.525-6.06-2.02-9.595,2.02a33.615,33.615,0,0,0-6.06,10.1c-1.515,4.04-3.535,7.07-5.555,10.6-2.525,4.545-6.06,6.565-11.11,5.05a14.072,14.072,0,0,0-5.05-.5c2.02,3.535,3.03,6.565,4.545,9.595,1.515,3.535,3.535,6.06,7.07,7.575,6.565,3.03,10.1,8.08,11.11,15.15.5,3.535,2.02,6.06,5.05,7.575,4.04,2.02,6.565,5.555,9.09,9.09a10.28,10.28,0,0,0,9.595,5.555c3.535,0,7.07,1.515,10.6,2.525,3.03,1.01,3.535,3.03,2.02,6.06a50.674,50.674,0,0,1-14.14,15.15c-6.565,4.545-7.07,4.545-5.05,12.625,2.02,8.585,3.535,16.665,3.535,25.249,0,7.07-2.525,11.615-8.08,15.15a85.672,85.672,0,0,0-7.07,5.05c-1.01,1.01-2.02,2.02-1.515,3.535a3.364,3.364,0,0,0,3.535,2.525h.505c11.615.5,23.734-8.585,23.734-19.695,0-8.585,4.545-12.12,11.615-14.14a44.768,44.768,0,0,0,8.585-4.04c2.525-1.515,4.545-2.525,4.545-6.565,0-3.535,3.03-5.555,6.06-7.575,2.02-1.01,4.04-1.01,5.555.5,3.03,3.535,7.07,6.06,9.09,10.1,2.02,3.03,3.03,6.565,8.08,4.04,1.01-.5,2.525.5,3.535,2.02,5.555,7.07,12.625,13.13,18.685,19.695,2.525,3.03,5.05,6.565,7.575,9.595,4.04,5.05,9.595,6.06,15.15,2.525,5.05-3.03,10.6-5.555,17.17-6.06,9.09-1.515,17.675-5.05,24.239-12.625a11.039,11.039,0,0,1,2.525-1.515c2.02,2.525-1.515,3.535-1.515,4.545,7.07,9.09,15.655,9.595,25.249,7.575,3.535-1.01,7.575-.5,11.615-1.01.505,0,1.01.5,2.02.5,0,2.02-1.515,2.02-3.03,2.02a56.312,56.312,0,0,0-15.655,2.525c-6.06,1.515-11.615.5-16.16-3.535a9.3,9.3,0,0,0-10.1-1.515c-2.525,1.01-5.05,1.515-7.575,3.03a44.338,44.338,0,0,1-11.615,3.535c-7.07.5-13.13,3.03-17.675,9.09-1.01,1.515-3.03,2.525-4.545,3.535-2.525,2.02-5.05,3.535-7.07,6.06-2.02,3.03-3.03,5.555-1.01,8.585s3.03,6.565,4.04,10.1c1.01,2.525,0,4.545-3.03,5.05s-6.06,1.515-9.09,2.02a8.3,8.3,0,0,0-6.06,4.04,62.337,62.337,0,0,0-8.08,21.715v2.525c.5,2.525,2.02,5.05-.5,7.07s-5.05,3.535-8.585,3.535c-5.05-.505-10.1.5-14.645,1.515-7.575,2.02-13.13,6.565-19.19,11.11-1.01.505-1.515,2.02-2.02,3.03C313.6,342.887,312.083,349.452,310.063,356.522Zm-67.668-200.48h0v-17.17c0-5.05,0-5.05-5.555-5.05-13.635,0-27.774,1.01-41.409.5-10.6-.5-21.21.5-31.814.5-3.03,0-4.545,1.515-4.04,4.545v8.585c0,8.585-.5,17.675,2.02,26.259,1.515,5.555,1.01,5.555,7.07,5.555,16.16.5,31.814-1.515,47.974-2.02,7.575-.5,15.15-.5,22.22-1.01,3.03,0,4.04-1.01,4.04-4.04C241.889,167.151,242.394,161.6,242.394,156.041ZM162.1,305.518h8.585c9.09,0,18.685-.5,27.774-.5,2.525,0,4.545-.505,4.545-3.535-.5-10.6.5-21.21-1.01-31.814-.5-4.545-.5-5.05-5.05-5.05-11.615.5-23.229-1.01-34.339,3.03h-2.02c-6.565-2.02-13.635-1.515-20.2-.505a149.16,149.16,0,0,1-21.21,1.01c-4.545,0-5.05.5-5.555,5.05,0,9.09,0,18.18.5,27.269,0,4.04,1.515,5.05,6.06,4.545,12.12-1.515,23.734-.5,35.854.505A12.126,12.126,0,0,1,162.1,305.518ZM109.582,222.7a96.161,96.161,0,0,0,17.17-.5c10.1-1.515,19.695-1.01,29.794-1.01,12.12,0,23.734.5,35.854.5,5.555,0,7.07-1.515,6.06-7.07-1.515-7.575-.5-14.645,0-22.219,0-8.585,2.02-9.09-9.09-8.585h-.5a105.561,105.561,0,0,1-25.249,0c-16.16-1.01-32.824-.5-48.984-.5-2.02,0-3.03.5-4.04,3.03-3.03,8.08-2.02,16.665-3.03,25.249a7.177,7.177,0,0,0,1.01,3.03C109.582,217.145,110.592,219.67,109.582,222.7Zm51,10.6h0a8.594,8.594,0,0,1-.5-3.535c.5-3.535-.5-5.05-4.04-5.05-8.585,0-17.675-1.01-26.259.5-5.05,1.01-10.6.5-15.655,1.01-9.595.5-19.19,1.01-29.289,1.01-4.545,0-8.08,1.01-10.6,5.555-2.02,4.04-5.555,7.07-8.585,10.6-1.515,2.02-3.03,4.545-4.545,7.07-3.03,7.07-2.525,7.575,5.05,8.585,5.05.5,10.1,1.01,14.14,3.535,3.535,2.525,7.575,2.525,11.615,2.525,8.585-.5,17.17-1.515,25.754-1.515,12.12,0,24.239-1.515,36.359-2.02a3.19,3.19,0,0,0,3.535-3.535A206.822,206.822,0,0,0,160.586,233.3Zm101.5,70.7h22.724c2.02,0,4.04,0,4.04-3.03-.5-10.1.5-20.2-.5-30.3-.5-3.535-1.515-4.545-5.05-4.545-6.565,0-12.625.5-19.19,0-17.17-.5-34.339-1.01-51.509-.5-6.06,0-6.565,0-6.565,6.565v27.774c0,3.535,1.515,5.05,5.555,5.555a81.2,81.2,0,0,0,15.655.5C238.354,304,248.454,305.013,262.089,304Zm20.2-81.3a33.519,33.519,0,0,0,.505-6.565c1.515-11.11-3.535-20.7-5.05-31.309-.5-2.525-2.02-3.03-4.545-3.535h-10.6c-18.685-1.515-36.864.5-55.549.5-3.03,0-4.545,1.01-4.545,4.545,0,9.09-2.02,18.18,0,27.774,1.515,7.575,1.01,7.575,9.09,8.08h2.525c19.19-1.515,38.884-1.01,58.074-1.01C275.219,221.185,278.754,220.68,282.288,222.7Zm-90.9,2.525H171.7c-6.565,0-6.565-.5-7.07,6.565,0,1.515-.5,2.525-.5,4.04-1.01,7.575-2.02,14.645-1.515,22.219,0,3.03,1.01,4.04,4.04,4.04,3.535-.5,6.565,0,10.1-.5a195.676,195.676,0,0,1,29.794-.5c12.12,1.01,24.239.5,36.864.5,2.02,0,3.535-1.01,3.03-3.535-1.01-4.04-.5-7.575-.5-11.615,0-6.06.5-11.615,0-17.675,0-3.03-1.01-4.545-4.545-4.04A412.884,412.884,0,0,1,191.391,225.225Zm131.3,39.389c-4.04,1.01-7.575.5-11.615.5-4.545,0-9.595.505-14.14.505-2.525,0-4.04,1.01-4.04,4.04,0,9.595-.5,19.19,0,28.279,0,5.05,1.515,5.555,7.07,5.555,6.565,0,13.13-.5,19.695-.5,10.1.5,20.7,1.515,30.8-.5h2.525c1.515.5,2.525,1.01,2.525,2.525a2.828,2.828,0,0,1-3.03,2.525c-4.545-1.01-8.585.5-12.625,0-6.06-.5-7.07,1.01-6.565,6.565,0,2.02,1.01,3.03,3.03,2.525l16.665-1.515c3.03,0,4.04-1.515,3.535-4.545a14.414,14.414,0,0,1,0-6.565c2.525-7.575,4.04-16.16,8.585-22.724,2.525-4.04,2.02-7.07,1.515-11.11s-2.525-5.05-5.555-5.05c-5.05,0-10.1.5-14.645-.505C338.342,264.109,330.262,266.129,322.688,264.614ZM197.955,308.548h-4.04c-8.585-1.01-16.665,1.01-25.249,0-2.525-.5-5.05.5-4.545,3.535,1.515,9.595.5,18.685,2.525,28.279,1.01,3.535,2.525,5.05,6.06,5.05h17.675c15.655,0,30.8-3.535,46.459-2.525,1.01,0,2.02-.5,3.535-.5,5.05-1.01,5.05-1.01,5.05-6.06-.5-7.575,0-14.645-1.01-22.219-.5-5.05-.5-5.555-5.555-5.05C224.72,308.548,211.085,309.053,197.955,308.548Zm50.5,33.329h34.339c6.565,0,13.13-.5,19.695-.5,2.02,0,3.535.5,3.535,3.03-.5,2.02-1.515,3.03-4.04,2.525a25.347,25.347,0,0,0-6.06-1.01c-1.01,0-2.525,0-3.03,1.01-1.01,3.03,0,5.555,1.515,8.585,1.01,2.525,3.03,1.515,4.545,1.515,6.06-.5,9.595-3.03,10.6-9.09.5-3.03,1.515-5.555,2.02-8.585,1.01-4.545,2.525-8.08,6.565-10.6,2.02-1.515,3.535-3.535,6.06-4.545,5.05-3.03,6.565-7.07,5.05-12.625-.505-2.525-1.515-3.535-4.04-3.535a115.367,115.367,0,0,0-18.685,0c-17.675.5-35.349.5-53.024,1.01-5.555,0-5.555,0-5.555,5.555.5,8.08-.5,16.16,2.02,23.734A30.016,30.016,0,0,1,248.454,341.877Zm30.3-115.137v-1.515c-8.08-1.01-16.665-.5-24.744-.5-3.03,0-4.545,2.02-4.545,5.05,0,8.585-2.02,17.17.5,25.249v2.02c0,4.545,0,4.545,4.545,4.545h18.18c17.675,0,35.854,0,53.529-1.01,5.555,0,5.555,0,6.565-5.05,0-1.01.505-2.02.505-3.535,1.01-9.09,0-18.685,1.01-27.774.5-2.02-1.01-2.525-3.03-2.525A165.246,165.246,0,0,0,304,223.71c-2.02.5-3.535,1.515-4.04,3.535-4.04,12.625-15.15,16.16-26.259,18.685a7.79,7.79,0,0,1-8.08-5.05c-1.01-3.03.5-5.555,3.03-7.575C272.189,231.79,275.219,229.265,278.754,226.74ZM206.035,110.087c-1.01,5.555-1.515,10.1-.5,14.14.5,1.515,0,3.535-2.02,3.535s-2.02-2.02-2.525-3.535a11.119,11.119,0,0,1,.5-4.04c1.515-9.595-3.03-16.16-10.6-21.21-4.04-2.525-8.08-4.04-12.625-2.525-5.555,1.515-11.11,3.03-16.16,4.545a10.766,10.766,0,0,0-8.585,8.585c-1.01,4.545-2.525,9.09-3.535,13.635-1.515,6.06-.5,7.07,5.555,7.575h1.515c9.595,0,19.19-.505,28.784-.505,11.11-.5,22.724,1.01,33.834,0,14.14-1.01,27.774-1.01,41.914-1.515,0-4.545-3.535-6.06-6.565-7.575-5.05-2.525-8.585-6.06-9.595-12.12a5.93,5.93,0,0,0-7.07-5.05c-7.575.5-15.15,1.515-21.21,6.06C213.105,112.107,210.075,112.612,206.035,110.087Zm-1.515,237.85h-3.03a318.958,318.958,0,0,1-43.934.5h-2.525q-3.03,0-1.515,3.03a31.644,31.644,0,0,0,14.14,15.15,10.4,10.4,0,0,0,7.575,1.515c7.07-2.02,14.14-1.515,20.7-1.01a35.433,35.433,0,0,0,14.645-1.515c5.555-2.02,9.595-.5,14.14,2.525,2.525,1.515,4.545,3.535,7.07,5.05q12.877,7.575,21.21-4.545c2.02-3.03,4.04-5.555,7.575-6.565,8.08-2.525,16.16-5.555,24.744-6.06,2.525,0,4.545-.5,4.04-3.535-.505-4.545-1.515-6.565-5.05-6.565-13.13,0-26.764-.5-39.894-.5-3.03,0-6.565,1.515-9.595,1.01-6.565-1.01-13.13.505-19.695,1.01-5.05.5-7.575,4.04-7.07,9.09a14.745,14.745,0,0,0,1.01,4.545c0,1.01,0,2.02-1.01,2.525a2.429,2.429,0,0,1-3.03-1.01,13.446,13.446,0,0,1-1.515-6.06A25.016,25.016,0,0,0,204.52,347.937ZM130.287,178.766h23.229c4.04,0,4.545-.5,4.04-4.04a73.086,73.086,0,0,1-.5-18.18c0-5.555-.5-10.6-1.01-16.16q0-4.545-4.545-4.545c-6.565-1.01-11.615,1.515-15.15,6.565-4.545,6.565-11.11,9.595-18.685,11.11l-18.18,3.03c-6.06,1.01-8.08,4.545-6.565,10.6a39.248,39.248,0,0,1,1.01,8.08c0,5.05,0,5.05,5.05,5.05C109.077,178.766,119.682,179.271,130.287,178.766Zm-18.18,129.277c-4.545-.5-9.595.5-14.14.5-1.515,0-2.525,0-3.535,1.515-2.02,4.04,1.515,11.615,6.06,12.12A91.936,91.936,0,0,1,132.812,333.8c4.04,2.525,9.09,2.525,12.12,5.555,4.04,4.545,9.595,3.535,14.645,4.04,2.525,0,4.04-.5,3.03-3.535a34.358,34.358,0,0,1-1.01-10.1c-.5-6.06,0-12.12-1.515-18.18-.505-1.515-.505-3.535-3.03-3.535a133.063,133.063,0,0,1-14.14-1.01C132.812,306.528,122.712,309.053,112.107,308.043ZM245.424,163.111a21.83,21.83,0,0,0,1.01,11.11c.5,1.515,1.01,2.525,3.03,2.525h21.715c3.03,0,6.06-1.515,9.09.5,1.01,1.01,2.02,0,3.03-1.01,5.05-4.04,10.1-7.575,14.14-12.625,2.525-3.03,2.02-4.545-2.02-5.555a24.585,24.585,0,0,0-6.06-.505,10.149,10.149,0,0,1-6.565-2.02,81.275,81.275,0,0,1-17.17-17.675c-2.525-3.535-4.545-6.06-8.585-5.05a28.8,28.8,0,0,1-6.565.5c-4.04-.5-5.05,1.515-4.545,5.05C246.434,145.942,245.424,154.021,245.424,163.111Zm143.417,82.313c-6.06-.5-9.09-5.05-12.625-9.09a127.4,127.4,0,0,0-13.635-15.15c-1.01-1.01-2.02-2.525-3.03-1.01-1.01,2.525-2.525,2.02-4.545,1.515-4.04-1.01-8.585,0-12.625,0a3.19,3.19,0,0,0-3.535,3.535c-.5,9.595-1.515,18.685-2.02,28.279-.5,7.07.5,7.575,7.07,8.08,10.6.5,21.715-.5,32.824,1.515C376.721,254.514,383.286,250.474,388.841,245.424Zm-283.3-51c0-10.6,1.515-11.11-9.09-10.1-3.03.5-4.545,2.02-5.05,4.545-1.01,3.535-1.515,7.07-3.535,10.1-4.04,6.06-4.545,13.635-6.565,20.2-1.01,3.03,0,3.535,2.525,4.04,6.06.5,12.12-1.01,18.18.5a2.384,2.384,0,0,0,3.03-3.03C103.018,211.59,107.562,202.5,105.543,194.421ZM88.878,270.169c1.515,4.04,3.03,7.07,2.525,10.6-1.515,7.07,1.01,13.635,2.02,20.7.5,2.02,1.515,3.535,3.535,3.535,4.04,0,7.575-.505,11.615-.505a3.19,3.19,0,0,0,3.535-3.535c-.5-9.595-1.01-19.19-1.01-28.784,0-2.525-1.515-4.545-3.535-4.04C101,269.159,94.938,268.654,88.878,270.169ZM357.027,216.64c-3.03-3.03-4.04-8.585-10.1-6.565-1.515.5-3.03-1.01-3.535-2.525-2.02-4.545-5.555-7.575-9.09-11.11s-8.585-2.525-8.585,2.02c-.5,4.545-3.03,6.06-6.06,8.08a87.82,87.82,0,0,1-13.635,7.07c-1.515,1.01-3.535,1.515-4.04,3.03-1.01,1.515-1.01,3.03,1.515,3.535h2.525c9.595-1.01,18.685-1.515,28.279-2.525C341.372,217.65,348.442,218.155,357.027,216.64Zm25.249,58.579c-1.515-5.05-4.04-7.575-8.585-8.585-1.01,0-2.525-.5-2.525,1.01-.505,3.03-1.01,6.06,1.01,8.585s4.545.505,6.565,0A12.847,12.847,0,0,0,382.276,275.219Z" transform="translate(226.896 3603.491)"/>
  </g>
</svg>
