<svg xmlns="http://www.w3.org/2000/svg" viewBox="10325 4460 525 525">
  <defs>
    <style>
      .cls-1 {
        fill: none;
      }

      .cls-2, .cls-3 {
        fill: #fff;
        stroke-miterlimit: 10;
      }

      .cls-2 {
        stroke: #212021;
      }

      .cls-3 {
        stroke: #000;
      }

      .cls-4 {
        fill: #212021;
      }

      .cls-5 {
        fill: #e31041;
      }

      .cls-6 {
        fill: #1c1c1c;
      }
    </style>
  </defs>
  <g id="wallet" transform="translate(9169 -52)">
    <rect id="Rectangle_681" data-name="Rectangle 681" class="cls-1" width="525" height="525" transform="translate(1156 4512)"/>
    <g id="wallet-2" data-name="wallet">
      <g id="Group_642" data-name="Group 642" transform="translate(1409.775 4665.729) rotate(-31)">
        <circle id="Ellipse_209" data-name="Ellipse 209" class="cls-2" cx="37.403" cy="37.403" r="37.403" transform="translate(0.5 0.5)"/>
        <circle id="Ellipse_210" data-name="Ellipse 210" class="cls-3" cx="30.678" cy="30.678" r="30.678" transform="translate(7.225 7.225)"/>
        <circle id="Ellipse_211" data-name="Ellipse 211" class="cls-4" cx="1.619" cy="1.619" r="1.619" transform="translate(36.159 2.244)"/>
        <circle id="Ellipse_212" data-name="Ellipse 212" class="cls-4" cx="1.619" cy="1.619" r="1.619" transform="translate(29.061 3.032)"/>
        <circle id="Ellipse_213" data-name="Ellipse 213" class="cls-4" cx="1.619" cy="1.619" r="1.619" transform="translate(22.294 5.232)"/>
        <circle id="Ellipse_214" data-name="Ellipse 214" class="cls-4" cx="1.619" cy="1.619" r="1.619" transform="translate(16.15 8.844)"/>
        <circle id="Ellipse_215" data-name="Ellipse 215" class="cls-4" cx="1.619" cy="1.619" r="1.619" transform="translate(10.878 13.618)"/>
        <circle id="Ellipse_216" data-name="Ellipse 216" class="cls-4" cx="1.619" cy="1.619" r="1.619" transform="translate(6.727 19.388)"/>
        <circle id="Ellipse_217" data-name="Ellipse 217" class="cls-4" cx="1.619" cy="1.619" r="1.619" transform="translate(3.863 25.906)"/>
        <circle id="Ellipse_218" data-name="Ellipse 218" class="cls-4" cx="1.619" cy="1.619" r="1.619" transform="translate(2.41 32.88)"/>
        <circle id="Ellipse_219" data-name="Ellipse 219" class="cls-4" cx="1.619" cy="1.619" r="1.619" transform="translate(2.451 39.978)"/>
        <circle id="Ellipse_220" data-name="Ellipse 220" class="cls-4" cx="1.619" cy="1.619" r="1.619" transform="translate(3.946 46.953)"/>
        <circle id="Ellipse_221" data-name="Ellipse 221" class="cls-4" cx="1.619" cy="1.619" r="1.619" transform="translate(6.893 53.429)"/>
        <circle id="Ellipse_222" data-name="Ellipse 222" class="cls-4" cx="1.619" cy="1.619" r="1.619" transform="translate(11.086 59.199)"/>
        <circle id="Ellipse_223" data-name="Ellipse 223" class="cls-4" cx="1.619" cy="1.619" r="1.619" transform="translate(16.399 63.931)"/>
        <circle id="Ellipse_224" data-name="Ellipse 224" class="cls-4" cx="1.619" cy="1.619" r="1.619" transform="translate(22.585 67.46)"/>
        <circle id="Ellipse_225" data-name="Ellipse 225" class="cls-4" cx="1.619" cy="1.619" r="1.619" transform="translate(29.351 69.618)"/>
        <circle id="Ellipse_226" data-name="Ellipse 226" class="cls-4" cx="1.619" cy="1.619" r="1.619" transform="translate(36.45 70.324)"/>
        <circle id="Ellipse_227" data-name="Ellipse 227" class="cls-4" cx="1.619" cy="1.619" r="1.619" transform="translate(43.507 69.577)"/>
        <circle id="Ellipse_228" data-name="Ellipse 228" class="cls-4" cx="1.619" cy="1.619" r="1.619" transform="translate(50.274 67.335)"/>
        <circle id="Ellipse_229" data-name="Ellipse 229" class="cls-4" cx="1.619" cy="1.619" r="1.619" transform="translate(56.417 63.765)"/>
        <circle id="Ellipse_230" data-name="Ellipse 230" class="cls-4" cx="1.619" cy="1.619" r="1.619" transform="translate(61.689 58.95)"/>
        <circle id="Ellipse_231" data-name="Ellipse 231" class="cls-4" cx="1.619" cy="1.619" r="1.619" transform="translate(65.841 53.179)"/>
        <circle id="Ellipse_232" data-name="Ellipse 232" class="cls-4" cx="1.619" cy="1.619" r="1.619" transform="translate(68.705 46.662)"/>
        <circle id="Ellipse_233" data-name="Ellipse 233" class="cls-4" cx="1.619" cy="1.619" r="1.619" transform="translate(70.158 39.688)"/>
        <circle id="Ellipse_234" data-name="Ellipse 234" class="cls-4" cx="1.619" cy="1.619" r="1.619" transform="translate(70.158 32.589)"/>
        <circle id="Ellipse_235" data-name="Ellipse 235" class="cls-4" cx="1.619" cy="1.619" r="1.619" transform="translate(68.622 25.615)"/>
        <circle id="Ellipse_236" data-name="Ellipse 236" class="cls-4" cx="1.619" cy="1.619" r="1.619" transform="translate(65.716 19.139)"/>
        <circle id="Ellipse_237" data-name="Ellipse 237" class="cls-4" cx="1.619" cy="1.619" r="1.619" transform="translate(61.482 13.41)"/>
        <circle id="Ellipse_238" data-name="Ellipse 238" class="cls-4" cx="1.619" cy="1.619" r="1.619" transform="translate(56.168 8.678)"/>
        <circle id="Ellipse_239" data-name="Ellipse 239" class="cls-4" cx="1.619" cy="1.619" r="1.619" transform="translate(50.024 5.108)"/>
        <circle id="Ellipse_240" data-name="Ellipse 240" class="cls-4" cx="1.619" cy="1.619" r="1.619" transform="translate(43.216 2.949)"/>
        <g id="Group_639" data-name="Group 639" transform="translate(27.11 15.984)">
          <path id="Path_814" data-name="Path 814" class="cls-4" d="M86.967,69.439V58.189L78.084,53,69.2,58.189v11.25H86.967Z" transform="translate(-67.29 -46.69)"/>
          <path id="Path_815" data-name="Path 815" class="cls-4" d="M75.393,95.8H64.6v7.1l10.793,5.231h0L86.187,102.9V95.8Z" transform="translate(-64.6 -71.723)"/>
          <path id="Path_816" data-name="Path 816" class="cls-4" d="M87.706,127.357l-.5.249-.5-.249-1.038-.457-.872,5.687h4.857l-.913-5.687Z" transform="translate(-76.414 -89.912)"/>
          <path id="Path_817" data-name="Path 817" class="cls-4" d="M86.71,43.031l.5-.249.5.249,1.038.5.913-5.729H84.8l.872,5.729Z" transform="translate(-76.414 -37.8)"/>
        </g>
      </g>
      <g id="Group_641" data-name="Group 641" transform="translate(1403.165 4573.147) rotate(42)">
        <circle id="Ellipse_209-2" data-name="Ellipse 209" class="cls-2" cx="49.475" cy="49.475" r="49.475" transform="translate(0.5 0.5)"/>
        <circle id="Ellipse_210-2" data-name="Ellipse 210" class="cls-3" cx="40.579" cy="40.579" r="40.579" transform="translate(9.396 9.396)"/>
        <circle id="Ellipse_211-2" data-name="Ellipse 211" class="cls-4" cx="2.142" cy="2.142" r="2.142" transform="translate(47.668 2.806)"/>
        <circle id="Ellipse_212-2" data-name="Ellipse 212" class="cls-4" cx="2.142" cy="2.142" r="2.142" transform="translate(38.279 3.85)"/>
        <circle id="Ellipse_213-2" data-name="Ellipse 213" class="cls-4" cx="2.142" cy="2.142" r="2.142" transform="translate(29.328 6.76)"/>
        <circle id="Ellipse_214-2" data-name="Ellipse 214" class="cls-4" cx="2.142" cy="2.142" r="2.142" transform="translate(21.201 11.537)"/>
        <circle id="Ellipse_215-2" data-name="Ellipse 215" class="cls-4" cx="2.142" cy="2.142" r="2.142" transform="translate(14.228 17.852)"/>
        <circle id="Ellipse_216-2" data-name="Ellipse 216" class="cls-4" cx="2.142" cy="2.142" r="2.142" transform="translate(8.737 25.484)"/>
        <circle id="Ellipse_217-2" data-name="Ellipse 217" class="cls-4" cx="2.142" cy="2.142" r="2.142" transform="translate(4.948 34.105)"/>
        <circle id="Ellipse_218-2" data-name="Ellipse 218" class="cls-4" cx="2.142" cy="2.142" r="2.142" transform="translate(3.026 43.331)"/>
        <circle id="Ellipse_219-2" data-name="Ellipse 219" class="cls-4" cx="2.142" cy="2.142" r="2.142" transform="translate(3.081 52.72)"/>
        <circle id="Ellipse_220-2" data-name="Ellipse 220" class="cls-4" cx="2.142" cy="2.142" r="2.142" transform="translate(5.058 61.945)"/>
        <circle id="Ellipse_221-2" data-name="Ellipse 221" class="cls-4" cx="2.142" cy="2.142" r="2.142" transform="translate(8.956 70.511)"/>
        <circle id="Ellipse_222-2" data-name="Ellipse 222" class="cls-4" cx="2.142" cy="2.142" r="2.142" transform="translate(14.502 78.144)"/>
        <circle id="Ellipse_223-2" data-name="Ellipse 223" class="cls-4" cx="2.142" cy="2.142" r="2.142" transform="translate(21.531 84.404)"/>
        <circle id="Ellipse_224-2" data-name="Ellipse 224" class="cls-4" cx="2.142" cy="2.142" r="2.142" transform="translate(29.713 89.071)"/>
        <circle id="Ellipse_225-2" data-name="Ellipse 225" class="cls-4" cx="2.142" cy="2.142" r="2.142" transform="translate(38.663 91.927)"/>
        <circle id="Ellipse_226-2" data-name="Ellipse 226" class="cls-4" cx="2.142" cy="2.142" r="2.142" transform="translate(48.053 92.86)"/>
        <circle id="Ellipse_227-2" data-name="Ellipse 227" class="cls-4" cx="2.142" cy="2.142" r="2.142" transform="translate(57.388 91.872)"/>
        <circle id="Ellipse_228-2" data-name="Ellipse 228" class="cls-4" cx="2.142" cy="2.142" r="2.142" transform="translate(66.338 88.907)"/>
        <circle id="Ellipse_229-2" data-name="Ellipse 229" class="cls-4" cx="2.142" cy="2.142" r="2.142" transform="translate(74.465 84.184)"/>
        <circle id="Ellipse_230-2" data-name="Ellipse 230" class="cls-4" cx="2.142" cy="2.142" r="2.142" transform="translate(81.439 77.815)"/>
        <circle id="Ellipse_231-2" data-name="Ellipse 231" class="cls-4" cx="2.142" cy="2.142" r="2.142" transform="translate(86.93 70.182)"/>
        <circle id="Ellipse_232-2" data-name="Ellipse 232" class="cls-4" cx="2.142" cy="2.142" r="2.142" transform="translate(90.719 61.561)"/>
        <circle id="Ellipse_233-2" data-name="Ellipse 233" class="cls-4" cx="2.142" cy="2.142" r="2.142" transform="translate(92.641 52.336)"/>
        <circle id="Ellipse_234-2" data-name="Ellipse 234" class="cls-4" cx="2.142" cy="2.142" r="2.142" transform="translate(92.641 42.946)"/>
        <circle id="Ellipse_235-2" data-name="Ellipse 235" class="cls-4" cx="2.142" cy="2.142" r="2.142" transform="translate(90.609 33.721)"/>
        <circle id="Ellipse_236-2" data-name="Ellipse 236" class="cls-4" cx="2.142" cy="2.142" r="2.142" transform="translate(86.765 25.155)"/>
        <circle id="Ellipse_237-2" data-name="Ellipse 237" class="cls-4" cx="2.142" cy="2.142" r="2.142" transform="translate(81.164 17.577)"/>
        <circle id="Ellipse_238-2" data-name="Ellipse 238" class="cls-4" cx="2.142" cy="2.142" r="2.142" transform="translate(74.136 11.317)"/>
        <circle id="Ellipse_239-2" data-name="Ellipse 239" class="cls-4" cx="2.142" cy="2.142" r="2.142" transform="translate(66.009 6.595)"/>
        <circle id="Ellipse_240-2" data-name="Ellipse 240" class="cls-4" cx="2.142" cy="2.142" r="2.142" transform="translate(57.003 3.74)"/>
        <g id="Group_639-2" data-name="Group 639" transform="translate(35.698 20.982)">
          <path id="Path_814-2" data-name="Path 814" class="cls-4" d="M92.7,74.745V59.864L80.951,53,69.2,59.864V74.745H92.7Z" transform="translate(-66.674 -44.654)"/>
          <path id="Path_815-2" data-name="Path 815" class="cls-4" d="M78.877,95.8H64.6v9.39l14.277,6.919h0l14.277-6.919V95.8Z" transform="translate(-64.6 -63.952)"/>
          <path id="Path_816-2" data-name="Path 816" class="cls-4" d="M88.644,127.5l-.659.329-.659-.329-1.373-.6L84.8,134.423h6.425L90.017,126.9Z" transform="translate(-73.708 -77.974)"/>
          <path id="Path_817-2" data-name="Path 817" class="cls-4" d="M87.326,44.719l.659-.329.659.329,1.373.659L91.225,37.8H84.8l1.153,7.578Z" transform="translate(-73.708 -37.8)"/>
        </g>
      </g>
      <g id="Group_640" data-name="Group 640" transform="translate(1305.889 4619.889)">
        <circle id="Ellipse_209-3" data-name="Ellipse 209" class="cls-2" cx="31.406" cy="31.406" r="31.406" transform="translate(0.5 0.5)"/>
        <circle id="Ellipse_210-3" data-name="Ellipse 210" class="cls-3" cx="25.759" cy="25.759" r="25.759" transform="translate(6.147 6.147)"/>
        <circle id="Ellipse_211-3" data-name="Ellipse 211" class="cls-4" cx="1.359" cy="1.359" r="1.359" transform="translate(30.442 1.964)"/>
        <circle id="Ellipse_212-3" data-name="Ellipse 212" class="cls-4" cx="1.359" cy="1.359" r="1.359" transform="translate(24.481 2.626)"/>
        <circle id="Ellipse_213-3" data-name="Ellipse 213" class="cls-4" cx="1.359" cy="1.359" r="1.359" transform="translate(18.8 4.474)"/>
        <circle id="Ellipse_214-3" data-name="Ellipse 214" class="cls-4" cx="1.359" cy="1.359" r="1.359" transform="translate(13.641 7.506)"/>
        <circle id="Ellipse_215-3" data-name="Ellipse 215" class="cls-4" cx="1.359" cy="1.359" r="1.359" transform="translate(9.214 11.515)"/>
        <circle id="Ellipse_216-3" data-name="Ellipse 216" class="cls-4" cx="1.359" cy="1.359" r="1.359" transform="translate(5.728 16.36)"/>
        <circle id="Ellipse_217-3" data-name="Ellipse 217" class="cls-4" cx="1.359" cy="1.359" r="1.359" transform="translate(3.323 21.832)"/>
        <circle id="Ellipse_218-3" data-name="Ellipse 218" class="cls-4" cx="1.359" cy="1.359" r="1.359" transform="translate(2.103 27.688)"/>
        <circle id="Ellipse_219-3" data-name="Ellipse 219" class="cls-4" cx="1.359" cy="1.359" r="1.359" transform="translate(2.138 33.648)"/>
        <circle id="Ellipse_220-3" data-name="Ellipse 220" class="cls-4" cx="1.359" cy="1.359" r="1.359" transform="translate(3.393 39.504)"/>
        <circle id="Ellipse_221-3" data-name="Ellipse 221" class="cls-4" cx="1.359" cy="1.359" r="1.359" transform="translate(5.868 44.942)"/>
        <circle id="Ellipse_222-3" data-name="Ellipse 222" class="cls-4" cx="1.359" cy="1.359" r="1.359" transform="translate(9.388 49.787)"/>
        <circle id="Ellipse_223-3" data-name="Ellipse 223" class="cls-4" cx="1.359" cy="1.359" r="1.359" transform="translate(13.85 53.761)"/>
        <circle id="Ellipse_224-3" data-name="Ellipse 224" class="cls-4" cx="1.359" cy="1.359" r="1.359" transform="translate(19.044 56.723)"/>
        <circle id="Ellipse_225-3" data-name="Ellipse 225" class="cls-4" cx="1.359" cy="1.359" r="1.359" transform="translate(24.725 58.536)"/>
        <circle id="Ellipse_226-3" data-name="Ellipse 226" class="cls-4" cx="1.359" cy="1.359" r="1.359" transform="translate(30.686 59.129)"/>
        <circle id="Ellipse_227-3" data-name="Ellipse 227" class="cls-4" cx="1.359" cy="1.359" r="1.359" transform="translate(36.611 58.501)"/>
        <circle id="Ellipse_228-3" data-name="Ellipse 228" class="cls-4" cx="1.359" cy="1.359" r="1.359" transform="translate(42.293 56.619)"/>
        <circle id="Ellipse_229-3" data-name="Ellipse 229" class="cls-4" cx="1.359" cy="1.359" r="1.359" transform="translate(47.452 53.621)"/>
        <circle id="Ellipse_230-3" data-name="Ellipse 230" class="cls-4" cx="1.359" cy="1.359" r="1.359" transform="translate(51.878 49.578)"/>
        <circle id="Ellipse_231-3" data-name="Ellipse 231" class="cls-4" cx="1.359" cy="1.359" r="1.359" transform="translate(55.364 44.733)"/>
        <circle id="Ellipse_232-3" data-name="Ellipse 232" class="cls-4" cx="1.359" cy="1.359" r="1.359" transform="translate(57.769 39.26)"/>
        <circle id="Ellipse_233-3" data-name="Ellipse 233" class="cls-4" cx="1.359" cy="1.359" r="1.359" transform="translate(58.989 33.404)"/>
        <circle id="Ellipse_234-3" data-name="Ellipse 234" class="cls-4" cx="1.359" cy="1.359" r="1.359" transform="translate(58.989 27.444)"/>
        <circle id="Ellipse_235-3" data-name="Ellipse 235" class="cls-4" cx="1.359" cy="1.359" r="1.359" transform="translate(57.699 21.588)"/>
        <circle id="Ellipse_236-3" data-name="Ellipse 236" class="cls-4" cx="1.359" cy="1.359" r="1.359" transform="translate(55.259 16.151)"/>
        <circle id="Ellipse_237-3" data-name="Ellipse 237" class="cls-4" cx="1.359" cy="1.359" r="1.359" transform="translate(51.704 11.34)"/>
        <circle id="Ellipse_238-3" data-name="Ellipse 238" class="cls-4" cx="1.359" cy="1.359" r="1.359" transform="translate(47.243 7.367)"/>
        <circle id="Ellipse_239-3" data-name="Ellipse 239" class="cls-4" cx="1.359" cy="1.359" r="1.359" transform="translate(42.084 4.369)"/>
        <circle id="Ellipse_240-3" data-name="Ellipse 240" class="cls-4" cx="1.359" cy="1.359" r="1.359" transform="translate(36.367 2.557)"/>
        <g id="Group_639-3" data-name="Group 639" transform="translate(22.843 13.501)">
          <path id="Path_814-3" data-name="Path 814" class="cls-4" d="M84.119,66.8V57.357L76.659,53,69.2,57.357V66.8H84.119Z" transform="translate(-67.597 -47.702)"/>
          <path id="Path_815-3" data-name="Path 815" class="cls-4" d="M73.663,95.8H64.6v5.96l9.063,4.392h0l9.063-4.392V95.8Z" transform="translate(-64.6 -75.583)"/>
          <path id="Path_816-3" data-name="Path 816" class="cls-4" d="M87.24,127.283l-.418.209-.418-.209-.871-.383-.732,4.775h4.078l-.767-4.775Z" transform="translate(-77.759 -95.843)"/>
          <path id="Path_817-3" data-name="Path 817" class="cls-4" d="M86.4,42.192l.418-.209.418.209.871.418.767-4.81H84.8l.732,4.81Z" transform="translate(-77.759 -37.8)"/>
        </g>
      </g>
      <ellipse id="Ellipse_208" data-name="Ellipse 208" class="cls-5" cx="24.754" cy="24.754" rx="24.754" ry="24.754" transform="translate(1305.94 4819.143) rotate(-89.573)"/>
      <path id="Path_812" data-name="Path 812" class="cls-5" d="M330.918,0H59.67A25.965,25.965,0,0,0,33.8,25.939V89.463h94.9a20.563,20.563,0,0,1,20.57,20.57V136.81a20.563,20.563,0,0,1-20.57,20.57H33.8v65.476A26.025,26.025,0,0,0,59.739,248.8H330.988a26.025,26.025,0,0,0,25.939-25.939V25.939A26.13,26.13,0,0,0,330.918,0Z" transform="translate(1223.272 4672.004)"/>
      <path id="Path_813" data-name="Path 813" class="cls-5" d="M20.57,128.2A20.623,20.623,0,0,0,0,148.84v26.776a20.563,20.563,0,0,0,20.57,20.57H23.5V128.2H20.57Z" transform="translate(1233.504 4633.198)"/>
      <ellipse id="Ellipse_207" data-name="Ellipse 207" class="cls-6" cx="24.754" cy="24.754" rx="24.754" ry="24.754" transform="translate(1293.389 4809.38) rotate(-89.573)"/>
      <path id="Path_810" data-name="Path 810" class="cls-6" d="M330.918,0H59.67A25.965,25.965,0,0,0,33.8,25.939V89.463h94.9a20.563,20.563,0,0,1,20.57,20.57V136.81a20.563,20.563,0,0,1-20.57,20.57H33.8v65.476A26.025,26.025,0,0,0,59.739,248.8H330.988a26.025,26.025,0,0,0,25.939-25.939V25.939A26.13,26.13,0,0,0,330.918,0Z" transform="translate(1210.722 4662.242)"/>
      <path id="Path_811" data-name="Path 811" class="cls-6" d="M20.57,128.2A20.623,20.623,0,0,0,0,148.84v26.776a20.563,20.563,0,0,0,20.57,20.57H23.5V128.2H20.57Z" transform="translate(1220.953 4623.436)"/>
    </g>
  </g>
</svg>
