<?xml version="1.0" encoding="utf-8"?>
<!-- Generator: Adobe Illustrator 21.0.2, SVG Export Plug-In . SVG Version: 6.00 Build 0)  -->
<svg version="1.1" id="Ebene_1" xmlns="http://www.w3.org/2000/svg" xmlns:xlink="http://www.w3.org/1999/xlink" x="0px" y="0px"
	 viewBox="0 0 1024 768" style="enable-background:new 0 0 1024 768;" xml:space="preserve">
<style type="text/css">
	.st0{fill:#FFFFFF;}
	.st1{fill:#FF5C5C;}
</style>
<g>
	<path d="M381.8,309.8c20.1-23.6,40.4-47,59.9-71.1c13.7-16.9,26.1-34.8,39.4-52.7c0.1,0.1,0.2,0.2,0.2,0.3v347.1
		c-14.8,0-32.1,0-47,0c2.5-4.4,7.3-15.5,9.3-19.5c7.7-14.9,15.7-29.7,22.9-44.8c3.1-6.5,4.5-13.8,3.6-21.3c-0.9,0-1.3-0.1-1.5,0
		c-0.9,0.4-1.7,0.9-2.6,1.4c-15.7,9.1-32.5,14.3-50.8,14.3c-21.2,0-40.2-6-55.1-21.5c-19.1-19.8-21.2-43.8-14.7-69.1
		C351.6,348.7,365.7,328.7,381.8,309.8z"/>
	<path d="M503.6,229.6h-16.7c-1.1,0-2-0.9-2-2v-16.7c0-1.1,0.9-2,2-2h16.7c1.1,0,2,0.9,2,2v16.7
		C505.7,228.7,504.8,229.6,503.6,229.6z"/>
	<path d="M503.6,252.4h-16.7c-1.1,0-2-0.9-2-2v-16.7c0-1.1,0.9-2,2-2h16.7c1.1,0,2,0.9,2,2v16.7
		C505.7,251.5,504.8,252.4,503.6,252.4z"/>
	<path d="M503.6,275.9h-16.7c-1.1,0-2-0.9-2-2v-16.7c0-1.1,0.9-2,2-2h16.7c1.1,0,2,0.9,2,2v16.7C505.7,275,504.8,275.9,503.6,275.9z
		"/>
	<path d="M503.6,298.9h-16.7c-1.1,0-2-0.9-2-2v-16.7c0-1.1,0.9-2,2-2h16.7c1.1,0,2,0.9,2,2v16.7C505.7,298,504.8,298.9,503.6,298.9z
		"/>
	<path d="M503.6,322.2h-16.7c-1.1,0-2-0.9-2-2v-16.7c0-1.1,0.9-2,2-2h16.7c1.1,0,2,0.9,2,2v16.7
		C505.7,321.3,504.8,322.2,503.6,322.2z"/>
	<path d="M503.6,345.3h-16.7c-1.1,0-2-0.9-2-2v-16.7c0-1.1,0.9-2,2-2h16.7c1.1,0,2,0.9,2,2v16.7
		C505.7,344.4,504.8,345.3,503.6,345.3z"/>
	<path d="M503.6,367.5h-16.7c-1.1,0-2-0.9-2-2v-16.7c0-1.1,0.9-2,2-2h16.7c1.1,0,2,0.9,2,2v16.7
		C505.7,366.6,504.8,367.5,503.6,367.5z"/>
	<path d="M503.6,389.4h-16.7c-1.1,0-2-0.9-2-2v-16.7c0-1.1,0.9-2,2-2h16.7c1.1,0,2,0.9,2,2v16.7
		C505.7,388.4,504.8,389.4,503.6,389.4z"/>
	<path d="M503.6,413.1h-16.7c-1.1,0-2-0.9-2-2v-16.7c0-1.1,0.9-2,2-2h16.7c1.1,0,2,0.9,2,2v16.7
		C505.7,412.2,504.8,413.1,503.6,413.1z"/>
	<path d="M503.6,435.9h-16.7c-1.1,0-2-0.9-2-2v-16.7c0-1.1,0.9-2,2-2h16.7c1.1,0,2,0.9,2,2v16.7C505.7,435,504.8,435.9,503.6,435.9z
		"/>
	<path class="st1" d="M527.1,253.2h-16.7c-1.1,0-2-0.9-2-2v-16.7c0-1.1,0.9-2,2-2h16.7c1.1,0,2,0.9,2,2v16.7
		C529.2,252.3,528.3,253.2,527.1,253.2z"/>
	<path d="M527.1,275.9h-16.7c-1.1,0-2-0.9-2-2v-16.7c0-1.1,0.9-2,2-2h16.7c1.1,0,2,0.9,2,2v16.7C529.2,275,528.3,275.9,527.1,275.9z
		"/>
	<path class="st1" d="M527.1,298.9h-16.7c-1.1,0-2-0.9-2-2v-16.7c0-1.1,0.9-2,2-2h16.7c1.1,0,2,0.9,2,2v16.7
		C529.2,298,528.3,298.9,527.1,298.9z"/>
	<path d="M527.1,322.2h-16.7c-1.1,0-2-0.9-2-2v-16.7c0-1.1,0.9-2,2-2h16.7c1.1,0,2,0.9,2,2v16.7
		C529.2,321.3,528.3,322.2,527.1,322.2z"/>
	<path d="M527.1,345.3h-16.7c-1.1,0-2-0.9-2-2v-16.7c0-1.1,0.9-2,2-2h16.7c1.1,0,2,0.9,2,2v16.7
		C529.2,344.4,528.3,345.3,527.1,345.3z"/>
	<path class="st1" d="M527.1,367.6h-16.7c-1.1,0-2-0.9-2-2v-16.7c0-1.1,0.9-2,2-2h16.7c1.1,0,2,0.9,2,2v16.7
		C529.2,366.7,528.3,367.6,527.1,367.6z"/>
	<path d="M527.1,389.6h-16.7c-1.1,0-2-0.9-2-2v-16.7c0-1.1,0.9-2,2-2h16.7c1.1,0,2,0.9,2,2v16.7
		C529.2,388.6,528.3,389.6,527.1,389.6z"/>
	<path d="M527.1,412.9h-16.7c-1.1,0-2-0.9-2-2v-16.7c0-1.1,0.9-2,2-2h16.7c1.1,0,2,0.9,2,2v16.7C529.2,412,528.3,412.9,527.1,412.9z
		"/>
	<path class="st1" d="M527.1,435.9h-16.7c-1.1,0-2-0.9-2-2v-16.7c0-1.1,0.9-2,2-2h16.7c1.1,0,2,0.9,2,2v16.7
		C529.2,435,528.3,435.9,527.1,435.9z"/>
	<path d="M504,508.5h-16.7c-1.1,0-2-0.9-2-2v-16.7c0-1.1,0.9-2,2-2H504c1.1,0,2,0.9,2,2v16.7C506.1,507.6,505.1,508.5,504,508.5z"/>
	<path d="M504,533h-16.7c-1.1,0-2-0.9-2-2v-16.7c0-1.1,0.9-2,2-2H504c1.1,0,2,0.9,2,2V531C506.1,532.1,505.1,533,504,533z"/>
	<path class="st1" d="M551,275.9h-16.7c-1.1,0-2-0.9-2-2v-16.7c0-1.1,0.9-2,2-2H551c1.1,0,2,0.9,2,2v16.7
		C553.1,275,552.1,275.9,551,275.9z"/>
	<path d="M551,298.9h-16.7c-1.1,0-2-0.9-2-2v-16.7c0-1.1,0.9-2,2-2H551c1.1,0,2,0.9,2,2v16.7C553.1,298,552.1,298.9,551,298.9z"/>
	<path class="st1" d="M551,322.2h-16.7c-1.1,0-2-0.9-2-2v-16.7c0-1.1,0.9-2,2-2H551c1.1,0,2,0.9,2,2v16.7
		C553.1,321.3,552.1,322.2,551,322.2z"/>
	<path d="M551,345.5h-16.7c-1.1,0-2-0.9-2-2v-16.7c0-1.1,0.9-2,2-2H551c1.1,0,2,0.9,2,2v16.7C553.1,344.6,552.1,345.5,551,345.5z"/>
	<path class="st1" d="M551,367.6h-16.7c-1.1,0-2-0.9-2-2v-16.7c0-1.1,0.9-2,2-2H551c1.1,0,2,0.9,2,2v16.7
		C553.1,366.7,552.1,367.6,551,367.6z"/>
	<path d="M551,389.6h-16.7c-1.1,0-2-0.9-2-2v-16.7c0-1.1,0.9-2,2-2H551c1.1,0,2,0.9,2,2v16.7C553.1,388.6,552.1,389.6,551,389.6z"/>
	<path class="st1" d="M551,412.9h-16.7c-1.1,0-2-0.9-2-2v-16.7c0-1.1,0.9-2,2-2H551c1.1,0,2,0.9,2,2v16.7
		C553.1,412,552.1,412.9,551,412.9z"/>
	<path d="M551,435.7h-16.7c-1.1,0-2-0.9-2-2v-16.7c0-1.1,0.9-2,2-2H551c1.1,0,2,0.9,2,2v16.7C553.1,434.8,552.1,435.7,551,435.7z"/>
	<path class="st1" d="M551,459.9h-16.7c-1.1,0-2-0.9-2-2v-16.7c0-1.1,0.9-2,2-2H551c1.1,0,2,0.9,2,2v16.7
		C553.1,458.9,552.1,459.9,551,459.9z"/>
	<path d="M527.1,460h-16.7c-1.1,0-2-0.9-2-2v-16.7c0-1.1,0.9-2,2-2h16.7c1.1,0,2,0.9,2,2v16.7C529.2,459,528.3,460,527.1,460z"/>
	<path class="st1" d="M574.9,298.9h-16.7c-1.1,0-2-0.9-2-2v-16.7c0-1.1,0.9-2,2-2h16.7c1.1,0,2,0.9,2,2v16.7
		C577,298,576,298.9,574.9,298.9z"/>
	<path d="M574.9,322.2h-16.7c-1.1,0-2-0.9-2-2v-16.7c0-1.1,0.9-2,2-2h16.7c1.1,0,2,0.9,2,2v16.7C577,321.3,576,322.2,574.9,322.2z"
		/>
	<path class="st1" d="M574.9,345.5h-16.7c-1.1,0-2-0.9-2-2v-16.7c0-1.1,0.9-2,2-2h16.7c1.1,0,2,0.9,2,2v16.7
		C577,344.6,576,345.5,574.9,345.5z"/>
	<path d="M574.9,367.6h-16.7c-1.1,0-2-0.9-2-2v-16.7c0-1.1,0.9-2,2-2h16.7c1.1,0,2,0.9,2,2v16.7C577,366.7,576,367.6,574.9,367.6z"
		/>
	<path class="st1" d="M574.9,389.6h-16.7c-1.1,0-2-0.9-2-2v-16.7c0-1.1,0.9-2,2-2h16.7c1.1,0,2,0.9,2,2v16.7
		C577,388.6,576,389.6,574.9,389.6z"/>
	<path class="st1" d="M574.9,412.9h-16.7c-1.1,0-2-0.9-2-2v-16.7c0-1.1,0.9-2,2-2h16.7c1.1,0,2,0.9,2,2v16.7
		C577,412,576,412.9,574.9,412.9z"/>
	<path class="st1" d="M574.9,435.7h-16.7c-1.1,0-2-0.9-2-2v-16.7c0-1.1,0.9-2,2-2h16.7c1.1,0,2,0.9,2,2v16.7
		C577,434.8,576,435.7,574.9,435.7z"/>
	<path class="st1" d="M574.9,459.9h-16.7c-1.1,0-2-0.9-2-2v-16.7c0-1.1,0.9-2,2-2h16.7c1.1,0,2,0.9,2,2v16.7
		C577,458.9,576,459.9,574.9,459.9z"/>
	<path class="st1" d="M592.4,316.6h-7.8c-1,0-1.9-0.8-1.9-1.9v-7.8c0-1,0.8-1.9,1.9-1.9h7.8c1,0,1.9,0.8,1.9,1.9v7.8
		C594.3,315.8,593.5,316.6,592.4,316.6z"/>
	<path class="st1" d="M592.4,339.9h-7.8c-1,0-1.9-0.8-1.9-1.9v-7.8c0-1,0.8-1.9,1.9-1.9h7.8c1,0,1.9,0.8,1.9,1.9v7.8
		C594.3,339,593.5,339.9,592.4,339.9z"/>
	<path class="st1" d="M592.5,362h-8c-1,0-1.8-0.8-1.8-1.8v-8c0-1,0.8-1.8,1.8-1.8h8c1,0,1.8,0.8,1.8,1.8v8
		C594.3,361.2,593.5,362,592.5,362z"/>
	<path class="st1" d="M592.5,383.9h-7.9c-1,0-1.8-0.8-1.8-1.8v-7.9c0-1,0.8-1.8,1.8-1.8h7.9c1,0,1.8,0.8,1.8,1.8v7.9
		C594.3,383.1,593.5,383.9,592.5,383.9z"/>
	<path class="st1" d="M592.4,407.2h-7.9c-1,0-1.9-0.8-1.9-1.9v-7.9c0-1,0.8-1.9,1.9-1.9h7.9c1,0,1.9,0.8,1.9,1.9v7.9
		C594.3,406.4,593.5,407.2,592.4,407.2z"/>
	<path d="M592.3,430.1h-7.5c-1.1,0-2-0.9-2-2v-7.5c0-1.1,0.9-2,2-2h7.5c1.1,0,2,0.9,2,2v7.5C594.3,429.2,593.4,430.1,592.3,430.1z"
		/>
	<path class="st1" d="M593,454.2H584c-0.7,0-1.2-0.6-1.2-1.2v-9.1c0-0.7,0.6-1.2,1.2-1.2h9.1c0.7,0,1.2,0.6,1.2,1.2v9.1
		C594.3,453.7,593.7,454.2,593,454.2z"/>
	<path class="st1" d="M615.5,356.5h-5.6c-0.3,0-0.5-0.2-0.5-0.5v-5.6c0-0.3,0.2-0.5,0.5-0.5h5.6c0.3,0,0.5,0.2,0.5,0.5v5.6
		C616,356.3,615.8,356.5,615.5,356.5z"/>
	<path class="st1" d="M615.4,378.5h-5.6c-0.3,0-0.6-0.2-0.6-0.6v-5.6c0-0.3,0.2-0.6,0.6-0.6h5.6c0.3,0,0.6,0.2,0.6,0.6v5.6
		C616,378.2,615.8,378.5,615.4,378.5z"/>
	<path class="st1" d="M615,401.8h-5.5c-0.3,0-0.6-0.3-0.6-0.6v-5.5c0-0.3,0.3-0.6,0.6-0.6h5.5c0.3,0,0.6,0.3,0.6,0.6v5.5
		C615.6,401.6,615.4,401.8,615,401.8z"/>
	<path class="st1" d="M615.1,424.6h-5.6c-0.3,0-0.5-0.2-0.5-0.5v-5.6c0-0.3,0.2-0.5,0.5-0.5h5.6c0.3,0,0.5,0.2,0.5,0.5v5.6
		C615.6,424.4,615.4,424.6,615.1,424.6z"/>
	<path d="M521.1,515.8h-7.5c-1.1,0-2-0.9-2-2v-7.5c0-1.1,0.9-2,2-2h7.5c1.1,0,2,0.9,2,2v7.5C523.2,514.9,522.3,515.8,521.1,515.8z"
		/>
	<path d="M521.2,532H514c-1.2,0-2.2-1-2.2-2.2v-7.2c0-1.2,1-2.2,2.2-2.2h7.2c1.2,0,2.2,1,2.2,2.2v7.2
		C523.4,531.1,522.4,532,521.2,532z"/>
	<rect x="489.1" y="444.5" width="11.6" height="11.6"/>
	<path class="st1" d="M498.9,479.6h-8c-1,0-1.8-0.8-1.8-1.8v-8c0-1,0.8-1.8,1.8-1.8h8c1,0,1.8,0.8,1.8,1.8v8
		C500.7,478.8,499.9,479.6,498.9,479.6z"/>
	<path d="M535.1,532h-7.2c-1.2,0-2.2-1-2.2-2.2v-7.2c0-1.2,1-2.2,2.2-2.2h7.2c1.2,0,2.2,1,2.2,2.2v7.2
		C537.3,531,536.3,532,535.1,532z"/>
</g>
<path class="st1" d="M498.4,203.7h-6.3c-1.4,0-2.6-1.2-2.6-2.6v-6.3c0-1.4,1.2-2.6,2.6-2.6h6.3c1.4,0,2.6,1.2,2.6,2.6v6.3
	C501,202.5,499.9,203.7,498.4,203.7z"/>
</svg>
