<?xml version="1.0" encoding="UTF-8" standalone="no"?>
<!-- Generator: Adobe Illustrator 21.1.0, SVG Export Plug-In . SVG Version: 6.00 Build 0)  -->

<svg
   xmlns:dc="http://purl.org/dc/elements/1.1/"
   xmlns:cc="http://creativecommons.org/ns#"
   xmlns:rdf="http://www.w3.org/1999/02/22-rdf-syntax-ns#"
   xmlns:svg="http://www.w3.org/2000/svg"
   xmlns="http://www.w3.org/2000/svg"
   xmlns:sodipodi="http://sodipodi.sourceforge.net/DTD/sodipodi-0.dtd"
   xmlns:inkscape="http://www.inkscape.org/namespaces/inkscape"
   version="1.1"
   id="Ebene_1"
   x="0px"
   y="0px"
   viewBox="0 0 1024 768"
   style="enable-background:new 0 0 1024 768;"
   xml:space="preserve"
   inkscape:version="0.91 r13725"
   sodipodi:docname="acebusters_logo_landing_page.svg"><metadata
     id="metadata149"><rdf:RDF><cc:Work
         rdf:about=""><dc:format>image/svg+xml</dc:format><dc:type
           rdf:resource="http://purl.org/dc/dcmitype/StillImage" /><dc:title /></cc:Work></rdf:RDF></metadata><defs
     id="defs147" /><sodipodi:namedview
     pagecolor="#ffffff"
     bordercolor="#666666"
     borderopacity="1"
     objecttolerance="10"
     gridtolerance="10"
     guidetolerance="10"
     inkscape:pageopacity="0"
     inkscape:pageshadow="2"
     inkscape:window-width="1280"
     inkscape:window-height="751"
     id="namedview145"
     showgrid="true"
     inkscape:zoom="2.4583333"
     inkscape:cx="511.99947"
     inkscape:cy="630.57365"
     inkscape:window-x="0"
     inkscape:window-y="1"
     inkscape:window-maximized="1"
     inkscape:current-layer="Ebene_1"
     inkscape:snap-bbox="true"><inkscape:grid
       type="xygrid"
       id="grid7690" /></sodipodi:namedview><style
     type="text/css"
     id="style3">
	.st0{fill:#252838;}
	.st1{fill:#FF5C5C;}
	.st2{fill:#FFFFFF;}
</style><g
     id="g7"
     transform="translate(54.962027,-16.271186)"><path
       class="st2"
       d="m 359.8,256.8 c 20.1,-23.6 40.4,-47 59.9,-71.1 13.7,-16.9 26.1,-34.8 39.4,-52.7 0.1,0.1 0.2,0.2 0.2,0.3 l 0,347.1 c -14.8,0 -32.1,0 -47,0 2.5,-4.4 7.3,-15.5 9.3,-19.5 7.7,-14.9 15.7,-29.7 22.9,-44.8 3.1,-6.5 4.5,-13.8 3.6,-21.3 -0.9,0 -1.3,-0.1 -1.5,0 -0.9,0.4 -1.7,0.9 -2.6,1.4 -15.7,9.1 -32.5,14.3 -50.8,14.3 -21.2,0 -40.2,-6 -55.1,-21.5 -19.1,-19.8 -21.2,-43.8 -14.7,-69.1 6.2,-24.2 20.3,-44.2 36.4,-63.1 z"
       id="path9"
       inkscape:connector-curvature="0"
       style="fill:#ffffff" /><path
       class="st2"
       d="m 481.6,176.6 -16.7,0 c -1.1,0 -2,-0.9 -2,-2 l 0,-16.7 c 0,-1.1 0.9,-2 2,-2 l 16.7,0 c 1.1,0 2,0.9 2,2 l 0,16.7 c 0.1,1.1 -0.8,2 -2,2 z"
       id="path11"
       inkscape:connector-curvature="0"
       style="fill:#ffffff" /><path
       class="st2"
       d="m 481.6,199.4 -16.7,0 c -1.1,0 -2,-0.9 -2,-2 l 0,-16.7 c 0,-1.1 0.9,-2 2,-2 l 16.7,0 c 1.1,0 2,0.9 2,2 l 0,16.7 c 0.1,1.1 -0.8,2 -2,2 z"
       id="path13"
       inkscape:connector-curvature="0"
       style="fill:#ffffff" /><path
       class="st2"
       d="m 481.6,222.9 -16.7,0 c -1.1,0 -2,-0.9 -2,-2 l 0,-16.7 c 0,-1.1 0.9,-2 2,-2 l 16.7,0 c 1.1,0 2,0.9 2,2 l 0,16.7 c 0.1,1.1 -0.8,2 -2,2 z"
       id="path15"
       inkscape:connector-curvature="0"
       style="fill:#ffffff" /><path
       class="st2"
       d="m 481.6,245.9 -16.7,0 c -1.1,0 -2,-0.9 -2,-2 l 0,-16.7 c 0,-1.1 0.9,-2 2,-2 l 16.7,0 c 1.1,0 2,0.9 2,2 l 0,16.7 c 0.1,1.1 -0.8,2 -2,2 z"
       id="path17"
       inkscape:connector-curvature="0"
       style="fill:#ffffff" /><path
       class="st2"
       d="m 481.6,269.2 -16.7,0 c -1.1,0 -2,-0.9 -2,-2 l 0,-16.7 c 0,-1.1 0.9,-2 2,-2 l 16.7,0 c 1.1,0 2,0.9 2,2 l 0,16.7 c 0.1,1.1 -0.8,2 -2,2 z"
       id="path19"
       inkscape:connector-curvature="0"
       style="fill:#ffffff" /><path
       class="st2"
       d="m 481.6,292.3 -16.7,0 c -1.1,0 -2,-0.9 -2,-2 l 0,-16.7 c 0,-1.1 0.9,-2 2,-2 l 16.7,0 c 1.1,0 2,0.9 2,2 l 0,16.7 c 0.1,1.1 -0.8,2 -2,2 z"
       id="path21"
       inkscape:connector-curvature="0"
       style="fill:#ffffff" /><path
       class="st2"
       d="m 481.6,314.5 -16.7,0 c -1.1,0 -2,-0.9 -2,-2 l 0,-16.7 c 0,-1.1 0.9,-2 2,-2 l 16.7,0 c 1.1,0 2,0.9 2,2 l 0,16.7 c 0.1,1.1 -0.8,2 -2,2 z"
       id="path23"
       inkscape:connector-curvature="0"
       style="fill:#ffffff" /><path
       class="st2"
       d="m 481.6,336.4 -16.7,0 c -1.1,0 -2,-0.9 -2,-2 l 0,-16.7 c 0,-1.1 0.9,-2 2,-2 l 16.7,0 c 1.1,0 2,0.9 2,2 l 0,16.7 c 0.1,1 -0.8,2 -2,2 z"
       id="path25"
       inkscape:connector-curvature="0"
       style="fill:#ffffff" /><path
       class="st2"
       d="m 481.6,360.1 -16.7,0 c -1.1,0 -2,-0.9 -2,-2 l 0,-16.7 c 0,-1.1 0.9,-2 2,-2 l 16.7,0 c 1.1,0 2,0.9 2,2 l 0,16.7 c 0.1,1.1 -0.8,2 -2,2 z"
       id="path27"
       inkscape:connector-curvature="0"
       style="fill:#ffffff" /><path
       class="st2"
       d="m 481.6,382.9 -16.7,0 c -1.1,0 -2,-0.9 -2,-2 l 0,-16.7 c 0,-1.1 0.9,-2 2,-2 l 16.7,0 c 1.1,0 2,0.9 2,2 l 0,16.7 c 0.1,1.1 -0.8,2 -2,2 z"
       id="path29"
       inkscape:connector-curvature="0"
       style="fill:#ffffff" /><path
       class="st1"
       d="m 505.1,200.2 -16.7,0 c -1.1,0 -2,-0.9 -2,-2 l 0,-16.7 c 0,-1.1 0.9,-2 2,-2 l 16.7,0 c 1.1,0 2,0.9 2,2 l 0,16.7 c 0.1,1.1 -0.8,2 -2,2 z"
       id="path31"
       inkscape:connector-curvature="0"
       style="fill:#ff5c5c" /><path
       class="st2"
       d="m 505.1,222.9 -16.7,0 c -1.1,0 -2,-0.9 -2,-2 l 0,-16.7 c 0,-1.1 0.9,-2 2,-2 l 16.7,0 c 1.1,0 2,0.9 2,2 l 0,16.7 c 0.1,1.1 -0.8,2 -2,2 z"
       id="path33"
       inkscape:connector-curvature="0"
       style="fill:#ffffff" /><path
       class="st1"
       d="m 505.1,245.9 -16.7,0 c -1.1,0 -2,-0.9 -2,-2 l 0,-16.7 c 0,-1.1 0.9,-2 2,-2 l 16.7,0 c 1.1,0 2,0.9 2,2 l 0,16.7 c 0.1,1.1 -0.8,2 -2,2 z"
       id="path35"
       inkscape:connector-curvature="0"
       style="fill:#ff5c5c" /><path
       class="st2"
       d="m 505.1,269.2 -16.7,0 c -1.1,0 -2,-0.9 -2,-2 l 0,-16.7 c 0,-1.1 0.9,-2 2,-2 l 16.7,0 c 1.1,0 2,0.9 2,2 l 0,16.7 c 0.1,1.1 -0.8,2 -2,2 z"
       id="path37"
       inkscape:connector-curvature="0"
       style="fill:#ffffff" /><path
       class="st2"
       d="m 505.1,292.3 -16.7,0 c -1.1,0 -2,-0.9 -2,-2 l 0,-16.7 c 0,-1.1 0.9,-2 2,-2 l 16.7,0 c 1.1,0 2,0.9 2,2 l 0,16.7 c 0.1,1.1 -0.8,2 -2,2 z"
       id="path39"
       inkscape:connector-curvature="0"
       style="fill:#ffffff" /><path
       class="st1"
       d="m 505.1,314.6 -16.7,0 c -1.1,0 -2,-0.9 -2,-2 l 0,-16.7 c 0,-1.1 0.9,-2 2,-2 l 16.7,0 c 1.1,0 2,0.9 2,2 l 0,16.7 c 0.1,1.1 -0.8,2 -2,2 z"
       id="path41"
       inkscape:connector-curvature="0"
       style="fill:#ff5c5c" /><path
       class="st2"
       d="m 505.1,336.6 -16.7,0 c -1.1,0 -2,-0.9 -2,-2 l 0,-16.7 c 0,-1.1 0.9,-2 2,-2 l 16.7,0 c 1.1,0 2,0.9 2,2 l 0,16.7 c 0.1,1 -0.8,2 -2,2 z"
       id="path43"
       inkscape:connector-curvature="0"
       style="fill:#ffffff" /><path
       class="st2"
       d="m 505.1,359.9 -16.7,0 c -1.1,0 -2,-0.9 -2,-2 l 0,-16.7 c 0,-1.1 0.9,-2 2,-2 l 16.7,0 c 1.1,0 2,0.9 2,2 l 0,16.7 c 0.1,1.1 -0.8,2 -2,2 z"
       id="path45"
       inkscape:connector-curvature="0"
       style="fill:#ffffff" /><path
       class="st1"
       d="m 505.1,382.9 -16.7,0 c -1.1,0 -2,-0.9 -2,-2 l 0,-16.7 c 0,-1.1 0.9,-2 2,-2 l 16.7,0 c 1.1,0 2,0.9 2,2 l 0,16.7 c 0.1,1.1 -0.8,2 -2,2 z"
       id="path47"
       inkscape:connector-curvature="0"
       style="fill:#ff5c5c" /><path
       class="st2"
       d="m 482,455.5 -16.7,0 c -1.1,0 -2,-0.9 -2,-2 l 0,-16.7 c 0,-1.1 0.9,-2 2,-2 l 16.7,0 c 1.1,0 2,0.9 2,2 l 0,16.7 c 0.1,1.1 -0.9,2 -2,2 z"
       id="path49"
       inkscape:connector-curvature="0"
       style="fill:#ffffff" /><path
       class="st2"
       d="m 482,480 -16.7,0 c -1.1,0 -2,-0.9 -2,-2 l 0,-16.7 c 0,-1.1 0.9,-2 2,-2 l 16.7,0 c 1.1,0 2,0.9 2,2 l 0,16.7 c 0.1,1.1 -0.9,2 -2,2 z"
       id="path51"
       inkscape:connector-curvature="0"
       style="fill:#ffffff" /><path
       class="st1"
       d="m 529,222.9 -16.7,0 c -1.1,0 -2,-0.9 -2,-2 l 0,-16.7 c 0,-1.1 0.9,-2 2,-2 l 16.7,0 c 1.1,0 2,0.9 2,2 l 0,16.7 c 0.1,1.1 -0.9,2 -2,2 z"
       id="path53"
       inkscape:connector-curvature="0"
       style="fill:#ff5c5c" /><path
       class="st2"
       d="m 529,245.9 -16.7,0 c -1.1,0 -2,-0.9 -2,-2 l 0,-16.7 c 0,-1.1 0.9,-2 2,-2 l 16.7,0 c 1.1,0 2,0.9 2,2 l 0,16.7 c 0.1,1.1 -0.9,2 -2,2 z"
       id="path55"
       inkscape:connector-curvature="0"
       style="fill:#ffffff" /><path
       class="st1"
       d="m 529,269.2 -16.7,0 c -1.1,0 -2,-0.9 -2,-2 l 0,-16.7 c 0,-1.1 0.9,-2 2,-2 l 16.7,0 c 1.1,0 2,0.9 2,2 l 0,16.7 c 0.1,1.1 -0.9,2 -2,2 z"
       id="path57"
       inkscape:connector-curvature="0"
       style="fill:#ff5c5c" /><path
       class="st2"
       d="m 529,292.5 -16.7,0 c -1.1,0 -2,-0.9 -2,-2 l 0,-16.7 c 0,-1.1 0.9,-2 2,-2 l 16.7,0 c 1.1,0 2,0.9 2,2 l 0,16.7 c 0.1,1.1 -0.9,2 -2,2 z"
       id="path59"
       inkscape:connector-curvature="0"
       style="fill:#ffffff" /><path
       class="st1"
       d="m 529,314.6 -16.7,0 c -1.1,0 -2,-0.9 -2,-2 l 0,-16.7 c 0,-1.1 0.9,-2 2,-2 l 16.7,0 c 1.1,0 2,0.9 2,2 l 0,16.7 c 0.1,1.1 -0.9,2 -2,2 z"
       id="path61"
       inkscape:connector-curvature="0"
       style="fill:#ff5c5c" /><path
       class="st2"
       d="m 529,336.6 -16.7,0 c -1.1,0 -2,-0.9 -2,-2 l 0,-16.7 c 0,-1.1 0.9,-2 2,-2 l 16.7,0 c 1.1,0 2,0.9 2,2 l 0,16.7 c 0.1,1 -0.9,2 -2,2 z"
       id="path63"
       inkscape:connector-curvature="0"
       style="fill:#ffffff" /><path
       class="st1"
       d="m 529,359.9 -16.7,0 c -1.1,0 -2,-0.9 -2,-2 l 0,-16.7 c 0,-1.1 0.9,-2 2,-2 l 16.7,0 c 1.1,0 2,0.9 2,2 l 0,16.7 c 0.1,1.1 -0.9,2 -2,2 z"
       id="path65"
       inkscape:connector-curvature="0"
       style="fill:#ff5c5c" /><path
       class="st2"
       d="m 529,382.7 -16.7,0 c -1.1,0 -2,-0.9 -2,-2 l 0,-16.7 c 0,-1.1 0.9,-2 2,-2 l 16.7,0 c 1.1,0 2,0.9 2,2 l 0,16.7 c 0.1,1.1 -0.9,2 -2,2 z"
       id="path67"
       inkscape:connector-curvature="0"
       style="fill:#ffffff" /><path
       class="st1"
       d="m 529,406.9 -16.7,0 c -1.1,0 -2,-0.9 -2,-2 l 0,-16.7 c 0,-1.1 0.9,-2 2,-2 l 16.7,0 c 1.1,0 2,0.9 2,2 l 0,16.7 c 0.1,1 -0.9,2 -2,2 z"
       id="path69"
       inkscape:connector-curvature="0"
       style="fill:#ff5c5c" /><path
       class="st2"
       d="m 505.1,407 -16.7,0 c -1.1,0 -2,-0.9 -2,-2 l 0,-16.7 c 0,-1.1 0.9,-2 2,-2 l 16.7,0 c 1.1,0 2,0.9 2,2 l 0,16.7 c 0.1,1 -0.8,2 -2,2 z"
       id="path71"
       inkscape:connector-curvature="0"
       style="fill:#ffffff" /><path
       class="st1"
       d="m 552.9,245.9 -16.7,0 c -1.1,0 -2,-0.9 -2,-2 l 0,-16.7 c 0,-1.1 0.9,-2 2,-2 l 16.7,0 c 1.1,0 2,0.9 2,2 l 0,16.7 c 0.1,1.1 -0.9,2 -2,2 z"
       id="path73"
       inkscape:connector-curvature="0"
       style="fill:#ff5c5c" /><path
       class="st2"
       d="m 552.9,269.2 -16.7,0 c -1.1,0 -2,-0.9 -2,-2 l 0,-16.7 c 0,-1.1 0.9,-2 2,-2 l 16.7,0 c 1.1,0 2,0.9 2,2 l 0,16.7 c 0.1,1.1 -0.9,2 -2,2 z"
       id="path75"
       inkscape:connector-curvature="0"
       style="fill:#ffffff" /><path
       class="st1"
       d="m 552.9,292.5 -16.7,0 c -1.1,0 -2,-0.9 -2,-2 l 0,-16.7 c 0,-1.1 0.9,-2 2,-2 l 16.7,0 c 1.1,0 2,0.9 2,2 l 0,16.7 c 0.1,1.1 -0.9,2 -2,2 z"
       id="path77"
       inkscape:connector-curvature="0"
       style="fill:#ff5c5c" /><path
       class="st2"
       d="m 552.9,314.6 -16.7,0 c -1.1,0 -2,-0.9 -2,-2 l 0,-16.7 c 0,-1.1 0.9,-2 2,-2 l 16.7,0 c 1.1,0 2,0.9 2,2 l 0,16.7 c 0.1,1.1 -0.9,2 -2,2 z"
       id="path79"
       inkscape:connector-curvature="0"
       style="fill:#ffffff" /><path
       class="st1"
       d="m 552.9,336.6 -16.7,0 c -1.1,0 -2,-0.9 -2,-2 l 0,-16.7 c 0,-1.1 0.9,-2 2,-2 l 16.7,0 c 1.1,0 2,0.9 2,2 l 0,16.7 c 0.1,1 -0.9,2 -2,2 z"
       id="path81"
       inkscape:connector-curvature="0"
       style="fill:#ff5c5c" /><path
       class="st1"
       d="m 552.9,359.9 -16.7,0 c -1.1,0 -2,-0.9 -2,-2 l 0,-16.7 c 0,-1.1 0.9,-2 2,-2 l 16.7,0 c 1.1,0 2,0.9 2,2 l 0,16.7 c 0.1,1.1 -0.9,2 -2,2 z"
       id="path83"
       inkscape:connector-curvature="0"
       style="fill:#ff5c5c" /><path
       class="st1"
       d="m 552.9,382.7 -16.7,0 c -1.1,0 -2,-0.9 -2,-2 l 0,-16.7 c 0,-1.1 0.9,-2 2,-2 l 16.7,0 c 1.1,0 2,0.9 2,2 l 0,16.7 c 0.1,1.1 -0.9,2 -2,2 z"
       id="path85"
       inkscape:connector-curvature="0"
       style="fill:#ff5c5c" /><path
       class="st1"
       d="m 552.9,406.9 -16.7,0 c -1.1,0 -2,-0.9 -2,-2 l 0,-16.7 c 0,-1.1 0.9,-2 2,-2 l 16.7,0 c 1.1,0 2,0.9 2,2 l 0,16.7 c 0.1,1 -0.9,2 -2,2 z"
       id="path87"
       inkscape:connector-curvature="0"
       style="fill:#ff5c5c" /><path
       class="st1"
       d="m 570.4,263.6 -7.8,0 c -1,0 -1.9,-0.8 -1.9,-1.9 l 0,-7.8 c 0,-1 0.8,-1.9 1.9,-1.9 l 7.8,0 c 1,0 1.9,0.8 1.9,1.9 l 0,7.8 c 0,1.1 -0.8,1.9 -1.9,1.9 z"
       id="path89"
       inkscape:connector-curvature="0"
       style="fill:#ff5c5c" /><path
       class="st1"
       d="m 570.4,286.9 -7.8,0 c -1,0 -1.9,-0.8 -1.9,-1.9 l 0,-7.8 c 0,-1 0.8,-1.9 1.9,-1.9 l 7.8,0 c 1,0 1.9,0.8 1.9,1.9 l 0,7.8 c 0,1 -0.8,1.9 -1.9,1.9 z"
       id="path91"
       inkscape:connector-curvature="0"
       style="fill:#ff5c5c" /><path
       class="st1"
       d="m 570.5,309 -8,0 c -1,0 -1.8,-0.8 -1.8,-1.8 l 0,-8 c 0,-1 0.8,-1.8 1.8,-1.8 l 8,0 c 1,0 1.8,0.8 1.8,1.8 l 0,8 c 0,1 -0.8,1.8 -1.8,1.8 z"
       id="path93"
       inkscape:connector-curvature="0"
       style="fill:#ff5c5c" /><path
       class="st1"
       d="m 570.5,330.9 -7.9,0 c -1,0 -1.8,-0.8 -1.8,-1.8 l 0,-7.9 c 0,-1 0.8,-1.8 1.8,-1.8 l 7.9,0 c 1,0 1.8,0.8 1.8,1.8 l 0,7.9 c 0,1 -0.8,1.8 -1.8,1.8 z"
       id="path95"
       inkscape:connector-curvature="0"
       style="fill:#ff5c5c" /><path
       class="st1"
       d="m 570.4,354.2 -7.9,0 c -1,0 -1.9,-0.8 -1.9,-1.9 l 0,-7.9 c 0,-1 0.8,-1.9 1.9,-1.9 l 7.9,0 c 1,0 1.9,0.8 1.9,1.9 l 0,7.9 c 0,1.1 -0.8,1.9 -1.9,1.9 z"
       id="path97"
       inkscape:connector-curvature="0"
       style="fill:#ff5c5c" /><path
       class="st2"
       d="m 570.3,377.1 -7.5,0 c -1.1,0 -2,-0.9 -2,-2 l 0,-7.5 c 0,-1.1 0.9,-2 2,-2 l 7.5,0 c 1.1,0 2,0.9 2,2 l 0,7.5 c 0,1.1 -0.9,2 -2,2 z"
       id="path99"
       inkscape:connector-curvature="0"
       style="fill:#ffffff" /><path
       class="st1"
       d="m 571,401.2 -9,0 c -0.7,0 -1.2,-0.6 -1.2,-1.2 l 0,-9.1 c 0,-0.7 0.6,-1.2 1.2,-1.2 l 9.1,0 c 0.7,0 1.2,0.6 1.2,1.2 l 0,9.1 c 0,0.7 -0.6,1.2 -1.3,1.2 z"
       id="path101"
       inkscape:connector-curvature="0"
       style="fill:#ff5c5c" /><path
       class="st1"
       d="m 593.5,303.5 -5.6,0 c -0.3,0 -0.5,-0.2 -0.5,-0.5 l 0,-5.6 c 0,-0.3 0.2,-0.5 0.5,-0.5 l 5.6,0 c 0.3,0 0.5,0.2 0.5,0.5 l 0,5.6 c 0,0.3 -0.2,0.5 -0.5,0.5 z"
       id="path103"
       inkscape:connector-curvature="0"
       style="fill:#ff5c5c" /><path
       class="st1"
       d="m 593.4,325.5 -5.6,0 c -0.3,0 -0.6,-0.2 -0.6,-0.6 l 0,-5.6 c 0,-0.3 0.2,-0.6 0.6,-0.6 l 5.6,0 c 0.3,0 0.6,0.2 0.6,0.6 l 0,5.6 c 0,0.3 -0.2,0.6 -0.6,0.6 z"
       id="path105"
       inkscape:connector-curvature="0"
       style="fill:#ff5c5c" /><path
       class="st1"
       d="m 593,348.8 -5.5,0 c -0.3,0 -0.6,-0.3 -0.6,-0.6 l 0,-5.5 c 0,-0.3 0.3,-0.6 0.6,-0.6 l 5.5,0 c 0.3,0 0.6,0.3 0.6,0.6 l 0,5.5 c 0,0.4 -0.2,0.6 -0.6,0.6 z"
       id="path107"
       inkscape:connector-curvature="0"
       style="fill:#ff5c5c" /><path
       class="st1"
       d="m 593.1,371.6 -5.6,0 c -0.3,0 -0.5,-0.2 -0.5,-0.5 l 0,-5.6 c 0,-0.3 0.2,-0.5 0.5,-0.5 l 5.6,0 c 0.3,0 0.5,0.2 0.5,0.5 l 0,5.6 c 0,0.3 -0.2,0.5 -0.5,0.5 z"
       id="path109"
       inkscape:connector-curvature="0"
       style="fill:#ff5c5c" /><path
       class="st2"
       d="m 499.1,462.8 -7.5,0 c -1.1,0 -2,-0.9 -2,-2 l 0,-7.5 c 0,-1.1 0.9,-2 2,-2 l 7.5,0 c 1.1,0 2,0.9 2,2 l 0,7.5 c 0.1,1.1 -0.8,2 -2,2 z"
       id="path111"
       inkscape:connector-curvature="0"
       style="fill:#ffffff" /><path
       class="st2"
       d="m 499.2,479 -7.2,0 c -1.2,0 -2.2,-1 -2.2,-2.2 l 0,-7.2 c 0,-1.2 1,-2.2 2.2,-2.2 l 7.2,0 c 1.2,0 2.2,1 2.2,2.2 l 0,7.2 c 0,1.3 -1,2.2 -2.2,2.2 z"
       id="path113"
       inkscape:connector-curvature="0"
       style="fill:#ffffff" /><rect
       x="467.10001"
       y="391.5"
       class="st2"
       width="11.6"
       height="11.6"
       id="rect115"
       style="fill:#ffffff" /><path
       class="st1"
       d="m 476.9,426.6 -8,0 c -1,0 -1.8,-0.8 -1.8,-1.8 l 0,-8 c 0,-1 0.8,-1.8 1.8,-1.8 l 8,0 c 1,0 1.8,0.8 1.8,1.8 l 0,8 c 0,1 -0.8,1.8 -1.8,1.8 z"
       id="path117"
       inkscape:connector-curvature="0"
       style="fill:#ff5c5c" /><path
       class="st2"
       d="m 513.1,479 -7.2,0 c -1.2,0 -2.2,-1 -2.2,-2.2 l 0,-7.2 c 0,-1.2 1,-2.2 2.2,-2.2 l 7.2,0 c 1.2,0 2.2,1 2.2,2.2 l 0,7.2 c 0,1.2 -1,2.2 -2.2,2.2 z"
       id="path119"
       inkscape:connector-curvature="0"
       style="fill:#ffffff" /></g><path
     class="st1"
     d="m 528.98051,132.80169 -6.3,0 c -1.4,0 -2.6,-1.2 -2.6,-2.6 l 0,-6.3 c 0,-1.4 1.2,-2.6 2.6,-2.6 l 6.3,0 c 1.4,0 2.6,1.2 2.6,2.6 l 0,6.3 c 0,1.4 -1.1,2.6 -2.6,2.6 z"
     id="path121"
     inkscape:connector-curvature="0"
     style="fill:#ff5c5c"
     inkscape:transform-center-x="7.322034" /><g
     id="g123"
     transform="translate(32.95,-16.271186)"><path
       class="st1"
       d="m 185.7,601 -5.3,19 -17.3,0 22.5,-74.1 22,0 23.1,74.1 -18.2,0 -5.7,-19 -21.1,0 z m 18.8,-12.5 -4.6,-15.7 c -1.3,-4.4 -2.6,-9.9 -3.7,-14.3 l -0.2,0 c -1.1,4.4 -2.2,10 -3.4,14.3 l -4.4,15.7 16.3,0 z"
       id="path125"
       inkscape:connector-curvature="0"
       style="fill:#ff5c5c" /><path
       class="st1"
       d="m 292.1,618 c -3,1.4 -10,3.2 -18.9,3.2 -25.6,0 -38.8,-16.1 -38.8,-37.2 0,-25.3 18,-39.3 40.5,-39.3 8.7,0 15.3,1.6 18.3,3.3 l -3.5,13.2 c -3.3,-1.4 -8,-2.8 -14.1,-2.8 -13.2,0 -23.5,8 -23.5,24.5 0,14.8 8.8,24.2 23.7,24.2 5.2,0 10.7,-1 14.1,-2.4 l 2.2,13.3 z"
       id="path127"
       inkscape:connector-curvature="0"
       style="fill:#ff5c5c" /><path
       class="st1"
       d="m 347.4,588.7 -27.3,0 0,17.6 30.5,0 0,13.7 -47.2,0 0,-74.1 45.6,0 0,13.8 -28.9,0 0,15.3 27.3,0 0,13.7 z"
       id="path129"
       inkscape:connector-curvature="0"
       style="fill:#ff5c5c" /><path
       class="st2"
       d="m 362,546.9 c 4.4,-0.8 13.2,-1.5 21.7,-1.5 10.2,0 16.5,1 22,4.2 5.2,2.8 8.8,7.8 8.8,14.6 0,6.5 -3.9,12.5 -12.2,15.7 l 0,0.2 c 8.5,2.2 14.7,8.7 14.7,18.2 0,6.8 -3.1,12.1 -7.7,15.8 -5.4,4.3 -14.4,6.7 -29.2,6.7 -8.2,0 -14.4,-0.5 -18.2,-1.1 l 0,-72.8 z m 16.6,28.4 5.5,0 c 8.9,0 13.5,-3.6 13.5,-9.1 0,-5.6 -4.3,-8.6 -11.9,-8.6 -3.7,0 -5.8,0.2 -7.2,0.4 l 0,17.3 z m 0,32.8 c 1.7,0.2 3.6,0.2 6.5,0.2 7.6,0 14.3,-3 14.3,-10.8 0,-7.4 -6.7,-10.3 -15.1,-10.3 l -5.7,0 0,20.9 z"
       id="path131"
       inkscape:connector-curvature="0"
       style="fill:#ffffff" /><path
       class="st2"
       d="m 445.1,545.9 0,42.6 c 0,12.9 4.9,19.4 13.4,19.4 8.8,0 13.6,-6.2 13.6,-19.4 l 0,-42.6 16.7,0 0,41.6 c 0,22.9 -11.6,33.8 -30.9,33.8 -18.7,0 -29.6,-10.5 -29.6,-34 l 0,-41.4 16.8,0 z"
       id="path133"
       inkscape:connector-curvature="0"
       style="fill:#ffffff" /><path
       class="st2"
       d="m 504,602.8 c 4.4,2.3 11.4,4.6 18.6,4.6 7.7,0 11.8,-3.2 11.8,-8 0,-4.6 -3.5,-7.3 -12.4,-10.3 -12.3,-4.4 -20.5,-11.2 -20.5,-22 0,-12.6 10.7,-22.2 28,-22.2 8.5,0 14.5,1.6 18.9,3.7 l -3.7,13.4 c -2.9,-1.4 -8.3,-3.5 -15.4,-3.5 -7.3,0 -10.8,3.4 -10.8,7.2 0,4.7 4.1,6.8 13.8,10.5 13.1,4.8 19.1,11.7 19.1,22.1 0,12.4 -9.5,23 -29.8,23 -8.5,0 -16.8,-2.3 -21,-4.6 l 3.4,-13.9 z"
       id="path135"
       inkscape:connector-curvature="0"
       style="fill:#ffffff" /><path
       class="st2"
       d="m 577.3,560 -20,0 0,-14.1 57,0 0,14.1 -20.3,0 0,60 -16.7,0 0,-60 z"
       id="path137"
       inkscape:connector-curvature="0"
       style="fill:#ffffff" /><path
       class="st2"
       d="m 667.2,588.7 -27.2,0 0,17.6 30.5,0 0,13.7 -47.2,0 0,-74.1 45.7,0 0,13.8 -29,0 0,15.3 27.3,0 0,13.7 z"
       id="path139"
       inkscape:connector-curvature="0"
       style="fill:#ffffff" /><path
       class="st2"
       d="m 681.9,546.9 c 5.4,-0.9 13.3,-1.5 22.3,-1.5 11,0 18.7,1.7 24,5.8 4.5,3.5 6.9,8.8 6.9,15.6 0,9.3 -6.7,15.8 -13.1,18.2 l 0,0.3 c 5.2,2.1 8,6.9 9.9,13.8 2.3,8.5 4.5,18.1 5.9,21 l -17.2,0 c -1.1,-2.2 -3,-8.1 -5.1,-17.3 -2.1,-9.3 -5.3,-11.8 -12.2,-11.9 l -5,0 0,29.1 -16.6,0 0,-73.1 z m 16.6,31.9 6.6,0 c 8.4,0 13.3,-4.2 13.3,-10.7 0,-6.7 -4.6,-10.2 -12.3,-10.2 -4.1,0 -6.4,0.2 -7.6,0.5 l 0,20.4 z"
       id="path141"
       inkscape:connector-curvature="0"
       style="fill:#ffffff" /><path
       class="st2"
       d="m 747.6,602.8 c 4.4,2.3 11.4,4.6 18.6,4.6 7.7,0 11.8,-3.2 11.8,-8 0,-4.6 -3.5,-7.3 -12.4,-10.3 -12.3,-4.4 -20.5,-11.2 -20.5,-22 0,-12.6 10.7,-22.2 28,-22.2 8.5,0 14.5,1.6 18.9,3.7 l -3.7,13.4 c -2.9,-1.4 -8.3,-3.5 -15.4,-3.5 -7.3,0 -10.8,3.4 -10.8,7.2 0,4.7 4.1,6.8 13.8,10.5 13.1,4.8 19.1,11.7 19.1,22.1 0,12.4 -9.5,23 -29.8,23 -8.5,0 -16.8,-2.3 -21,-4.6 l 3.4,-13.9 z"
       id="path143"
       inkscape:connector-curvature="0"
       style="fill:#ffffff" /></g></svg>