<?xml version="1.0" encoding="iso-8859-1"?>
<!-- Generator: Adobe Illustrator 19.0.0, SVG Export Plug-In . SVG Version: 6.00 Build 0)  -->
<svg version="1.1" id="Layer_1" xmlns="http://www.w3.org/2000/svg" xmlns:xlink="http://www.w3.org/1999/xlink" x="0px" y="0px"
	 viewBox="0 0 505 505" style="enable-background:new 0 0 505 505;" xml:space="preserve">
<circle style="fill:#324A5E;" cx="252.5" cy="252.5" r="252.5"/>
<polygon style="fill:#FFFFFF;" points="408.7,372.1 132.9,372.1 132.9,96.3 117.2,96.3 117.2,119.1 96.3,119.1 96.3,134.9 
	117.2,134.9 117.2,174.7 96.3,174.7 96.3,190.4 117.2,190.4 117.2,230.2 96.3,230.2 96.3,246 117.2,246 117.2,285.8 96.3,285.8 
	96.3,301.6 117.2,301.6 117.2,341.4 96.3,341.4 96.3,357.2 117.2,357.2 117.2,387.8 147.8,387.8 147.8,408.7 163.6,408.7 
	163.6,387.8 203.4,387.8 203.4,408.7 219.2,408.7 219.2,387.8 259,387.8 259,408.7 274.8,408.7 274.8,387.8 314.6,387.8 
	314.6,408.7 330.3,408.7 330.3,387.8 370.1,387.8 370.1,408.7 385.9,408.7 385.9,387.8 408.7,387.8 "/>
<g>
	<polygon style="fill:#FF7058;" points="371.3,142.7 337.8,190.7 356.4,190.7 356.4,346.2 386.2,346.2 386.2,190.7 404.7,190.7 	"/>
	<polygon style="fill:#FF7058;" points="286,191 252.5,239 271.1,239 271.1,346.2 300.9,346.2 300.9,239 319.4,239 	"/>
	<polygon style="fill:#FF7058;" points="201.2,241.6 167.7,289.6 186.3,289.6 186.3,346.2 216.1,346.2 216.1,289.6 234.7,289.6 	"/>
</g>
<g>
</g>
<g>
</g>
<g>
</g>
<g>
</g>
<g>
</g>
<g>
</g>
<g>
</g>
<g>
</g>
<g>
</g>
<g>
</g>
<g>
</g>
<g>
</g>
<g>
</g>
<g>
</g>
<g>
</g>
</svg>
