<?xml version="1.0" encoding="utf-8"?>
<!-- Generator: Adobe Illustrator 21.1.0, SVG Export Plug-In . SVG Version: 6.00 Build 0)  -->
<svg version="1.1" id="Affiliate" xmlns="http://www.w3.org/2000/svg" xmlns:xlink="http://www.w3.org/1999/xlink" x="0px" y="0px"
	 viewBox="0 0 500 500" style="enable-background:new 0 0 500 500;" xml:space="preserve">
<style type="text/css">
	.st0{fill:#FF5E5E;}
	.st1{fill:#FFFFFF;}
</style>
<g id="Icon">
	<circle id="BG" class="st0" cx="250" cy="250" r="230"/>
	<path id="Users" class="st1" d="M427.4,295.6c-8.3-17.1-24.6-30.9-45.6-38.9c6.9-9.4,10.4-20.8,9.9-32.7
		c-1.1-26.1-21.6-47.2-47.7-49c-4.6-0.3-9,0-13.4,0.8c-16.1-26.4-45.1-44.1-78.3-44.1c-33,0-61.9,17.5-78,43.6
		c-1-0.1-1.9-0.2-2.9-0.3c-14.4-1-28.1,3.9-38.7,13.7c-10.4,9.7-16.3,23.4-16.3,37.5c0,11,3.6,21.7,10,30.4
		c-21.5,8.2-38,22.4-46.1,40c-7.1,15.4-2.9,33.7,10.1,44.4c24.6,20.2,56.7,10.7,90.6,0.6c23.2-6.9,47.2-14,72.7-14
		c25.5,0,49.6,7.1,72.9,14.1c19.4,5.8,38.2,11.3,55.4,11.3c12.6,0,24.3-3,34.7-11.2C430.9,330.8,435.3,311.8,427.4,295.6z
		 M177.5,329.6c-33.3,9.9-59.6,17.7-79,1.7c-8.6-7.1-11.4-19.1-6.7-29.3c7.6-16.5,25.3-30.1,47.5-36.3c2.2-0.6,3.9-2.4,4.4-4.6
		c0.5-2.2-0.2-4.6-1.9-6.1c-8.1-7.3-12.7-17.8-12.7-28.7c0-10.8,4.4-20.9,12.3-28.3c7.9-7.4,18.3-11.1,29.2-10.3
		c19.3,1.3,35.1,17.5,35.9,36.9c0.5,11.6-4.1,22.7-12.7,30.4c-1.7,1.5-2.4,3.9-1.9,6.1c0.5,2.2,2.2,4,4.4,4.6
		c28.5,8,48.4,27.4,51.3,49.4C222.6,316.2,198.7,323.3,177.5,329.6z M409,331.9c-19.4,15.2-46.9,7.1-78.7-2.3
		c-21.1-6.3-44.8-13.3-69.7-14.4c2.9-22,22.8-41.4,51.3-49.5c2.2-0.6,3.9-2.4,4.4-4.6c0.5-2.2-0.2-4.6-1.9-6.1
		c-8.1-7.3-12.7-17.8-12.7-28.7c0-10.8,4.4-20.9,12.3-28.3c7.9-7.4,18.3-11.1,29.2-10.3c19.3,1.3,35.1,17.5,35.9,36.9
		c0.5,11.6-4.1,22.7-12.7,30.4c-1.7,1.5-2.4,3.9-1.9,6.1c0.5,2.2,2.2,4,4.4,4.6c22,6.2,39.2,19.1,47.1,35.4
		C421.3,311.9,418.4,324.6,409,331.9z"/>
	<path id="Dollar" class="st0" d="M261.1,208.4h-14.4c-4.3,0-7.8-3.5-7.8-7.8c0-4.3,3.5-7.8,7.8-7.8H272c4.4,0,8-3.6,8-8s-3.6-8-8-8
		h-10.2v-7.1c0-4.4-3.6-8-8-8s-8,3.6-8,8v7.1c-12.7,0.4-22.9,10.9-22.9,23.7c0,13.1,10.6,23.7,23.7,23.7h14.4c4.3,0,7.8,3.5,7.8,7.8
		c0,4.3-3.5,7.8-7.8,7.8h-25.9c-4.4,0-8,3.6-8,8s3.6,8,8,8h10.7v7.2c0,4.4,3.6,7.9,8,7.9s8-3.6,8-8v-7.2c12.7-0.4,23-10.9,23-23.7
		C284.8,219.1,274.1,208.4,261.1,208.4z"/>
</g>
</svg>
