<?xml version="1.0" encoding="utf-8"?>
<!-- Generator: Adobe Illustrator 21.1.0, SVG Export Plug-In . SVG Version: 6.00 Build 0)  -->
<svg version="1.1" id="Autonomous" xmlns="http://www.w3.org/2000/svg" xmlns:xlink="http://www.w3.org/1999/xlink" x="0px" y="0px"
	 viewBox="0 0 500 500" style="enable-background:new 0 0 500 500;" xml:space="preserve">
<style type="text/css">
	.st0{fill:#FF5E5E;}
	.st1{fill:#FFFFFF;}
</style>
<g id="Icon_1_">
	<g id="BG_1_">
		<circle class="st0" cx="250" cy="250" r="230"/>
	</g>
	<g id="Dots">
		<path class="st1" d="M250,77.8c-11.6,0-21,9.4-21,21c0,9.4,6.2,17.4,14.7,20.1v36.2c0,3.5,2.8,6.3,6.3,6.3s6.3-2.8,6.3-6.3V119
			c8.5-2.7,14.7-10.7,14.7-20.1C271,87.3,261.6,77.8,250,77.8z M250,107.3c-4.6,0-8.4-3.8-8.4-8.4c0-4.6,3.8-8.4,8.4-8.4
			s8.4,3.8,8.4,8.4C258.4,103.5,254.6,107.3,250,107.3z"/>
		<path class="st1" d="M171.3,249.4c0-3.5-2.8-6.3-6.3-6.3h-45.4c-2.7-8.5-10.7-14.7-20.1-14.7c-11.6,0-21,9.4-21,21
			c0,11.6,9.4,21,21,21c9.4,0,17.4-6.2,20.1-14.7H165C168.5,255.7,171.3,252.9,171.3,249.4z M99.5,257.8c-4.6,0-8.4-3.8-8.4-8.4
			s3.8-8.4,8.4-8.4s8.4,3.8,8.4,8.4S104.1,257.8,99.5,257.8z"/>
		<path class="st1" d="M400.5,228.3c-9.4,0-17.4,6.2-20.1,14.7h-46.1c-3.5,0-6.3,2.8-6.3,6.3s2.8,6.3,6.3,6.3h46.1
			c2.7,8.5,10.7,14.7,20.1,14.7c11.6,0,21-9.4,21-21C421.5,237.8,412.1,228.3,400.5,228.3z M400.5,257.8c-4.6,0-8.4-3.8-8.4-8.4
			s3.8-8.4,8.4-8.4s8.4,3.8,8.4,8.4S405.1,257.8,400.5,257.8z"/>
		<path class="st1" d="M256.3,381v-36.3c0-3.5-2.8-6.3-6.3-6.3s-6.3,2.8-6.3,6.3V381c-8.5,2.7-14.7,10.7-14.7,20.1
			c0,11.6,9.4,21,21,21c11.6,0,21-9.4,21-21C271,391.7,264.8,383.7,256.3,381z M250,409.5c-4.6,0-8.4-3.8-8.4-8.4s3.8-8.4,8.4-8.4
			s8.4,3.8,8.4,8.4S254.6,409.5,250,409.5z"/>
		<path class="st1" d="M347.5,162.1c3,1.6,6.3,2.4,9.7,2.4c5.6,0,10.9-2.2,14.9-6.2c8.2-8.2,8.2-21.6,0-29.8
			c-8.2-8.2-21.6-8.2-29.8,0c-4,4-6.2,9.3-6.2,14.9c0,3.4,0.8,6.8,2.4,9.7l-44.2,44.2c-2.5,2.5-2.5,6.5,0,8.9
			c1.2,1.2,2.9,1.9,4.5,1.9s3.2-0.6,4.5-1.9L347.5,162.1z M351.3,137.5c1.6-1.6,3.8-2.5,5.9-2.5s4.3,0.8,5.9,2.5
			c3.3,3.3,3.3,8.6,0,11.9c-1.6,1.6-3.7,2.5-5.9,2.5s-4.4-0.9-5.9-2.5c-1.6-1.6-2.5-3.7-2.5-5.9S349.7,139.1,351.3,137.5z"/>
		<path class="st1" d="M347.5,336.7l-34.8-34.8c-2.5-2.5-6.5-2.5-8.9,0c-2.5,2.5-2.5,6.5,0,8.9l34.8,34.8c-1.6,3-2.4,6.3-2.4,9.7
			c0,5.6,2.2,10.9,6.2,14.9c0,0,0,0,0,0c4,4,9.3,6.2,14.9,6.2c5.6,0,10.9-2.2,14.9-6.2c8.2-8.2,8.2-21.6,0-29.8
			C365.4,333.8,355.4,332.6,347.5,336.7z M363.1,361.3c-1.6,1.6-3.7,2.5-5.9,2.5s-4.4-0.9-5.9-2.5l0,0c-1.6-1.6-2.5-3.7-2.5-5.9
			s0.9-4.4,2.5-5.9c1.6-1.6,3.8-2.5,5.9-2.5s4.3,0.8,5.9,2.5C366.4,352.7,366.4,358,363.1,361.3z"/>
		<path class="st1" d="M162.1,153.1c1.6-3,2.4-6.3,2.4-9.7c0-5.6-2.2-10.9-6.2-14.9c-8.2-8.2-21.6-8.2-29.8,0
			c-8.2,8.2-8.2,21.6,0,29.8c4,4,9.3,6.2,14.9,6.2c3.4,0,6.8-0.8,9.7-2.4l41.6,41.6c1.2,1.2,2.9,1.9,4.5,1.9c1.6,0,3.2-0.6,4.5-1.9
			c2.5-2.5,2.5-6.5,0-8.9L162.1,153.1z M149.4,149.4c-1.6,1.6-3.7,2.5-5.9,2.5s-4.4-0.9-5.9-2.5c-3.3-3.3-3.3-8.6,0-11.9
			c1.6-1.6,3.8-2.5,5.9-2.5s4.3,0.8,5.9,2.5c1.6,1.6,2.5,3.7,2.5,5.9S151,147.8,149.4,149.4z"/>
		<path class="st1" d="M189.8,300l-36.7,36.7c-7.9-4.1-18-2.9-24.6,3.8c-8.2,8.2-8.2,21.6,0,29.8c4,4,9.3,6.2,14.9,6.2
			c5.6,0,10.9-2.2,14.9-6.2c0,0,0,0,0,0c4-4,6.2-9.3,6.2-14.9c0-3.4-0.8-6.8-2.4-9.7l36.7-36.7c2.5-2.5,2.5-6.5,0-8.9
			C196.3,297.5,192.3,297.5,189.8,300z M149.4,361.3L149.4,361.3c-1.6,1.6-3.7,2.5-5.9,2.5s-4.4-0.9-5.9-2.5
			c-3.3-3.3-3.3-8.6,0-11.9c1.6-1.6,3.8-2.5,5.9-2.5s4.3,0.8,5.9,2.5c1.6,1.6,2.5,3.7,2.5,5.9S151,359.7,149.4,361.3z"/>
	</g>
	<path id="Mask" class="st0" d="M324.8,217.5L262,151l-0.4-0.4c-6.6-6.1-16.6-6.1-23.3,0l-64,66.9c-19.3,18-23.3,45.4-10.3,69.7
		c9.4,17.5,27.2,28.8,46.5,29.6c8.1,0.3,13.6-1.3,18.3-4.1v0.1c0,4.6-1.2,9.2-3.5,13.3l-5.8,10.1c-2,3.5-2,7.8,0.1,11.2
		c2,3.5,5.7,5.6,9.7,5.6h41.3c4,0,7.7-2.1,9.7-5.6c2-3.5,2-7.8,0-11.2l-5.8-10.1c-2.3-4-3.5-8.5-3.5-13c4.3,2.5,9.5,4.1,17.5,3.8
		c18.8-0.8,36.5-11.2,46.2-27.2C352.6,260,340.6,232.3,324.8,217.5z"/>
	<path id="Symbol" class="st1" d="M309.4,224.1l-49.8-52.8l-0.3-0.3c-5.3-4.8-13.2-4.8-18.5,0l-50.9,53.2
		c-15.3,14.3-18.5,36-8.2,55.3c7.5,13.9,21.6,22.9,37,23.5c6.4,0.3,10.8-1,14.5-3.3v0.1c0,3.7-1,7.3-2.8,10.5l-4.6,8.1
		c-1.6,2.8-1.6,6.2,0,8.9c1.6,2.7,4.6,4.4,7.7,4.4h32.8c3.2,0,6.1-1.7,7.7-4.4c1.6-2.7,1.6-6.2,0-8.9l-4.6-8
		c-1.8-3.1-2.8-6.7-2.8-10.3c3.4,2,7.6,3.2,13.9,3c14.9-0.6,29-8.9,36.7-21.6C331.5,257.8,321.9,235.9,309.4,224.1z"/>
</g>
</svg>
