<svg id="Ebene_1" data-name="Ebene 1" xmlns="http://www.w3.org/2000/svg" viewBox="0 0 468.11 524.85"><defs><style>.cls-1{fill:#252838;}.cls-2{fill:#fff;}.cls-3{fill:#ff5c5c;}</style></defs><title>2017_06_07_Acebusters_Signet</title><rect class="cls-1" x="2.3" y="-1.06" width="468.81" height="530"/><rect class="cls-2" x="289.94" y="370.74" width="8.5" height="8.5" rx="1.6" ry="1.6"/><rect class="cls-2" x="306.28" y="370.9" width="8.5" height="8.5" rx="1.6" ry="1.6"/><path class="cls-2" d="M192.92,218.67c14.81-17.33,29.71-34.59,44-52.31,10-12.43,19.19-25.59,29-38.76l.17.23V383.16H231.54c1.83-3.24,5.37-11.42,6.87-14.31,5.68-11,11.53-21.83,16.82-33a28.57,28.57,0,0,0,2.66-15.64c-.66,0-.94-.08-1.13,0-.65.32-1.28.68-1.9,1C243.29,328,231,331.82,217.51,331.83c-15.58,0-29.53-4.39-40.49-15.8-14-14.59-15.58-32.23-10.85-50.83C170.73,247.27,181.08,232.53,192.92,218.67Z"/><rect class="cls-3" x="286.4" y="161.25" width="15.31" height="15.31" rx="1.51" ry="1.51"/><rect class="cls-2" x="286.4" y="178.15" width="15.31" height="15.31" rx="1.51" ry="1.51"/><rect class="cls-3" x="286.4" y="195.05" width="15.31" height="15.31" rx="1.51" ry="1.51"/><rect class="cls-2" x="286.4" y="211.95" width="15.31" height="15.31" rx="1.51" ry="1.51"/><rect class="cls-2" x="286.4" y="228.85" width="15.31" height="15.31" rx="1.51" ry="1.51"/><rect class="cls-3" x="286.4" y="245.75" width="15.31" height="15.31" rx="1.51" ry="1.51"/><rect class="cls-2" x="286.4" y="262.65" width="15.31" height="15.31" rx="1.51" ry="1.51"/><rect class="cls-2" x="286.4" y="279.55" width="15.31" height="15.31" rx="1.51" ry="1.51"/><rect class="cls-3" x="286.4" y="296.45" width="15.31" height="15.31" rx="1.51" ry="1.51"/><rect class="cls-2" x="269.45" y="348.27" width="15.31" height="15.31" rx="1.51" ry="1.51"/><rect class="cls-2" x="269.45" y="366.51" width="15.31" height="15.31" rx="1.51" ry="1.51"/><rect class="cls-3" x="303.65" y="178.05" width="15.31" height="15.31" rx="1.51" ry="1.51"/><rect class="cls-2" x="303.65" y="194.97" width="15.31" height="15.31" rx="1.51" ry="1.51"/><rect class="cls-3" x="303.65" y="211.89" width="15.31" height="15.31" rx="1.51" ry="1.51"/><rect class="cls-2" x="303.65" y="228.8" width="15.31" height="15.31" rx="1.51" ry="1.51"/><rect class="cls-3" x="303.65" y="245.72" width="15.31" height="15.31" rx="1.51" ry="1.51"/><rect class="cls-2" x="303.65" y="262.64" width="15.31" height="15.31" rx="1.51" ry="1.51"/><rect class="cls-3" x="303.65" y="279.56" width="15.31" height="15.31" rx="1.51" ry="1.51"/><rect class="cls-2" x="303.65" y="296.47" width="15.31" height="15.31" rx="1.51" ry="1.51"/><rect class="cls-3" x="303.65" y="313.39" width="15.31" height="15.31" rx="1.51" ry="1.51"/><rect class="cls-2" x="286.4" y="313.35" width="15.31" height="15.31" rx="1.51" ry="1.51"/><rect class="cls-2" x="269.46" y="161.25" width="15.31" height="15.31" rx="1.51" ry="1.51"/><rect class="cls-2" x="269.46" y="144.31" width="15.31" height="15.31" rx="1.51" ry="1.51"/><rect class="cls-2" x="269.46" y="178.15" width="15.31" height="15.31" rx="1.51" ry="1.51"/><rect class="cls-2" x="269.46" y="195.05" width="15.31" height="15.31" rx="1.51" ry="1.51"/><rect class="cls-2" x="269.46" y="211.95" width="15.31" height="15.31" rx="1.51" ry="1.51"/><rect class="cls-2" x="269.46" y="228.85" width="15.31" height="15.31" rx="1.51" ry="1.51"/><rect class="cls-2" x="269.46" y="245.75" width="15.31" height="15.31" rx="1.51" ry="1.51"/><rect class="cls-2" x="269.46" y="262.65" width="15.31" height="15.31" rx="1.51" ry="1.51"/><rect class="cls-2" x="269.46" y="279.55" width="15.31" height="15.31" rx="1.51" ry="1.51"/><rect class="cls-2" x="269.46" y="296.45" width="15.31" height="15.31" rx="1.51" ry="1.51"/><rect class="cls-3" x="320.78" y="194.99" width="15.31" height="15.31" rx="1.51" ry="1.51"/><rect class="cls-2" x="320.78" y="211.91" width="15.31" height="15.31" rx="1.51" ry="1.51"/><rect class="cls-3" x="320.78" y="228.82" width="15.31" height="15.31" rx="1.51" ry="1.51"/><rect class="cls-2" x="320.78" y="245.74" width="15.31" height="15.31" rx="1.51" ry="1.51"/><rect class="cls-3" x="320.78" y="262.66" width="15.31" height="15.31" rx="1.51" ry="1.51"/><rect class="cls-3" x="320.78" y="279.57" width="15.31" height="15.31" rx="1.51" ry="1.51"/><rect class="cls-3" x="320.78" y="296.49" width="15.31" height="15.31" rx="1.51" ry="1.51"/><rect class="cls-3" x="339.62" y="215.61" width="8.5" height="8.5" rx="1.39" ry="1.39"/><rect class="cls-3" x="339.62" y="232.49" width="8.5" height="8.5" rx="1.39" ry="1.39"/><rect class="cls-3" x="339.62" y="249.36" width="8.5" height="8.5" rx="1.39" ry="1.39"/><rect class="cls-3" x="339.62" y="266.23" width="8.5" height="8.5" rx="1.39" ry="1.39"/><rect class="cls-3" x="339.62" y="283.11" width="8.5" height="8.5" rx="1.39" ry="1.39"/><rect class="cls-2" x="339.62" y="299.98" width="8.5" height="8.5" rx="1.39" ry="1.39"/><rect class="cls-3" x="355.12" y="250.91" width="4.91" height="4.91" rx="0.71" ry="0.71"/><rect class="cls-3" x="355.12" y="267.84" width="4.91" height="4.94" rx="0.74" ry="0.74"/><rect class="cls-3" x="355.08" y="284.7" width="4.91" height="4.91" rx="0.75" ry="0.75"/><rect class="cls-2" x="289.85" y="351.85" width="8.5" height="8.5" rx="1.49" ry="1.49"/><rect class="cls-2" x="272.72" y="317.13" width="8.5" height="8.5" rx="1.39" ry="1.39"/><rect class="cls-3" x="272.72" y="334.42" width="8.5" height="8.5" rx="1.39" ry="1.39"/><rect class="cls-3" x="272.7" y="130.12" width="8.5" height="8.5" rx="1.39" ry="1.39"/></svg>