<?xml version="1.0" encoding="UTF-8" standalone="no"?>
<svg
   xmlns:dc="http://purl.org/dc/elements/1.1/"
   xmlns:cc="http://creativecommons.org/ns#"
   xmlns:rdf="http://www.w3.org/1999/02/22-rdf-syntax-ns#"
   xmlns:svg="http://www.w3.org/2000/svg"
   xmlns="http://www.w3.org/2000/svg"
   xmlns:sodipodi="http://sodipodi.sourceforge.net/DTD/sodipodi-0.dtd"
   xmlns:inkscape="http://www.inkscape.org/namespaces/inkscape"
   id="Ebene_1"
   data-name="Ebene 1"
   viewBox="0 0 468.11 524.85"
   version="1.1"
   inkscape:version="0.91 r13725"
   sodipodi:docname="header_logo.svg">
  <metadata
     id="metadata3614">
    <rdf:RDF>
      <cc:Work
         rdf:about="">
        <dc:format>image/svg+xml</dc:format>
        <dc:type
           rdf:resource="http://purl.org/dc/dcmitype/StillImage" />
        <dc:title>2017_06_07_Acebusters_Signet</dc:title>
      </cc:Work>
    </rdf:RDF>
  </metadata>
  <sodipodi:namedview
     pagecolor="#ffffff"
     bordercolor="#666666"
     borderopacity="1"
     objecttolerance="10"
     gridtolerance="10"
     guidetolerance="10"
     inkscape:pageopacity="0"
     inkscape:pageshadow="2"
     inkscape:window-width="1171"
     inkscape:window-height="751"
     id="namedview3612"
     showgrid="true"
     inkscape:object-paths="true"
     inkscape:snap-nodes="false"
     inkscape:zoom="1"
     inkscape:cx="156.32948"
     inkscape:cy="269.98199"
     inkscape:window-x="0"
     inkscape:window-y="0"
     inkscape:window-maximized="0"
     inkscape:current-layer="Ebene_1">
    <inkscape:grid
       type="xygrid"
       id="grid3618" />
  </sodipodi:namedview>
  <defs
     id="defs3496">
    <style
       id="style3498">.cls-1{fill:#252838;}.cls-2{fill:#fff;}.cls-3{fill:#ff5c5c;}</style>
  </defs>
  <title
     id="title3500">2017_06_07_Acebusters_Signet</title>
  <g
     id="g3620"
     transform="translate(11.210505,0)">
    <rect
       style="fill:#ffffff"
       id="rect3504"
       ry="1.6"
       rx="1.6"
       height="8.5"
       width="8.5"
       y="368.73999"
       x="252.94"
       class="cls-2" />
    <rect
       style="fill:#ffffff"
       id="rect3506"
       ry="1.6"
       rx="1.6"
       height="8.5"
       width="8.5"
       y="368.89999"
       x="269.28"
       class="cls-2" />
    <path
       style="fill:#ffffff"
       inkscape:connector-curvature="0"
       id="path3508"
       d="m 151.81153,215.80197 c 14.81,-17.33 29.71,-34.59 44,-52.31 10,-12.43 19.19,-25.59 29,-38.76 l 0.17,0.23 0,255.33 -34.55,0 c 1.83,-3.24 5.37,-11.42 6.87,-14.31 5.68,-11 11.53,-21.83 16.82,-33 a 28.57,28.57 0 0 0 2.66,-15.64 c -0.66,0 -0.94,-0.08 -1.13,0 -0.65,0.32 -1.28,0.68 -1.9,1 -11.57,6.79 -23.86,10.61 -37.35,10.62 -15.58,0 -29.53,-4.39 -40.49,-15.8 -14,-14.59 -15.58,-32.23 -10.85,-50.83 4.56,-17.93 14.91,-32.67 26.75,-46.53 z"
       class="cls-2" />
    <rect
       style="fill:#ff5c5c"
       id="rect3510"
       ry="1.51"
       rx="1.51"
       height="15.31"
       width="15.31"
       y="159.25"
       x="249.39999"
       class="cls-3" />
    <rect
       style="fill:#ffffff"
       id="rect3512"
       ry="1.51"
       rx="1.51"
       height="15.31"
       width="15.31"
       y="176.14999"
       x="249.39999"
       class="cls-2" />
    <rect
       style="fill:#ff5c5c"
       id="rect3514"
       ry="1.51"
       rx="1.51"
       height="15.31"
       width="15.31"
       y="193.05"
       x="249.39999"
       class="cls-3" />
    <rect
       style="fill:#ffffff"
       id="rect3516"
       ry="1.51"
       rx="1.51"
       height="15.31"
       width="15.31"
       y="209.95"
       x="249.39999"
       class="cls-2" />
    <rect
       style="fill:#ffffff"
       id="rect3518"
       ry="1.51"
       rx="1.51"
       height="15.31"
       width="15.31"
       y="226.85001"
       x="249.39999"
       class="cls-2" />
    <rect
       style="fill:#ff5c5c"
       id="rect3520"
       ry="1.51"
       rx="1.51"
       height="15.31"
       width="15.31"
       y="243.75"
       x="249.39999"
       class="cls-3" />
    <rect
       style="fill:#ffffff"
       id="rect3522"
       ry="1.51"
       rx="1.51"
       height="15.31"
       width="15.31"
       y="260.64999"
       x="249.39999"
       class="cls-2" />
    <rect
       style="fill:#ffffff"
       id="rect3524"
       ry="1.51"
       rx="1.51"
       height="15.31"
       width="15.31"
       y="277.54999"
       x="249.39999"
       class="cls-2" />
    <rect
       style="fill:#ff5c5c"
       id="rect3526"
       ry="1.51"
       rx="1.51"
       height="15.31"
       width="15.31"
       y="294.45001"
       x="249.39999"
       class="cls-3" />
    <rect
       style="fill:#ffffff"
       id="rect3528"
       ry="1.51"
       rx="1.51"
       height="15.31"
       width="15.31"
       y="346.26999"
       x="232.45001"
       class="cls-2" />
    <rect
       style="fill:#ffffff"
       id="rect3530"
       ry="1.51"
       rx="1.51"
       height="15.31"
       width="15.31"
       y="364.51001"
       x="232.45001"
       class="cls-2" />
    <rect
       style="fill:#ff5c5c"
       id="rect3532"
       ry="1.51"
       rx="1.51"
       height="15.31"
       width="15.31"
       y="176.05"
       x="266.64999"
       class="cls-3" />
    <rect
       style="fill:#ffffff"
       id="rect3534"
       ry="1.51"
       rx="1.51"
       height="15.31"
       width="15.31"
       y="192.97"
       x="266.64999"
       class="cls-2" />
    <rect
       style="fill:#ff5c5c"
       id="rect3536"
       ry="1.51"
       rx="1.51"
       height="15.31"
       width="15.31"
       y="209.89"
       x="266.64999"
       class="cls-3" />
    <rect
       style="fill:#ffffff"
       id="rect3538"
       ry="1.51"
       rx="1.51"
       height="15.31"
       width="15.31"
       y="226.8"
       x="266.64999"
       class="cls-2" />
    <rect
       style="fill:#ff5c5c"
       id="rect3540"
       ry="1.51"
       rx="1.51"
       height="15.31"
       width="15.31"
       y="243.72"
       x="266.64999"
       class="cls-3" />
    <rect
       style="fill:#ffffff"
       id="rect3542"
       ry="1.51"
       rx="1.51"
       height="15.31"
       width="15.31"
       y="260.64001"
       x="266.64999"
       class="cls-2" />
    <rect
       style="fill:#ff5c5c"
       id="rect3544"
       ry="1.51"
       rx="1.51"
       height="15.31"
       width="15.31"
       y="277.56"
       x="266.64999"
       class="cls-3" />
    <rect
       style="fill:#ffffff"
       id="rect3546"
       ry="1.51"
       rx="1.51"
       height="15.31"
       width="15.31"
       y="294.47"
       x="266.64999"
       class="cls-2" />
    <rect
       style="fill:#ff5c5c"
       id="rect3548"
       ry="1.51"
       rx="1.51"
       height="15.31"
       width="15.31"
       y="311.39001"
       x="266.64999"
       class="cls-3" />
    <rect
       style="fill:#ffffff"
       id="rect3550"
       ry="1.51"
       rx="1.51"
       height="15.31"
       width="15.31"
       y="311.35001"
       x="249.39999"
       class="cls-2" />
    <rect
       style="fill:#ffffff"
       id="rect3552"
       ry="1.51"
       rx="1.51"
       height="15.31"
       width="15.31"
       y="159.25"
       x="232.45999"
       class="cls-2" />
    <rect
       style="fill:#ffffff"
       id="rect3554"
       ry="1.51"
       rx="1.51"
       height="15.31"
       width="15.31"
       y="142.31"
       x="232.45999"
       class="cls-2" />
    <rect
       style="fill:#ffffff"
       id="rect3556"
       ry="1.51"
       rx="1.51"
       height="15.31"
       width="15.31"
       y="176.14999"
       x="232.45999"
       class="cls-2" />
    <rect
       style="fill:#ffffff"
       id="rect3558"
       ry="1.51"
       rx="1.51"
       height="15.31"
       width="15.31"
       y="193.05"
       x="232.45999"
       class="cls-2" />
    <rect
       style="fill:#ffffff"
       id="rect3560"
       ry="1.51"
       rx="1.51"
       height="15.31"
       width="15.31"
       y="209.95"
       x="232.45999"
       class="cls-2" />
    <rect
       style="fill:#ffffff"
       id="rect3562"
       ry="1.51"
       rx="1.51"
       height="15.31"
       width="15.31"
       y="226.85001"
       x="232.45999"
       class="cls-2" />
    <rect
       style="fill:#ffffff"
       id="rect3564"
       ry="1.51"
       rx="1.51"
       height="15.31"
       width="15.31"
       y="243.75"
       x="232.45999"
       class="cls-2" />
    <rect
       style="fill:#ffffff"
       id="rect3566"
       ry="1.51"
       rx="1.51"
       height="15.31"
       width="15.31"
       y="260.64999"
       x="232.45999"
       class="cls-2" />
    <rect
       style="fill:#ffffff"
       id="rect3568"
       ry="1.51"
       rx="1.51"
       height="15.31"
       width="15.31"
       y="277.54999"
       x="232.45999"
       class="cls-2" />
    <rect
       style="fill:#ffffff"
       id="rect3570"
       ry="1.51"
       rx="1.51"
       height="15.31"
       width="15.31"
       y="294.45001"
       x="232.45999"
       class="cls-2" />
    <rect
       style="fill:#ff5c5c"
       id="rect3572"
       ry="1.51"
       rx="1.51"
       height="15.31"
       width="15.31"
       y="192.99001"
       x="283.78"
       class="cls-3" />
    <rect
       style="fill:#ffffff"
       id="rect3574"
       ry="1.51"
       rx="1.51"
       height="15.31"
       width="15.31"
       y="209.91"
       x="283.78"
       class="cls-2" />
    <rect
       style="fill:#ff5c5c"
       id="rect3576"
       ry="1.51"
       rx="1.51"
       height="15.31"
       width="15.31"
       y="226.82001"
       x="283.78"
       class="cls-3" />
    <rect
       style="fill:#ffffff"
       id="rect3578"
       ry="1.51"
       rx="1.51"
       height="15.31"
       width="15.31"
       y="243.74001"
       x="283.78"
       class="cls-2" />
    <rect
       style="fill:#ff5c5c"
       id="rect3580"
       ry="1.51"
       rx="1.51"
       height="15.31"
       width="15.31"
       y="260.66"
       x="283.78"
       class="cls-3" />
    <rect
       style="fill:#ff5c5c"
       id="rect3582"
       ry="1.51"
       rx="1.51"
       height="15.31"
       width="15.31"
       y="277.57001"
       x="283.78"
       class="cls-3" />
    <rect
       style="fill:#ff5c5c"
       id="rect3584"
       ry="1.51"
       rx="1.51"
       height="15.31"
       width="15.31"
       y="294.48999"
       x="283.78"
       class="cls-3" />
    <rect
       style="fill:#ff5c5c"
       id="rect3586"
       ry="1.39"
       rx="1.39"
       height="8.5"
       width="8.5"
       y="213.61"
       x="302.62"
       class="cls-3" />
    <rect
       style="fill:#ff5c5c"
       id="rect3588"
       ry="1.39"
       rx="1.39"
       height="8.5"
       width="8.5"
       y="230.49001"
       x="302.62"
       class="cls-3" />
    <rect
       style="fill:#ff5c5c"
       id="rect3590"
       ry="1.39"
       rx="1.39"
       height="8.5"
       width="8.5"
       y="247.36"
       x="302.62"
       class="cls-3" />
    <rect
       style="fill:#ff5c5c"
       id="rect3592"
       ry="1.39"
       rx="1.39"
       height="8.5"
       width="8.5"
       y="264.23001"
       x="302.62"
       class="cls-3" />
    <rect
       style="fill:#ff5c5c"
       id="rect3594"
       ry="1.39"
       rx="1.39"
       height="8.5"
       width="8.5"
       y="281.10999"
       x="302.62"
       class="cls-3" />
    <rect
       style="fill:#ffffff"
       id="rect3596"
       ry="1.39"
       rx="1.39"
       height="8.5"
       width="8.5"
       y="297.98001"
       x="302.62"
       class="cls-2" />
    <rect
       style="fill:#ff5c5c"
       id="rect3598"
       ry="0.70999998"
       rx="0.70999998"
       height="4.9099998"
       width="4.9099998"
       y="248.91"
       x="318.12"
       class="cls-3" />
    <rect
       style="fill:#ff5c5c"
       id="rect3600"
       ry="0.74000001"
       rx="0.74000001"
       height="4.9400001"
       width="4.9099998"
       y="265.84"
       x="318.12"
       class="cls-3" />
    <rect
       style="fill:#ff5c5c"
       id="rect3602"
       ry="0.75"
       rx="0.75"
       height="4.9099998"
       width="4.9099998"
       y="282.70001"
       x="318.07999"
       class="cls-3" />
    <rect
       style="fill:#ffffff"
       id="rect3604"
       ry="1.49"
       rx="1.49"
       height="8.5"
       width="8.5"
       y="349.85001"
       x="252.85001"
       class="cls-2" />
    <rect
       style="fill:#ffffff"
       id="rect3606"
       ry="1.39"
       rx="1.39"
       height="8.5"
       width="8.5"
       y="315.13"
       x="235.72"
       class="cls-2" />
    <rect
       style="fill:#ff5c5c"
       id="rect3608"
       ry="1.39"
       rx="1.39"
       height="8.5"
       width="8.5"
       y="332.42001"
       x="235.72"
       class="cls-3" />
    <rect
       style="fill:#ff5c5c"
       id="rect3610"
       ry="1.39"
       rx="1.39"
       height="8.5"
       width="8.5"
       y="126.12"
       x="232.70001"
       class="cls-3" />
  </g>
</svg>
