<?xml version="1.0" encoding="iso-8859-1"?>
<!-- Generator: Adobe Illustrator 19.0.0, SVG Export Plug-In . SVG Version: 6.00 Build 0)  -->
<svg version="1.1" id="Layer_1" xmlns="http://www.w3.org/2000/svg" xmlns:xlink="http://www.w3.org/1999/xlink" x="0px" y="0px"
	 viewBox="0 0 504.123 504.123" style="enable-background:new 0 0 504.123 504.123;" xml:space="preserve">
<circle style="fill:#FD8469;" cx="252.062" cy="252.062" r="252.062"/>
<g>
	<circle style="fill:#1B2A38;" cx="168.96" cy="174.08" r="37.809"/>
	<circle style="fill:#1B2A38;" cx="332.8" cy="174.08" r="37.809"/>
</g>
<path style="fill:#3F4B5B;" d="M392.665,192.197c-11.815-25.206-38.991-40.566-67.348-36.628c-3.938,0.394-7.483,1.575-10.24,2.757
	c-9.058,4.332-27.569,7.877-42.535,10.24c0,0,0,0,0,0.394c0,12.209-9.846,21.662-21.662,21.662
	c-12.209,0-21.662-9.846-21.662-21.662c0,0,0,0,0-0.394c-14.966-2.363-33.477-5.908-42.535-10.24
	c-2.757-1.182-6.302-2.363-10.24-2.757c-28.357-3.938-55.532,11.815-67.348,36.628l-33.083,70.105l174.868-33.083l174.868,33.083
	L392.665,192.197z"/>
<path style="fill:#1B2A38;" d="M341.858,314.683c-58.289-24.025-124.062-24.025-182.351,0
	c-8.665-21.268-17.723-42.535-26.388-64.197c75.225-31.114,159.902-31.114,235.126,0
	C359.582,271.754,350.917,293.022,341.858,314.683z"/>
<circle style="fill:#2B3B4E;" cx="148.874" cy="289.871" r="77.982"/>
<circle style="fill:#54C0EB;" cx="148.874" cy="289.871" r="59.865"/>
<circle style="fill:#84DBFF;" cx="148.874" cy="289.871" r="43.323"/>
<g>
	<circle style="fill:#FFFFFF;" cx="148.874" cy="289.871" r="7.877"/>
	<circle style="fill:#FFFFFF;" cx="117.366" cy="267.028" r="11.422"/>
</g>
<circle style="fill:#2B3B4E;" cx="352.492" cy="289.871" r="77.982"/>
<circle style="fill:#54C0EB;" cx="352.492" cy="289.871" r="59.865"/>
<circle style="fill:#84DBFF;" cx="352.492" cy="289.871" r="43.323"/>
<g>
	<circle style="fill:#FFFFFF;" cx="352.492" cy="289.871" r="7.877"/>
	<circle style="fill:#FFFFFF;" cx="320.985" cy="267.028" r="11.422"/>
</g>
<circle style="fill:#324A5E;" cx="250.88" cy="259.938" r="22.055"/>
<circle style="fill:#2B3B4E;" cx="250.88" cy="259.938" r="15.36"/>
<path style="fill:#1B2A38;" d="M281.994,178.412c-7.483,21.662-31.114,22.449-31.114,22.449s-24.025-0.788-31.114-22.449
	l-11.028-1.969v42.535h42.142h42.142v-42.535L281.994,178.412z"/>
<g>
</g>
<g>
</g>
<g>
</g>
<g>
</g>
<g>
</g>
<g>
</g>
<g>
</g>
<g>
</g>
<g>
</g>
<g>
</g>
<g>
</g>
<g>
</g>
<g>
</g>
<g>
</g>
<g>
</g>
</svg>
