<?xml version="1.0" encoding="utf-8"?>
<!-- Generator: Adobe Illustrator 21.1.0, SVG Export Plug-In . SVG Version: 6.00 Build 0)  -->
<svg version="1.1" id="Privacy" xmlns="http://www.w3.org/2000/svg" xmlns:xlink="http://www.w3.org/1999/xlink" x="0px" y="0px"
	 viewBox="0 0 500 500" style="enable-background:new 0 0 500 500;" xml:space="preserve">
<style type="text/css">
	.st0{fill:#FF5E5E;}
	.st1{fill:#FFFFFF;}
</style>
<g id="Icon">
	<circle id="BG" class="st0" cx="250" cy="250" r="230"/>
	<path id="Locker" class="st1" d="M319.6,217.8v-28.6c0-38.4-31.2-69.6-69.6-69.6H250c-38.4,0-69.6,31.2-69.6,69.6v28.6
		c-13.3,0.8-23.9,11.9-23.9,25.5v89.5c0,14.1,11.4,25.5,25.5,25.5H318c14.1,0,25.5-11.4,25.5-25.5v-89.5
		C343.5,229.7,332.9,218.6,319.6,217.8z M295.2,191.7v26.1h-90.4v-26.1c0.2-0.9,0.3-1.7,0.3-2.5c0-24.8,20.2-45,44.9-45
		c24.8,0.1,44.9,20.3,44.9,45C294.9,190,295,190.8,295.2,191.7z"/>
	<path id="KeyHole" class="st0" d="M252.4,261.6c-6-1.2-12.3,2.2-14.8,7.9c-2.6,5.9-0.9,12.6,4.5,16.5c1.1,0.8,1.3,1.5,1.3,2.7
		c0,5.9,0,11.7,0,17.7c0,4.8,5.1,8.6,10.3,5.9c2.2-1.1,3.5-3.5,3.3-5.9c0-5.9,0-11.7,0-17.7c0-1.3,0.3-2.1,1.5-2.9
		c3.7-2.7,5.6-6.5,5.6-11C263.7,268.3,259,262.9,252.4,261.6z"/>
</g>
</svg>
