<?xml version="1.0" encoding="utf-8"?>
<!-- Generator: Adobe Illustrator 21.1.0, SVG Export Plug-In . SVG Version: 6.00 Build 0)  -->
<svg version="1.1" id="Fair_x5F_Games" xmlns="http://www.w3.org/2000/svg" xmlns:xlink="http://www.w3.org/1999/xlink" x="0px"
	 y="0px" viewBox="0 0 500 500" style="enable-background:new 0 0 500 500;" xml:space="preserve">
<style type="text/css">
	.st0{fill:#FF5E5E;}
	.st1{fill:#FFFFFF;}
</style>
<g id="Icon">
	<circle id="BG" class="st0" cx="250" cy="250" r="230"/>
	<path id="Hands" class="st1" d="M393.2,216.5c0-16.2-6.3-31.4-17.7-42.8c-11.4-11.4-26.6-17.7-42.8-17.7
		c-16.2,0-31.4,6.3-42.8,17.7L274.8,189c-2.1-0.6-4.3-1-6.4-1.3c-13.6-7.7-30.8-9.2-45.3-3.9l-13-13c-11.4-11.4-26.6-17.7-42.8-17.7
		c-16.2,0-31.4,6.3-42.8,17.7c-11.4,11.4-17.7,26.6-17.7,42.8s6.3,31.4,17.7,42.8l15.2,15.2c-0.3,0.2-0.6,0.5-0.8,0.7l-2,2
		c-8.1,8.1-8.1,21.3,0,29.4l0,0c3.2,3.2,7.2,5.1,11.4,5.8c-0.3,1.5-0.5,3.1-0.5,4.7c0,5.9,2.3,11.4,6.4,15.5
		c4.1,4.1,9.6,6.4,15.4,6.4c0,5.8,2.3,11.3,6.4,15.4c4.1,4.1,9.6,6.4,15.5,6.4c0.9,0,1.9-0.1,2.8-0.2c0.6,4.9,2.8,9.4,6.3,12.9
		c4.1,4.1,9.6,6.4,15.5,6.4c2.2,0,4.3-0.3,6.4-0.9l2.2,2.2c4.3,4.3,10.2,6.7,16.2,6.7c5,0,9.9-1.7,13.7-4.8c4-3.3,6.8-8,7.7-13.1
		c6.6,1.4,13.5-0.1,18.6-4.3c4-3.3,6.7-7.9,7.6-13c6.7,1.6,13.7,0,18.8-4.2c4-3.3,6.7-7.9,7.6-13c6.7,1.5,13.7,0,18.8-4.2
		c4.8-3.9,7.7-9.7,8-15.9c0.2-5.2-1.4-10.5-4.7-14.6l38.6-38.6C387,247.9,393.2,232.7,393.2,216.5z M325.4,318.4
		c-3.5,2.9-9,2.4-12.5-1.1l-9.6-9.6c-1.2-1.2-2.8-1.9-4.6-1.9c-1.7,0-3.4,0.7-4.6,1.9c-1.2,1.2-1.9,2.8-1.9,4.6
		c0,1.7,0.7,3.4,1.9,4.6l5.5,5.5c1.8,1.8,2.7,4.2,2.6,6.8c-0.1,2.6-1.3,4.9-3.3,6.5c-3.5,2.9-9,2.4-12.5-1.1l-9.6-9.6
		c-2.5-2.5-6.6-2.5-9.2,0c-1.2,1.2-1.9,2.8-1.9,4.6c0,1.7,0.7,3.4,1.9,4.6l5.5,5.5c1.8,1.8,2.7,4.2,2.6,6.8
		c-0.1,2.6-1.3,4.9-3.3,6.5c-3.5,2.9-9,2.4-12.5-1.1l-9.4-9.4c-1.2-1.2-2.8-1.9-4.6-1.9c-1.7,0-3.4,0.7-4.6,1.9
		c-1.2,1.2-1.9,2.8-1.9,4.6c0,1.7,0.7,3.4,1.9,4.6l5.5,5.5c1.7,1.8,2.7,4.2,2.5,6.7c-0.1,2.6-1.3,4.9-3.3,6.5
		c-3.5,2.9-9,2.4-12.5-1.1l-0.5-0.5c3-3.8,4.7-8.6,4.7-13.5c0-5.9-2.3-11.4-6.4-15.5c-4.1-4.1-9.6-6.4-15.5-6.4
		c-0.9,0-1.9,0.1-2.8,0.2c-0.6-4.9-2.8-9.4-6.2-12.9c-3-3-6.7-5-10.8-5.9c2.1-7.6,0-15.7-5.6-21.4c-4.4-4.4-10.2-6.6-16.3-6.4
		c0-5.3-2-10.6-6.1-14.6c-4.3-4.3-9.9-6.3-15.5-6l-19.1-19.1c-9-9-13.9-20.9-13.9-33.6c0-12.7,4.9-24.6,13.9-33.6
		c9-9,20.9-13.9,33.6-13.9s24.6,4.9,33.6,13.9l16.1,16.1c1.9,1.9,4.9,2.4,7.4,1.3c4.6-2.2,9.8-3.4,15.1-3.7
		c-3.2,1.9-6.2,4.2-8.8,6.9l-27.3,27.3c-8.5,8.5-8.5,22.4,0,31c4.1,4.1,9.6,6.4,15.5,6.4c5.9,0,11.4-2.3,15.5-6.4L257,236l69.1,69.1
		c1.8,1.8,2.7,4.2,2.6,6.8C328.6,314.4,327.4,316.7,325.4,318.4z"/>
</g>
</svg>
