<?xml version="1.0" encoding="utf-8"?>
<!-- Generator: Adobe Illustrator 21.1.0, SVG Export Plug-In . SVG Version: 6.00 Build 0)  -->
<svg version="1.1" id="Security_x5F_Founds" xmlns="http://www.w3.org/2000/svg" xmlns:xlink="http://www.w3.org/1999/xlink"
	 x="0px" y="0px" viewBox="0 0 500 500" style="enable-background:new 0 0 500 500;" xml:space="preserve">
<style type="text/css">
	.st0{fill:#FF5E5E;}
	.st1{fill:#FFFFFF;}
</style>
<g id="Icon">
	<circle id="BG" class="st0" cx="250" cy="250" r="230"/>
	<path id="Shield" class="st1" d="M389.4,171.5c-0.1-6.9-5.4-12.6-12.3-13.3c-57.2-5.3-103.9-35.9-119.3-47.1
		c-3.2-2.3-7.6-2.3-10.8,0c-15.4,11.2-62,41.7-119.2,47.1c-6.9,0.6-12.2,6.3-12.3,13.3c-0.7,45.1,6.6,198.3,133.5,232.4
		c2.3,0.6,4.6,0.6,6.9,0C382.9,369.8,390.1,216.6,389.4,171.5z"/>
	<path id="Line" class="st0" d="M252.5,382.6c-0.5,0-1-0.1-1.5-0.2c-45.3-13.4-77.8-46.3-96.6-97.8c-14.3-39.1-17.1-80.2-17.6-101.2
		c-0.1-2.7,1.9-5,4.5-5.4c48.6-7.2,88.7-29.9,108.3-42.8c1.8-1.2,4.1-1.2,5.8,0c19.6,12.9,59.8,35.6,108.3,42.8
		c2.6,0.4,4.6,2.7,4.5,5.4c-0.4,21.1-3.3,62.2-17.6,101.2c-18.8,51.6-51.3,84.5-96.6,97.8C253.5,382.5,253,382.6,252.5,382.6z
		 M147.5,187.7c0.7,21.4,4,58.2,16.8,93.2c17.4,47.7,47.1,78.2,88.2,90.9c41.1-12.6,70.8-43.2,88.2-90.8
		c12.8-34.9,16.1-71.8,16.8-93.2c-46.1-7.8-84.4-28.6-105-41.8C232,159.1,193.7,179.9,147.5,187.7z"/>
	<path id="Dollar" class="st0" d="M260.4,248.2h-15.8c-4.8,0-8.8-3.9-8.8-8.8c0-4.8,3.9-8.7,8.8-8.7h27.8c4.7,0,8.5-3.8,8.5-8.5
		c0-4.7-3.8-8.5-8.5-8.5H261v-8c0-4.7-3.8-8.5-8.5-8.5c-4.7,0-8.5,3.8-8.5,8.5v8c-13.9,0.4-25.1,11.8-25.1,25.8
		c0,14.2,11.6,25.8,25.8,25.8h15.8c4.8,0,8.8,3.9,8.8,8.8s-3.9,8.8-8.8,8.8h-28.4c-4.7,0-8.5,3.8-8.5,8.5c0,4.7,3.8,8.5,8.5,8.5H244
		v8.1c0,4.7,3.8,8.5,8.5,8.5s8.5-3.8,8.5-8.5v-8.1c14-0.3,25.2-11.8,25.2-25.8C286.2,259.8,274.7,248.2,260.4,248.2z"/>
</g>
</svg>
