<?xml version="1.0" encoding="utf-8"?>
<!-- Generator: Adobe Illustrator 21.1.0, SVG Export Plug-In . SVG Version: 6.00 Build 0)  -->
<svg version="1.1" id="Trustless" xmlns="http://www.w3.org/2000/svg" xmlns:xlink="http://www.w3.org/1999/xlink" x="0px" y="0px"
	 viewBox="0 0 500 500" style="enable-background:new 0 0 500 500;" xml:space="preserve">
<style type="text/css">
	.st0{fill:#FF5E5E;}
	.st1{fill:#FFFFFF;}
</style>
<g>
	<circle id="BG" class="st0" cx="250" cy="250" r="230"/>
	<g id="Cart">
		<path class="st1" d="M203.3,162.3c1.2,1.8,3.2,2.8,5.2,2.8c0.9,0,1.8-0.2,2.7-0.6c8.1-3.8,16.6-6.4,25.4-7.8
			c3.1-0.5,5.3-3.1,5.3-6.3l-0.1-57.3c0-1.8-0.8-3.5-2.1-4.7c-1.3-1.2-3.1-1.8-4.9-1.6c-21.7,2.2-42.4,8.5-61.5,18.9
			c-1.6,0.9-2.7,2.3-3.1,4.1c-0.4,1.7-0.1,3.6,0.9,5L203.3,162.3z M229.1,100.3l0.1,44.9c-6.3,1.3-12.5,3.2-18.5,5.7l-25.2-37.2
			C199.3,107,213.9,102.5,229.1,100.3z"/>
		<path class="st1" d="M266.1,156.7c40.1,6.4,72.4,38.9,78.5,79c0.5,3.1,3.1,5.4,6.2,5.4l57.3,0.1c0,0,0,0,0,0
			c1.8,0,3.5-0.7,4.7-2.1c1.2-1.3,1.8-3.1,1.6-4.9C407,156.6,345.3,94.6,267.6,86.8c-1.8-0.2-3.5,0.4-4.9,1.6
			c-1.3,1.2-2.1,2.9-2.1,4.7l0.1,57.3C260.8,153.6,263.1,156.2,266.1,156.7z"/>
		<path class="st1" d="M408.1,260.2l-57.4-0.1c0,0,0,0,0,0c-3.1,0-5.7,2.2-6.2,5.3c-7.5,45.9-46.7,79.1-93.2,79.1
			c-52.1,0-94.5-42.4-94.5-94.5c0-26.3,10.6-50.8,29.9-68.8c2.3-2.1,2.6-5.6,0.9-8.2l-32.2-47.4c-1-1.5-2.6-2.5-4.4-2.7
			c-1.8-0.2-3.6,0.3-4.9,1.4c-37.4,31.3-58.8,77.1-58.8,125.7c0,90.4,73.6,164,164,164c40.7,0,79.8-15.1,110.1-42.5
			c30-27.2,48.8-64.3,53-104.3c0.2-1.8-0.4-3.6-1.6-4.9C411.6,260.9,409.9,260.2,408.1,260.2z"/>
	</g>
	<path id="Dollar" class="st1" d="M257.5,241.2h-14.1c-4.2,0-7.7-3.5-7.7-7.7c0-4.2,3.5-7.6,7.7-7.6h24.8c4.3,0,7.7-3.5,7.7-7.7
		c0-4.3-3.5-7.7-7.7-7.7h-10.1v-7c0-4.3-3.5-7.7-7.7-7.7s-7.7,3.5-7.7,7.7v7c-12.4,0.4-22.4,10.6-22.4,23.1
		c0,12.7,10.4,23.1,23.1,23.1h14.1c4.2,0,7.7,3.5,7.7,7.7c0,4.2-3.5,7.7-7.7,7.7h-25.3c-4.3,0-7.7,3.5-7.7,7.7s3.5,7.7,7.7,7.7h10.5
		v7.1c0,4.2,3.5,7.6,7.7,7.6c4.3,0,7.7-3.5,7.7-7.7v-7.1c12.4-0.4,22.4-10.6,22.4-23.1C280.6,251.5,270.2,241.2,257.5,241.2z"/>
</g>
</svg>
