<?xml version="1.0" encoding="UTF-8" standalone="no"?>
<svg
   xmlns:dc="http://purl.org/dc/elements/1.1/"
   xmlns:cc="http://creativecommons.org/ns#"
   xmlns:rdf="http://www.w3.org/1999/02/22-rdf-syntax-ns#"
   xmlns:svg="http://www.w3.org/2000/svg"
   xmlns="http://www.w3.org/2000/svg"
   viewBox="0 0 793.70667 793.70667"
   height="793.70667"
   width="793.70667"
   xml:space="preserve"
   id="svg2"
   version="1.1"><metadata
     id="metadata8"><rdf:RDF><cc:Work
         rdf:about=""><dc:format>image/svg+xml</dc:format><dc:type
           rdf:resource="http://purl.org/dc/dcmitype/StillImage" /></cc:Work></rdf:RDF></metadata><defs
     id="defs6"><clipPath
       id="clipPath20"
       clipPathUnits="userSpaceOnUse"><path
         id="path18"
         d="m 172.854,262.444 h 318.122 v 34.177 H 172.854 Z" /></clipPath></defs><g
     transform="matrix(1.3333333,0,0,-1.3333333,0,793.70667)"
     id="g10"><path
       id="path12"
       style="fill:#fde84f;fill-opacity:1;fill-rule:nonzero;stroke:none"
       d="m 69.969,228.323 h 455.606 v 137.53 H 69.969 Z" /><g
       id="g14"><g
         clip-path="url(#clipPath20)"
         id="g16"><g
           transform="translate(181.7575,272.9743)"
           id="g22"><path
             id="path24"
             style="fill:#212121;fill-opacity:1;fill-rule:nonzero;stroke:none"
             d="m 0,0 5.074,5.266 h 1.34 l 7.659,-15.796 h 9.573 L 12.302,13.164 21.971,23.646 H 11.823 L 0,11.2 V 23.646 H -8.903 V -10.53 H 0 Z M 37.336,23.646 H 28.433 V -10.53 h 8.903 z m 30.252,0 V 3.782 h -1.34 L 55.622,23.646 H 44.947 V -10.53 h 7.898 V 9.334 h 1.34 L 64.811,-10.53 h 10.675 v 34.176 z m 30.49,0 H 82.857 V -10.53 h 15.221 c 10.483,0 15.845,6.844 15.845,17.087 0,10.291 -5.362,17.089 -15.845,17.089 M 96.643,-2.681 H 91.76 v 18.477 h 4.883 c 5.984,0 8.185,-4.069 8.185,-9.239 0,-5.121 -2.201,-9.238 -8.185,-9.238 m 48.058,9.095 v 1.341 c 1.915,1.052 3.351,3.541 3.351,6.557 0,5.074 -3.686,9.334 -11.488,9.334 H 119.81 V -10.53 h 17.279 c 8.233,0 11.872,4.259 11.872,10.052 0,3.302 -2.202,5.934 -4.26,6.892 m -15.988,10.052 h 6.558 c 1.914,0 3.639,-0.718 3.639,-2.967 0,-2.25 -1.629,-2.92 -3.543,-2.92 h -6.654 z m 6.941,-19.672 h -6.941 v 6.604 h 7.085 c 2.249,0 4.021,-0.862 4.021,-3.398 0,-2.442 -2.154,-3.206 -4.165,-3.206 m 41.596,6.269 v 7.659 h -13.21 v 5.074 h 17.326 v 7.85 h -26.23 V -10.53 h 26.661 v 7.849 H 164.04 v 5.744 z m 32.31,0 v 7.659 h -13.211 v 5.074 h 17.328 v 7.85 H 187.445 V -10.53 h 26.663 v 7.849 h -17.759 v 5.744 z m 36.57,20.583 h -29.341 v -7.85 h 10.195 V -10.53 h 8.903 v 26.326 h 10.243 z m 13.307,-26.327 v 26.327 h -8.903 V -10.53 h 26.374 v 7.849 z m 45.234,5.744 v 7.659 H 291.46 v 5.074 h 17.328 v 7.85 H 282.557 V -10.53 h 26.662 v 7.849 H 291.46 v 5.744 z" /></g></g></g></g></svg>